<svg xmlns="http://www.w3.org/2000/svg" viewBox="0 0 175.17 49.78"><defs><style>.cls-1{fill:#fcfcfc;}</style></defs><title>Asset 1logo_full@1x</title><g id="Layer_2" data-name="Layer 2"><g id="Layer_1-2" data-name="Layer 1"><path class="cls-1" d="M74.67,48.83a1,1,0,0,1-.07.37.7.7,0,0,1-.22.3,1.12,1.12,0,0,1-.42.21,3,3,0,0,1-1.34,0,1.13,1.13,0,0,1-.42-.21.72.72,0,0,1-.22-.3,1,1,0,0,1-.06-.37V46.18a1,1,0,0,1,.06-.37.74.74,0,0,1,.22-.3,1.14,1.14,0,0,1,.42-.2,3,3,0,0,1,1.34,0,1.14,1.14,0,0,1,.42.2.72.72,0,0,1,.22.3,1,1,0,0,1,.07.37v.33c0,.07,0,.1-.09.1h-.26c-.07,0-.1,0-.1-.1v-.26a.71.71,0,0,0,0-.26.47.47,0,0,0-.15-.2.76.76,0,0,0-.28-.13,1.77,1.77,0,0,0-.44,0,1.75,1.75,0,0,0-.44,0,.77.77,0,0,0-.28.13.43.43,0,0,0-.15.2.64.64,0,0,0,0,.26v2.5a.58.58,0,0,0,.2.46,1.13,1.13,0,0,0,.72.17,1.18,1.18,0,0,0,.72-.17.57.57,0,0,0,.2-.46V48.4a.09.09,0,0,1,.1-.1h.26a.09.09,0,0,1,.09.1Z"/><path class="cls-1" d="M76.35,48.75a.56.56,0,0,0,.21.46,1.69,1.69,0,0,0,1.47,0,.55.55,0,0,0,.22-.46V45.38c0-.07,0-.1.09-.1h.27c.06,0,.09,0,.09.1v3.45a1,1,0,0,1-.07.37.73.73,0,0,1-.23.3,1.19,1.19,0,0,1-.44.21,2.58,2.58,0,0,1-.68.07,2.52,2.52,0,0,1-.67-.07,1.2,1.2,0,0,1-.43-.21.71.71,0,0,1-.23-.3,1,1,0,0,1-.07-.37V45.38c0-.07,0-.1.09-.1h.28c.06,0,.09,0,.09.1Z"/><path class="cls-1" d="M82.36,46.25a.56.56,0,0,0-.19-.46,1.11,1.11,0,0,0-.7-.16,1.15,1.15,0,0,0-.71.16.56.56,0,0,0-.2.46v.2a.56.56,0,0,0,0,.21.53.53,0,0,0,.09.14.45.45,0,0,0,.12.09l.13.06,1.22.46a1.37,1.37,0,0,1,.26.13,1,1,0,0,1,.22.17.8.8,0,0,1,.15.23.82.82,0,0,1,.05.31v.56a1,1,0,0,1-.07.37.74.74,0,0,1-.23.3,1.2,1.2,0,0,1-.43.21,2.49,2.49,0,0,1-.67.07,2.34,2.34,0,0,1-.67-.08,1.14,1.14,0,0,1-.43-.21.72.72,0,0,1-.23-.3,1,1,0,0,1-.07-.37v-.36c0-.06,0-.1.09-.1h.27c.06,0,.09,0,.09.1v.3a.55.55,0,0,0,.21.46,1.21,1.21,0,0,0,.73.17,1.24,1.24,0,0,0,.74-.17.55.55,0,0,0,.21-.45v-.41a.48.48,0,0,0,0-.22.54.54,0,0,0-.13-.16L82,47.87l-.19-.09-1.17-.45a.88.88,0,0,1-.21-.11.93.93,0,0,1-.18-.17,1,1,0,0,1-.13-.23.77.77,0,0,1,0-.27v-.36a1,1,0,0,1,.06-.37.75.75,0,0,1,.22-.3,1.09,1.09,0,0,1,.41-.2,2.33,2.33,0,0,1,.65-.08,2.4,2.4,0,0,1,.65.08,1.17,1.17,0,0,1,.42.21.75.75,0,0,1,.22.3,1,1,0,0,1,.07.37v.31a.09.09,0,0,1-.1.1h-.26c-.06,0-.09,0-.09-.1Z"/><path class="cls-1" d="M86.54,45.28a.09.09,0,0,1,.1.1v.2a.09.09,0,0,1-.1.1H85.42v3.95c0,.07,0,.1-.09.1H85a.09.09,0,0,1-.1-.1V45.68H83.83a.09.09,0,0,1-.1-.1v-.2a.09.09,0,0,1,.1-.1Z"/><path class="cls-1" d="M87.61,46.18a1,1,0,0,1,.07-.37.73.73,0,0,1,.23-.3,1.24,1.24,0,0,1,.43-.2,2.53,2.53,0,0,1,.67-.08,2.58,2.58,0,0,1,.68.08,1.22,1.22,0,0,1,.44.2.75.75,0,0,1,.23.3,1,1,0,0,1,.07.37v2.64a1,1,0,0,1-.07.37.73.73,0,0,1-.23.3,1.2,1.2,0,0,1-.44.21,2.59,2.59,0,0,1-.68.07,2.54,2.54,0,0,1-.67-.07,1.22,1.22,0,0,1-.43-.21.71.71,0,0,1-.23-.3,1,1,0,0,1-.07-.37Zm2.37.07a.55.55,0,0,0-.22-.46,1.71,1.71,0,0,0-1.47,0,.55.55,0,0,0-.21.46v2.5a.55.55,0,0,0,.21.46,1.24,1.24,0,0,0,.73.17,1.21,1.21,0,0,0,.74-.17.55.55,0,0,0,.22-.46Z"/><path class="cls-1" d="M95.43,49.63a.09.09,0,0,1-.1.1h-.26a.09.09,0,0,1-.1-.1V46.25a2.09,2.09,0,0,1-.06.21l-.07.2-.95,2.29a.14.14,0,0,1-.13.1h-.24a.13.13,0,0,1-.12-.1l-1-2.35,0-.14-.06-.2v3.37c0,.07,0,.1-.09.1H92a.09.09,0,0,1-.1-.1V45.38a.09.09,0,0,1,.1-.1h.25a.08.08,0,0,1,.09.05l1.24,2.89a1.43,1.43,0,0,1,.08.22l0,.12,0-.12c0-.07.05-.14.08-.2L95,45.33a.09.09,0,0,1,.09-.05h.26a.09.09,0,0,1,.1.1Z"/><path class="cls-1" d="M99.13,46.25a.56.56,0,0,0-.19-.46,1.12,1.12,0,0,0-.7-.16,1.14,1.14,0,0,0-.71.16.56.56,0,0,0-.2.46v.2a.58.58,0,0,0,0,.21.62.62,0,0,0,.09.14.49.49,0,0,0,.12.09l.13.06,1.22.46a1.36,1.36,0,0,1,.26.13,1,1,0,0,1,.22.17.77.77,0,0,1,.21.54v.56a1,1,0,0,1-.07.37.75.75,0,0,1-.23.3,1.22,1.22,0,0,1-.43.21,2.48,2.48,0,0,1-.67.07,2.34,2.34,0,0,1-.66-.08,1.16,1.16,0,0,1-.43-.21.71.71,0,0,1-.23-.3,1,1,0,0,1-.07-.37v-.36c0-.06,0-.1.09-.1h.27a.09.09,0,0,1,.09.1v.3a.55.55,0,0,0,.21.46,1.22,1.22,0,0,0,.73.17,1.24,1.24,0,0,0,.74-.17.54.54,0,0,0,.21-.45v-.41a.46.46,0,0,0,0-.22A.48.48,0,0,0,99,48a.91.91,0,0,0-.17-.11l-.19-.09-1.17-.45a.81.81,0,0,1-.21-.11.9.9,0,0,1-.18-.17.92.92,0,0,1-.13-.23.78.78,0,0,1,0-.27v-.36a1.07,1.07,0,0,1,.06-.37.75.75,0,0,1,.22-.3,1.09,1.09,0,0,1,.41-.2,2.35,2.35,0,0,1,.65-.08,2.38,2.38,0,0,1,.65.08,1.16,1.16,0,0,1,.42.21.76.76,0,0,1,.22.3,1.05,1.05,0,0,1,.07.37v.31a.09.09,0,0,1-.1.1h-.26c-.06,0-.09,0-.09-.1Z"/><path class="cls-1" d="M104.8,45.28a.12.12,0,0,1,.12.1l1.31,4.25c0,.07,0,.1-.08.1h-.28a.12.12,0,0,1-.12-.1l-.36-1.16h-1.5l-.35,1.16a.17.17,0,0,1,0,.08.1.1,0,0,1-.07,0h-.26c-.07,0-.09,0-.07-.1l1.3-4.25a.12.12,0,0,1,.12-.1Zm0,1.28c0-.05,0-.12-.05-.2l0-.24c0-.08,0-.15,0-.22s0-.1,0-.12,0,0,0,.11,0,.13,0,.21l-.05.24-.06.22L104,48.09h1.29Z"/><path class="cls-1" d="M110.11,49.63c0,.07,0,.1-.09.1h-.25a.1.1,0,0,1-.09,0l-1.73-3.07c-.07-.13-.13-.23-.16-.3l-.06-.12v3.44c0,.07,0,.1-.09.1h-.25a.09.09,0,0,1-.1-.1V45.38a.09.09,0,0,1,.1-.1h.25a.08.08,0,0,1,.08,0l1.77,3.12.12.23,0,.08,0,.09V45.38c0-.07,0-.1.09-.1H110c.06,0,.09,0,.09.1Z"/><path class="cls-1" d="M111.7,49.73c-.05,0-.08,0-.08-.1V45.38c0-.07,0-.1.09-.1H113a2.58,2.58,0,0,1,.68.08,1.28,1.28,0,0,1,.44.2.71.71,0,0,1,.23.3,1,1,0,0,1,.07.37v2.54a1,1,0,0,1-.07.37.7.7,0,0,1-.23.3,1.24,1.24,0,0,1-.44.21,2.63,2.63,0,0,1-.68.08Zm.37-4v3.65H113a1.22,1.22,0,0,0,.74-.17.55.55,0,0,0,.22-.46V46.31a.56.56,0,0,0-.22-.45,1.21,1.21,0,0,0-.74-.17Z"/><path class="cls-1" d="M118.91,49.33h1.83a.08.08,0,0,1,.09.09v.21c0,.07,0,.1-.09.1h-2.22c-.05,0-.08,0-.08-.1V45.38c0-.07,0-.1.09-.1h.28c.06,0,.09,0,.09.1Z"/><path class="cls-1" d="M121.9,46.18a1,1,0,0,1,.07-.37.71.71,0,0,1,.23-.3,1.24,1.24,0,0,1,.43-.2,2.51,2.51,0,0,1,.67-.08,2.6,2.6,0,0,1,.68.08,1.2,1.2,0,0,1,.44.2.73.73,0,0,1,.23.3,1,1,0,0,1,.07.37v2.64a1,1,0,0,1-.07.37.72.72,0,0,1-.23.3,1.19,1.19,0,0,1-.44.21,2.61,2.61,0,0,1-.68.07,2.52,2.52,0,0,1-.67-.07,1.23,1.23,0,0,1-.43-.21.7.7,0,0,1-.23-.3,1,1,0,0,1-.07-.37Zm2.37.07a.56.56,0,0,0-.22-.46,1.23,1.23,0,0,0-.74-.17,1.22,1.22,0,0,0-.73.17.55.55,0,0,0-.22.46v2.5a.56.56,0,0,0,.22.46,1.23,1.23,0,0,0,.73.17,1.21,1.21,0,0,0,.74-.17.55.55,0,0,0,.22-.46Z"/><path class="cls-1" d="M128.74,47.59c.06,0,.1,0,.1.09v1.14a1,1,0,0,1-.07.37.72.72,0,0,1-.22.3,1.14,1.14,0,0,1-.42.21,2.51,2.51,0,0,1-.67.07,2.49,2.49,0,0,1-.67-.07,1.13,1.13,0,0,1-.42-.21.72.72,0,0,1-.22-.3,1,1,0,0,1-.06-.37V46.18a1,1,0,0,1,.06-.37.74.74,0,0,1,.22-.3,1.15,1.15,0,0,1,.42-.2,2.48,2.48,0,0,1,.67-.08,2.51,2.51,0,0,1,.67.08,1.15,1.15,0,0,1,.42.2.74.74,0,0,1,.22.3,1,1,0,0,1,.07.37v.31a.08.08,0,0,1-.09.09h-.26c-.07,0-.1,0-.1-.09v-.24a.69.69,0,0,0,0-.26.45.45,0,0,0-.15-.2.76.76,0,0,0-.28-.13,2.1,2.1,0,0,0-.88,0,.75.75,0,0,0-.28.13.44.44,0,0,0-.15.2.7.7,0,0,0,0,.26v2.5a.57.57,0,0,0,.2.46,1.13,1.13,0,0,0,.72.17,1.18,1.18,0,0,0,.72-.16.55.55,0,0,0,.2-.46V48h-.88c-.06,0-.09,0-.09-.1v-.21a.08.08,0,0,1,.09-.09Z"/><path class="cls-1" d="M130.65,49.63c0,.07,0,.1-.09.1h-.27c-.06,0-.09,0-.09-.1V45.38c0-.07,0-.1.09-.1h.27c.06,0,.09,0,.09.1Z"/><path class="cls-1" d="M134.35,46.25a.56.56,0,0,0-.19-.46,1.12,1.12,0,0,0-.7-.16,1.14,1.14,0,0,0-.71.16.56.56,0,0,0-.2.46v.2a.59.59,0,0,0,0,.21.57.57,0,0,0,.09.14.47.47,0,0,0,.12.09l.13.06,1.22.46a1.32,1.32,0,0,1,.26.13,1,1,0,0,1,.22.17.83.83,0,0,1,.15.23.81.81,0,0,1,.06.31v.56a1,1,0,0,1-.07.37.74.74,0,0,1-.23.3,1.2,1.2,0,0,1-.43.21,2.46,2.46,0,0,1-.66.07,2.33,2.33,0,0,1-.66-.08,1.17,1.17,0,0,1-.43-.21.75.75,0,0,1-.23-.3,1,1,0,0,1-.07-.37v-.36c0-.06,0-.1.09-.1h.27a.09.09,0,0,1,.09.1v.3a.55.55,0,0,0,.21.46,1.22,1.22,0,0,0,.73.17,1.24,1.24,0,0,0,.74-.17.55.55,0,0,0,.21-.45v-.41a.49.49,0,0,0-.18-.38.91.91,0,0,0-.17-.11l-.19-.09-1.17-.45a.79.79,0,0,1-.2-.11.88.88,0,0,1-.18-.17.83.83,0,0,1-.13-.23.75.75,0,0,1,0-.27v-.36a1.09,1.09,0,0,1,.06-.37.75.75,0,0,1,.22-.3,1.1,1.1,0,0,1,.41-.2,2.34,2.34,0,0,1,.65-.08,2.38,2.38,0,0,1,.65.08,1.16,1.16,0,0,1,.42.21.76.76,0,0,1,.22.3,1,1,0,0,1,.07.37v.31a.09.09,0,0,1-.1.1h-.26c-.06,0-.09,0-.09-.1Z"/><path class="cls-1" d="M138.53,45.28a.09.09,0,0,1,.1.1v.2a.09.09,0,0,1-.1.1H137.4v3.95c0,.07,0,.1-.09.1H137a.09.09,0,0,1-.1-.1V45.68h-1.13a.09.09,0,0,1-.1-.1v-.2a.09.09,0,0,1,.1-.1Z"/><path class="cls-1" d="M140.12,49.63c0,.07,0,.1-.09.1h-.27c-.06,0-.09,0-.09-.1V45.38c0-.07,0-.1.09-.1H140c.06,0,.09,0,.09.1Z"/><path class="cls-1" d="M144.33,48.83a1,1,0,0,1-.07.37.7.7,0,0,1-.22.3,1.11,1.11,0,0,1-.43.21,3,3,0,0,1-1.34,0,1.1,1.1,0,0,1-.42-.21.71.71,0,0,1-.22-.3,1.07,1.07,0,0,1-.07-.37V46.18a1.07,1.07,0,0,1,.07-.37.73.73,0,0,1,.22-.3,1.12,1.12,0,0,1,.42-.2,3,3,0,0,1,1.34,0,1.13,1.13,0,0,1,.43.2.72.72,0,0,1,.22.3,1,1,0,0,1,.07.37v.33c0,.07,0,.1-.09.1H144c-.06,0-.1,0-.1-.1v-.26a.69.69,0,0,0,0-.26.47.47,0,0,0-.15-.2.78.78,0,0,0-.28-.13,2.11,2.11,0,0,0-.88,0,.76.76,0,0,0-.28.13.45.45,0,0,0-.15.2.67.67,0,0,0,0,.26v2.5a.57.57,0,0,0,.2.46,1.13,1.13,0,0,0,.72.17,1.17,1.17,0,0,0,.72-.17.58.58,0,0,0,.2-.46V48.4a.09.09,0,0,1,.1-.1h.26c.06,0,.09,0,.09.1Z"/><path class="cls-1" d="M147.76,46.25a.56.56,0,0,0-.19-.46,1.12,1.12,0,0,0-.7-.16,1.15,1.15,0,0,0-.71.16.57.57,0,0,0-.2.46v.2a.55.55,0,0,0,0,.21.61.61,0,0,0,.09.14.46.46,0,0,0,.12.09l.13.06,1.23.46a1.42,1.42,0,0,1,.26.13,1,1,0,0,1,.21.17.78.78,0,0,1,.15.23.79.79,0,0,1,.06.31v.56a1,1,0,0,1-.07.37.72.72,0,0,1-.23.3,1.24,1.24,0,0,1-.43.21,2.49,2.49,0,0,1-.67.07,2.34,2.34,0,0,1-.67-.08,1.17,1.17,0,0,1-.43-.21.72.72,0,0,1-.23-.3,1,1,0,0,1-.07-.37v-.36a.09.09,0,0,1,.09-.1h.27c.06,0,.09,0,.09.1v.3a.56.56,0,0,0,.21.46,1.71,1.71,0,0,0,1.47,0,.55.55,0,0,0,.21-.45v-.41a.47.47,0,0,0,0-.22.49.49,0,0,0-.13-.16l-.17-.11-.19-.09-1.17-.45a.79.79,0,0,1-.21-.11,1,1,0,0,1-.18-.17.87.87,0,0,1-.13-.23.7.7,0,0,1-.05-.27v-.36a1,1,0,0,1,.07-.37.74.74,0,0,1,.22-.3,1.09,1.09,0,0,1,.41-.2,2.33,2.33,0,0,1,.65-.08,2.37,2.37,0,0,1,.65.08,1.16,1.16,0,0,1,.42.21.78.78,0,0,1,.22.3,1.05,1.05,0,0,1,.06.37v.31a.09.09,0,0,1-.1.1h-.26c-.06,0-.09,0-.09-.1Z"/><path class="cls-1" d="M152.25,49.73a.09.09,0,0,1-.09-.1V45.38a.09.09,0,0,1,.09-.1h1.12a2.64,2.64,0,0,1,.68.07,1.3,1.3,0,0,1,.44.19.68.68,0,0,1,.23.29.94.94,0,0,1,.07.36v.43a.82.82,0,0,1-.13.47.85.85,0,0,1-.46.3,1.12,1.12,0,0,1,.58.3.73.73,0,0,1,.19.51v.58a1,1,0,0,1-.07.37.71.71,0,0,1-.23.3,1.24,1.24,0,0,1-.44.2,2.76,2.76,0,0,1-.68.07Zm.36-4.06v1.59h.83a1.11,1.11,0,0,0,.69-.17.58.58,0,0,0,.21-.47v-.35a.52.52,0,0,0-.22-.45,1.37,1.37,0,0,0-.74-.15Zm0,2v1.72h.94a1.24,1.24,0,0,0,.74-.17.55.55,0,0,0,.22-.46v-.48a.52.52,0,0,0-.22-.44,1.22,1.22,0,0,0-.74-.17Z"/><path class="cls-1" d="M156.74,47.92v1.71c0,.07,0,.1-.09.1h-.27c-.06,0-.09,0-.09-.1V45.38c0-.07,0-.1.08-.1h1.3a2.59,2.59,0,0,1,.68.08,1.22,1.22,0,0,1,.44.2.71.71,0,0,1,.23.3,1,1,0,0,1,.07.37V47a.91.91,0,0,1-.18.55,1,1,0,0,1-.63.34l.85,1.77a.06.06,0,0,1,0,.07.13.13,0,0,1-.08,0h-.27a.09.09,0,0,1-.07,0,.28.28,0,0,1,0-.07l-.81-1.71h-1.09Zm0-2.24v1.83h.92a1.2,1.2,0,0,0,.74-.17.55.55,0,0,0,.22-.46v-.58a.55.55,0,0,0-.22-.45,1.2,1.2,0,0,0-.74-.17Z"/><path class="cls-1" d="M160.39,46.18a1,1,0,0,1,.07-.37.75.75,0,0,1,.24-.3,1.26,1.26,0,0,1,.44-.2,2.51,2.51,0,0,1,.67-.08,2.6,2.6,0,0,1,.68.08,1.2,1.2,0,0,1,.44.2.72.72,0,0,1,.23.3,1,1,0,0,1,.07.37v2.64a1,1,0,0,1-.07.37.7.7,0,0,1-.23.3,1.18,1.18,0,0,1-.44.21,2.61,2.61,0,0,1-.68.07,2.52,2.52,0,0,1-.67-.07,1.24,1.24,0,0,1-.44-.21.73.73,0,0,1-.24-.3,1,1,0,0,1-.07-.37Zm2.36.07a.55.55,0,0,0-.21-.46,1.24,1.24,0,0,0-.74-.17,1.22,1.22,0,0,0-.73.17.55.55,0,0,0-.22.46v2.5a.56.56,0,0,0,.22.46,1.24,1.24,0,0,0,.73.17,1.22,1.22,0,0,0,.74-.17.55.55,0,0,0,.21-.46Z"/><path class="cls-1" d="M167.52,49.63s0,0,0,.07a.06.06,0,0,1-.06,0h-.37a.12.12,0,0,1-.08,0l-.07-.07-1.64-1.95h-.2v1.95c0,.07,0,.1-.09.1h-.27a.09.09,0,0,1-.1-.1V45.38a.09.09,0,0,1,.1-.1H165c.06,0,.09,0,.09.1v2h.2l1.51-2a.2.2,0,0,1,.16-.09h.3c.08,0,.1,0,0,.1l-1.63,2.09Z"/><path class="cls-1" d="M168.66,49.73c-.06,0-.08,0-.08-.1V45.38c0-.07,0-.1.09-.1h2.22a.09.09,0,0,1,.1.1v.2a.09.09,0,0,1-.1.1H169V47.2h1.74a.09.09,0,0,1,.1.1v.19a.09.09,0,0,1-.1.1H169v1.74H171c.07,0,.1,0,.1.09v.21a.09.09,0,0,1-.1.1Z"/><path class="cls-1" d="M172.78,47.92v1.71c0,.07,0,.1-.09.1h-.27c-.06,0-.09,0-.09-.1V45.38c0-.07,0-.1.09-.1h1.29a2.58,2.58,0,0,1,.68.08,1.21,1.21,0,0,1,.44.2.73.73,0,0,1,.23.3,1,1,0,0,1,.07.37V47a.9.9,0,0,1-.18.55,1,1,0,0,1-.63.34l.85,1.77a.06.06,0,0,1,0,.07.12.12,0,0,1-.08,0h-.27a.09.09,0,0,1-.07,0,.22.22,0,0,1,0-.07l-.81-1.71h-1.09Zm0-2.24v1.83h.92a1.21,1.21,0,0,0,.74-.17.55.55,0,0,0,.22-.46v-.58a.55.55,0,0,0-.22-.45,1.21,1.21,0,0,0-.74-.17Z"/><path class="cls-1" d="M71.6,19.71v4.55H63.92V19.71Z"/><path class="cls-1" d="M117.39,16.12a9.48,9.48,0,0,1,6.85,2.49,8.66,8.66,0,0,1,2.61,6.53,8.89,8.89,0,0,1-2.61,6.64,9.36,9.36,0,0,1-6.85,2.54,9.55,9.55,0,0,1-6.9-2.54,8.78,8.78,0,0,1-2.62-6.64,8.65,8.65,0,0,1,2.59-6.53A9.7,9.7,0,0,1,117.39,16.12Zm4.63,9a4.59,4.59,0,0,0-1.27-3.39,4.52,4.52,0,0,0-3.36-1.28A4.62,4.62,0,0,0,114,21.75a4.55,4.55,0,0,0-1.29,3.39,4.78,4.78,0,0,0,1.3,3.49A4.51,4.51,0,0,0,117.39,30a4.42,4.42,0,0,0,3.35-1.34A4.85,4.85,0,0,0,122,25.14Z"/><polygon class="cls-1" points="100.48 34.05 105.37 34.05 105.37 9.27 100.48 9.58 100.48 34.05"/><polygon class="cls-1" points="170.28 34.05 175.17 34.05 175.17 9.27 170.28 9.58 170.28 34.05"/><path class="cls-1" d="M138.53,16.56h-4.36V9.27l-4.89.31V34.32h9.92A7.68,7.68,0,0,0,145,32a9.16,9.16,0,0,0,2.28-6.6A9,9,0,0,0,145,18.88Q142.77,16.56,138.53,16.56Zm2.9,12.49a4.22,4.22,0,0,1-3.37,1.32h-3.88V20.62h3.89c.07,0,0,0,0,0,3,.09,4.51,1.65,4.51,4.72A5.47,5.47,0,0,1,141.43,29.05Z"/><path class="cls-1" d="M158.2,16.56c-2.6,0-4.63.65-6.11,2.23a9.4,9.4,0,0,0-2.31,6.49A9.33,9.33,0,0,0,152,31.85a7.56,7.56,0,0,0,5.83,2.47,8.05,8.05,0,0,0,4.9-1.62l.09,1.35h5V16.56ZM155.68,29a5.17,5.17,0,0,1-1.13-3.48q0-5,4.43-5h3.95v8.11a6.71,6.71,0,0,1-4.26,1.65A3.72,3.72,0,0,1,155.68,29Z"/><path class="cls-1" d="M48.65,19.71v4.55h8.12v4.24a27.08,27.08,0,0,1-6.4.91,7.24,7.24,0,0,1-5.44-2.12,7.81,7.81,0,0,1-2.08-5.6,7,7,0,0,1,2.32-5.47,9,9,0,0,1,6.18-2.08,39.64,39.64,0,0,1,5.21.59v-5a33.15,33.15,0,0,0-5.63-.49q-6.09,0-9.74,3.41a11.84,11.84,0,0,0-3.65,9A12.32,12.32,0,0,0,41,30.85a12.73,12.73,0,0,0,9.28,3.46,29.92,29.92,0,0,0,11.1-2.62v-12Z"/><path class="cls-1" d="M85.21,19.71v4.55h8.11v4.24a27.08,27.08,0,0,1-6.4.91,7.23,7.23,0,0,1-5.43-2.12,7.8,7.8,0,0,1-2.08-5.6,7,7,0,0,1,2.32-5.47,9,9,0,0,1,6.18-2.08,39.65,39.65,0,0,1,5.21.59v-5a33.16,33.16,0,0,0-5.63-.49q-6.09,0-9.74,3.41a11.84,11.84,0,0,0-3.66,9,12.31,12.31,0,0,0,3.52,9.16,12.73,12.73,0,0,0,9.28,3.46A29.89,29.89,0,0,0,98,31.7v-12Z"/><path class="cls-1" d="M17.83,20.26,7.75,10.18a2.18,2.18,0,0,0-3.08,0L3.86,11a2.18,2.18,0,0,0,0,3.08l6.2,6.2a2.18,2.18,0,0,1,0,3.08l-6.2,6.2a2.18,2.18,0,0,0,0,3.08l.81.81a2.19,2.19,0,0,0,3.08,0L17.83,23.33A2.18,2.18,0,0,0,17.83,20.26Z"/><circle class="cls-1" cx="3.07" cy="21.8" r="3.07" transform="translate(-14.77 8.91) rotate(-46.15)"/><path class="cls-1" d="M33.42,4.66l-.81-.81a2.18,2.18,0,0,0-3.08,0L21.8,11.59v7.77h0L33.42,7.74A2.19,2.19,0,0,0,33.42,4.66Z"/><path class="cls-1" d="M14.06,3.86a2.18,2.18,0,0,0-3.08,0l-.81.81a2.19,2.19,0,0,0,0,3.08L21.8,19.36V11.59Z"/><path class="cls-1" d="M10.18,35.85a2.19,2.19,0,0,0,0,3.08l.81.81a2.19,2.19,0,0,0,3.08,0L21.8,32V24.23Z"/><path class="cls-1" d="M21.8,24.23V32l7.74,7.74a2.19,2.19,0,0,0,3.08,0l.81-.81a2.19,2.19,0,0,0,0-3.08Z"/><path class="cls-1" d="M21.8,3V0a3.06,3.06,0,1,0,0,6.13V3Z"/><path class="cls-1" d="M23.93.85A3,3,0,0,0,21.8,0V6.13A3.06,3.06,0,0,0,23.93.85Z"/><path class="cls-1" d="M21.8,40.47v-3a3.06,3.06,0,1,0,0,6.13V40.47Z"/><path class="cls-1" d="M23.93,38.31a3.05,3.05,0,0,0-2.13-.85v6.13a3.07,3.07,0,0,0,2.13-5.28Z"/></g></g></svg>