<?xml version="1.0" standalone="no"?>
<!DOCTYPE svg PUBLIC "-//W3C//DTD SVG 1.1//EN" "http://www.w3.org/Graphics/SVG/1.1/DTD/svg11.dtd" >
<svg>
<metadata>
Created by FontForge 20120731 at Sun May 29 18:00:54 2016
 By www
Copyright (c) 2013 by Rene' Bieder. All rights reserved.
</metadata>
<defs>
<font id="CanaroW00-SemiBold" horiz-adv-x="600" >
  <font-face 
    font-family="CanaroW00-SemiBold"
    font-weight="600"
    font-stretch="normal"
    units-per-em="1000"
    panose-1="1 0 0 0 0 0 0 0 0 0"
    ascent="800"
    descent="-200"
    x-height="479"
    cap-height="680"
    bbox="-58 -272 1443 952"
    underline-thickness="50"
    underline-position="-125"
    unicode-range="U+0020-FB02"
  />
<missing-glyph horiz-adv-x="870" 
d="M770 0h-670v680h670v-680zM219 610l481 -481v481h-481zM647 70l-477 477v-477h477z" />
    <glyph glyph-name=".notdef" horiz-adv-x="870" 
d="M770 0h-670v680h670v-680zM219 610l481 -481v481h-481zM647 70l-477 477v-477h477z" />
    <glyph glyph-name=".null" horiz-adv-x="0" 
 />
    <glyph glyph-name="nonmarkingreturn" horiz-adv-x="333" 
 />
    <glyph glyph-name="space" unicode=" " horiz-adv-x="229" 
 />
    <glyph glyph-name="exclam" unicode="!" horiz-adv-x="260" 
d="M197 202h-136l-10 478h156zM131 -19q-36 0 -62 24.5t-26 61.5t26 61.5t62 24.5q37 0 63 -24.5t26 -61.5t-26 -61.5t-63 -24.5z" />
    <glyph glyph-name="quotedbl" unicode="&#x22;" horiz-adv-x="420" 
d="M182 511h-122v257h149zM355 511h-122v257h149z" />
    <glyph glyph-name="numbersign" unicode="#" horiz-adv-x="776" 
d="M692 282v-123h-149l-50 -159h-141l50 159h-138l-50 -159h-141l50 159h-94v123h132l31 98h-108v123h146l56 178h141l-56 -178h138l56 178h141l-56 -178h97v-123h-135l-31 -98h111zM302 282h138l31 98h-138z" />
    <glyph glyph-name="dollar" unicode="$" horiz-adv-x="678" 
d="M621 202q0 -96 -58.5 -148t-155.5 -65v-104h-121v102q-53 5 -113 18t-121 38l34 133q78 -32 144.5 -44.5t114.5 -13.5q59 0 93.5 16.5t34.5 54.5q0 25 -15.5 40t-41.5 25t-59.5 16.5t-68.5 13.5q-56 12 -97 27.5t-68 38.5t-40 55t-13 76q0 42 15 77.5t43.5 62t68 43
t89.5 22.5v113h121v-114q57 -5 109 -16.5t87 -25.5l-35 -128q-66 20 -128 32.5t-107 12.5q-51 0 -80 -17.5t-29 -55.5q0 -20 11.5 -33t32.5 -22t52 -16t70 -15q55 -11 98 -26t72.5 -37.5t45 -55.5t15.5 -80z" />
    <glyph glyph-name="percent" unicode="%" horiz-adv-x="1087" 
d="M277 695q42 0 78.5 -14t63 -40t41.5 -62t15 -80q0 -45 -15 -81.5t-41.5 -62.5t-63 -40t-78.5 -14q-43 0 -79.5 14t-63.5 40t-42 62.5t-15 81.5q0 44 15 80t42 62t63.5 40t79.5 14zM268 0l465 680h74l-466 -680h-73zM276 397q41 0 69.5 27.5t28.5 74.5q0 45 -28.5 72.5
t-69.5 27.5t-69.5 -27.5t-28.5 -72.5q0 -47 28.5 -74.5t69.5 -27.5zM811 379q43 0 79.5 -14t63 -39.5t41.5 -62t15 -80.5q0 -45 -15 -81.5t-41.5 -62.5t-63 -40t-79.5 -14q-42 0 -78.5 14t-63.5 40t-42 62.5t-15 81.5q0 44 15 80.5t42 62t63.5 39.5t78.5 14zM811 81
q42 0 70.5 27.5t28.5 74.5q0 45 -28.5 72.5t-70.5 27.5q-40 0 -68.5 -27.5t-28.5 -72.5q0 -47 28.5 -74.5t68.5 -27.5z" />
    <glyph glyph-name="ampersand" unicode="&#x26;" horiz-adv-x="647" 
d="M559 209q0 -51 -19 -92t-54 -70.5t-83.5 -45.5t-108.5 -16q-59 0 -108 15.5t-83.5 43t-53.5 67t-19 87.5q0 112 110 156q-71 40 -71 139q0 45 18 82.5t51 64t79 41t102 14.5q36 0 72 -5t74 -16l-27 -117q-34 9 -64.5 13t-58.5 4q-51 0 -82 -22t-31 -57q0 -21 4 -37
t14.5 -27t28.5 -16.5t47 -5.5h331v-115h-68v-85zM296 294q-68 0 -100 -25t-32 -65q0 -44 35.5 -71t94.5 -27q60 0 95.5 28.5t35.5 74.5v85h-129z" />
    <glyph glyph-name="quotesingle" unicode="'" horiz-adv-x="247" 
d="M181 511h-121v257h148z" />
    <glyph glyph-name="parenleft" unicode="(" horiz-adv-x="364" 
d="M334 716q-31 -48 -60 -96.5t-51 -102.5t-35 -116.5t-13 -138.5q0 -77 13 -139.5t35 -116.5t51 -103t60 -97l-102 -65q-91 112 -140.5 244.5t-49.5 276.5q0 143 49.5 276t140.5 242z" />
    <glyph glyph-name="parenright" unicode=")" horiz-adv-x="360" 
d="M129 780q90 -109 140 -242t50 -276q0 -144 -50 -276.5t-140 -244.5l-103 65q31 48 60 97t51 103t35 116.5t13 139.5q0 76 -13 138.5t-35 116.5t-51 102.5t-60 96.5z" />
    <glyph glyph-name="asterisk" unicode="*" horiz-adv-x="393" 
d="M326 402l-91 55v-97h-77v97l-90 -55l-38 65l93 57l-93 57l38 67l90 -56v96h77v-96l91 56l37 -67l-93 -57l93 -57z" />
    <glyph glyph-name="plus" unicode="+" horiz-adv-x="679" 
d="M403 92h-127v178h-177v123h177v179h127v-179h177v-123h-177v-178z" />
    <glyph glyph-name="comma" unicode="," horiz-adv-x="315" 
d="M118 -3q-30 12 -44 33t-14 47q0 19 7.5 36t21 30t31.5 20t38 7t38 -7t31.5 -20t21 -30t7.5 -36q0 -14 -3 -26t-13 -32.5t-29.5 -55t-53.5 -92.5h-98z" />
    <glyph glyph-name="hyphen" unicode="-" horiz-adv-x="520" 
d="M421 191h-322v137h322v-137z" />
    <glyph glyph-name="period" unicode="." horiz-adv-x="314" 
d="M157 -19q-41 0 -69.5 27t-28.5 68q0 40 28.5 67t69.5 27t69.5 -27t28.5 -67q0 -41 -28.5 -68t-69.5 -27z" />
    <glyph glyph-name="slash" unicode="/" horiz-adv-x="518" 
d="M0 -272l387 1040h120l-386 -1040h-121z" />
    <glyph glyph-name="zero" unicode="0" horiz-adv-x="746" 
d="M374 695q72 0 131.5 -25.5t102 -72t65.5 -112t23 -145.5t-23 -145.5t-65.5 -112t-102 -72t-131.5 -25.5q-73 0 -132.5 25.5t-102 72t-65.5 112t-23 145.5t23 145.5t65.5 112t102 72t132.5 25.5zM374 119q39 0 71.5 16t55.5 45t35.5 69.5t12.5 90.5t-12.5 91t-35.5 70
t-55.5 45t-71.5 16q-40 0 -72.5 -16t-56 -45t-36 -70t-12.5 -91t12.5 -90.5t36 -69.5t56 -45t72.5 -16z" />
    <glyph glyph-name="one" unicode="1" horiz-adv-x="434" 
d="M204 0v519l-163 -40l-31 116l294 85h42v-680h-142z" />
    <glyph glyph-name="two" unicode="2" horiz-adv-x="585" 
d="M58 0v95l234 226q19 18 36 34.5t29.5 33t19.5 34t7 37.5q0 54 -34.5 78.5t-89.5 24.5q-28 0 -70.5 -7.5t-104.5 -28.5l-32 122q51 20 111.5 33t120.5 13q64 0 110.5 -18t77 -47.5t45 -68t14.5 -80.5q0 -38 -13 -72.5t-35.5 -67t-53 -64t-65.5 -63.5l-103 -85h279v-129
h-483z" />
    <glyph glyph-name="three" unicode="3" 
d="M355 395h6q90 -10 142.5 -60.5t52.5 -125.5q0 -103 -67 -163.5t-205 -60.5q-60 0 -122 12.5t-122 43.5l48 112q50 -23 101.5 -35t98.5 -12q57 0 91 27t34 72q0 34 -33.5 55t-89.5 21h-130v66l176 205h-271v128h463v-84z" />
    <glyph glyph-name="four" unicode="4" horiz-adv-x="666" 
d="M639 233v-120h-77v-113h-139v113h-385v98l385 469h139v-447h77zM423 233v267l-208 -267h208z" />
    <glyph glyph-name="five" unicode="5" horiz-adv-x="615" 
d="M315 425q57 -3 103 -18.5t78.5 -42t50.5 -64t18 -85.5q0 -50 -18.5 -92t-52.5 -73t-82.5 -48t-108.5 -17q-74 0 -133.5 12.5t-120.5 44.5l45 122q53 -23 101 -36.5t103 -13.5q56 0 89 27.5t33 70.5q0 38 -35 62t-92 26l-194 9l31 371h409v-133h-287l-10 -118z" />
    <glyph glyph-name="six" unicode="6" horiz-adv-x="634" 
d="M328 487q59 -2 108.5 -19.5t85 -49t55 -76t19.5 -100.5q0 -58 -20.5 -105.5t-57.5 -81t-88.5 -52t-112.5 -18.5q-62 0 -113.5 18.5t-88 52t-57 81t-20.5 105.5q0 45 17.5 83.5t47.5 80.5l1 2l199 272h168zM317 105q63 0 102.5 37t39.5 100q0 60 -39.5 97t-102.5 37
q-65 0 -104 -37t-39 -97q0 -63 40 -100t103 -37z" />
    <glyph glyph-name="seven" unicode="7" horiz-adv-x="566" 
d="M282 0h-154l242 547h-332v133h501v-85z" />
    <glyph glyph-name="eight" unicode="8" horiz-adv-x="628" 
d="M470 352q62 -26 91 -67.5t29 -97.5q0 -44 -20 -81t-56 -64t-87 -42t-113 -15t-113 15t-87 42t-55.5 64t-19.5 81q0 56 28.5 97.5t90.5 67.5q-49 23 -70.5 61t-21.5 89q0 44 18 79.5t51 61t78.5 39t100.5 13.5t100.5 -13.5t78.5 -39t51 -61t18 -79.5q0 -51 -21.5 -89
t-70.5 -61zM211 494q0 -40 28 -64.5t75 -24.5t75.5 24.5t28.5 64.5q0 38 -28.5 62.5t-75.5 24.5t-75 -24.5t-28 -62.5zM314 105q28 0 51 7.5t39.5 20.5t25.5 29.5t9 34.5q0 42 -34 68t-91 26t-91 -26t-34 -68q0 -18 9 -34.5t25.5 -29.5t39.5 -20.5t51 -7.5z" />
    <glyph glyph-name="nine" unicode="9" horiz-adv-x="644" 
d="M317 695q62 0 113.5 -18.5t88 -52.5t57 -81t20.5 -105q0 -43 -15.5 -80t-36.5 -68l-200 -290h-162l134 193q-62 0 -113 17t-87.5 48.5t-57 77t-20.5 102.5q0 58 20.5 105t57.5 81t88 52.5t113 18.5zM175 438q0 -60 39.5 -97t102.5 -37q66 0 104.5 37t38.5 97
q0 63 -40 100t-103 37t-102.5 -37t-39.5 -100z" />
    <glyph glyph-name="colon" unicode=":" horiz-adv-x="314" 
d="M157 306q-41 0 -69.5 27t-28.5 68q0 40 28.5 67t69.5 27t69.5 -27t28.5 -67q0 -41 -28.5 -68t-69.5 -27zM157 -19q-41 0 -69.5 27t-28.5 68q0 40 28.5 67t69.5 27t69.5 -27t28.5 -67q0 -41 -28.5 -68t-69.5 -27z" />
    <glyph glyph-name="semicolon" unicode=";" horiz-adv-x="323" 
d="M166 306q-41 0 -69.5 27t-28.5 68q0 40 28.5 67t69.5 27t69.5 -27t28.5 -67q0 -41 -28.5 -68t-69.5 -27zM118 -3q-30 12 -44 33t-14 47q0 19 7.5 36t21 30t31 20t37.5 7q21 0 39 -7t31.5 -20t21 -30t7.5 -36q0 -14 -3 -26t-13 -32.5t-30 -55t-53 -92.5h-98z" />
    <glyph glyph-name="less" unicode="&#x3c;" horiz-adv-x="539" 
d="M470 428l-272 -122l272 -123v-135l-422 190v135l422 190v-135z" />
    <glyph glyph-name="equal" unicode="=" horiz-adv-x="680" 
d="M99 362v123h482v-123h-482zM99 160v123h482v-123h-482z" />
    <glyph glyph-name="greater" unicode="&#x3e;" horiz-adv-x="539" 
d="M68 48v135l272 123l-272 122v135l422 -190v-135z" />
    <glyph glyph-name="question" unicode="?" horiz-adv-x="504" 
d="M237 695q55 0 100 -15.5t77 -43t49.5 -67t17.5 -87.5q0 -45 -16 -84t-44 -67.5t-67.5 -44.5t-85.5 -16h-10l3 -69h-128l-20 180h120q52 0 83 28t31 76q0 40 -29 64.5t-78 24.5q-43 0 -85 -4.5t-91 -12.5l-20 115q48 11 94.5 17t98.5 6zM199 153q37 0 63 -24.5t26 -61.5
t-26 -61.5t-63 -24.5t-63 24.5t-26 61.5t26 61.5t63 24.5z" />
    <glyph glyph-name="at" unicode="@" horiz-adv-x="1022" 
d="M512 690q103 0 188 -32t145.5 -90.5t93.5 -141t33 -183.5q0 -63 -18 -109.5t-49 -77t-72.5 -45.5t-89.5 -15q-50 0 -82 14t-48 47q-32 -28 -69 -44.5t-86 -16.5q-47 0 -87.5 17.5t-69.5 49.5t-45.5 77.5t-16.5 101.5q1 53 16.5 97t44.5 75.5t71 48.5t96 17q53 0 92 -2.5
t69 -6.5t53 -7.5t44 -5.5v-302q0 -39 8.5 -56t34.5 -17q25 0 49.5 6.5t44 24t31.5 48.5t12 81q0 86 -28.5 156.5t-80 121t-124 78t-160.5 27.5q-84 0 -155.5 -29t-124.5 -80.5t-83 -121.5t-30 -152t26.5 -152t75 -121t117 -80.5t151.5 -30.5q67 0 130.5 10.5t140.5 27.5
l12 -60q-75 -19 -142 -30.5t-141 -11.5q-99 0 -179.5 34t-137.5 94t-88.5 142t-31.5 178t35 178t96.5 141.5t146 93.5t182.5 34zM488 370q-33 0 -56.5 -10t-37.5 -28t-20.5 -42.5t-6.5 -53.5q0 -57 30.5 -93.5t80.5 -36.5q29 0 58.5 10t58.5 35v29v185q-23 3 -49 4t-58 1z
" />
    <glyph glyph-name="A" unicode="A" horiz-adv-x="787" 
d="M180 0h-162l309 684h134l307 -684h-160l-55 125h-320zM287 253h212l-106 247z" />
    <glyph glyph-name="B" unicode="B" horiz-adv-x="678" 
d="M482 345q71 -14 112.5 -56.5t41.5 -101.5q0 -95 -69 -145.5t-190 -50.5q-32 0 -73 1t-82.5 2t-80 2.5t-64.5 3.5v680q26 1 61 1.5t73.5 1.5t77.5 1.5t73 0.5q118 0 181 -46.5t63 -134.5q0 -58 -33.5 -100.5t-90.5 -58.5zM345 561q-29 0 -60.5 -0.5t-63.5 -0.5v-164h141
q49 0 78.5 23.5t29.5 62.5q0 42 -30.5 60.5t-94.5 18.5zM359 116q66 0 100.5 20.5t34.5 65.5q0 38 -30.5 57.5t-81.5 19.5h-161v-159q38 -2 74.5 -3t63.5 -1z" />
    <glyph glyph-name="C" unicode="C" horiz-adv-x="719" 
d="M644 529q-62 13 -109 20t-87 7q-60 0 -106 -16.5t-76.5 -45t-46 -67.5t-15.5 -85q0 -50 16.5 -91t47.5 -70t73.5 -45t95.5 -16q38 0 93 8.5t114 20.5l25 -127q-57 -17 -119.5 -27t-120.5 -10q-85 0 -155 25.5t-119.5 72t-76.5 112.5t-27 146q0 79 27 144.5t76.5 112
t119 72t154.5 25.5q64 0 124 -8.5t117 -22.5z" />
    <glyph glyph-name="D" unicode="D" horiz-adv-x="737" 
d="M322 689q80 0 147 -25t115 -70t75 -109t27 -142q0 -80 -26.5 -144.5t-73 -111t-109 -71.5t-135.5 -25q-37 0 -75.5 1t-73.5 2t-65.5 2.5t-50.5 3.5v680q20 1 48.5 2.5t61 3t67.5 2.5t68 1zM343 123q39 0 74 15.5t61.5 44.5t41.5 69.5t15 90.5q0 48 -15.5 87.5t-43.5 67.5
t-67 43.5t-85 15.5q-51 0 -103 -3v-428q30 -2 61.5 -2.5t60.5 -0.5z" />
    <glyph glyph-name="E" unicode="E" horiz-adv-x="631" 
d="M537 405v-130h-316v-144h359v-131h-503v680h503v-131h-359v-144h316z" />
    <glyph glyph-name="F" unicode="F" horiz-adv-x="594" 
d="M523 376v-132h-302v-244h-144v680h489v-132h-345v-172h302z" />
    <glyph glyph-name="G" unicode="G" horiz-adv-x="794" 
d="M731 59q-86 -35 -164.5 -54.5t-151.5 -19.5q-82 0 -149 25.5t-115 72.5t-74 113t-26 147q0 79 27.5 144t77.5 111t120 71.5t156 25.5q52 0 113.5 -7t124.5 -23l-27 -133q-73 12 -121.5 18.5t-77.5 6.5q-54 0 -99 -15.5t-76.5 -43.5t-49 -67.5t-17.5 -87.5
q0 -49 15.5 -89.5t43.5 -69t67.5 -44.5t87.5 -16q42 0 91 7.5t91 18.5v120h-231v129h364v-340z" />
    <glyph glyph-name="H" unicode="H" horiz-adv-x="759" 
d="M539 0v266h-318v-266h-144v680h144v-282h318v282h144v-680h-144z" />
    <glyph glyph-name="I" unicode="I" horiz-adv-x="297" 
d="M220 0h-144v680h144v-680z" />
    <glyph glyph-name="J" unicode="J" horiz-adv-x="561" 
d="M495 270q0 -67 -18 -120t-50.5 -89.5t-78.5 -56t-103 -19.5q-32 0 -59 2t-54 7t-56 12.5t-65 18.5l26 128q37 -9 65 -14.5t51.5 -8.5t44.5 -4.5t45 -1.5q45 0 75 37.5t30 106.5v412h147v-410z" />
    <glyph glyph-name="K" unicode="K" horiz-adv-x="713" 
d="M221 0h-144v680h144v-299h44l242 299h177l-257 -317l267 -363h-177l-178 240h-118v-240z" />
    <glyph glyph-name="L" unicode="L" horiz-adv-x="598" 
d="M77 0v680h144v-551h346v-129h-490z" />
    <glyph glyph-name="M" unicode="M" horiz-adv-x="931" 
d="M526 0h-120l-175 363l-24 -363h-140l38 680h133l228 -502l227 502h134l38 -680h-141l-24 363z" />
    <glyph glyph-name="N" unicode="N" horiz-adv-x="777" 
d="M701 0h-136l-344 434v-434h-144v680h132l347 -438v438h145v-680z" />
    <glyph glyph-name="O" unicode="O" horiz-adv-x="830" 
d="M415 695q80 0 147 -25.5t115 -72t75 -112t27 -145.5t-27 -145.5t-75 -112t-115 -72t-147 -25.5t-147 25.5t-115 72t-75 112t-27 145.5t27 145.5t75 112t115 72t147 25.5zM415 120q46 0 85 16t67.5 44.5t44.5 69t16 90.5q0 49 -16 89.5t-44.5 69.5t-67.5 44.5t-85 15.5
t-85 -15.5t-67.5 -44.5t-44.5 -69.5t-16 -89.5q0 -50 16 -90.5t44.5 -69t67.5 -44.5t85 -16z" />
    <glyph glyph-name="P" unicode="P" horiz-adv-x="646" 
d="M328 689q64 0 116.5 -16.5t90.5 -48t59 -76.5t21 -101t-21 -101.5t-59 -78t-90.5 -50t-116.5 -17.5h-107v-200h-144v680q50 3 115.5 6t135.5 3zM341 329q57 0 95 31.5t38 85.5t-38 82.5t-95 28.5h-61t-59 -2v-226h120z" />
    <glyph glyph-name="Q" unicode="Q" horiz-adv-x="830" 
d="M780 340q0 -112 -51 -194t-139 -124l161 -187h-179l-133 151l-24 -1q-80 0 -146.5 25.5t-115 72t-75.5 112t-27 145.5t27 145.5t75.5 112t115 72t146.5 25.5t147 -25.5t115.5 -72t75.5 -112t27 -145.5zM202 340q0 -50 16 -90.5t44.5 -69t67.5 -44.5t85 -16t85.5 16
t68 44.5t44.5 69t16 90.5q0 49 -16 89.5t-44.5 69.5t-68 44.5t-85.5 15.5t-85 -15.5t-67.5 -44.5t-44.5 -69.5t-16 -89.5z" />
    <glyph glyph-name="R" unicode="R" horiz-adv-x="676" 
d="M301 208h-80v-208h-144v680q20 1 50.5 2t66.5 2t73.5 1.5t71.5 0.5q63 0 114 -15.5t87.5 -45.5t56.5 -74t20 -102q0 -69 -34 -121.5t-94 -84.5l172 -243h-174l-140 208h-46zM351 334q27 0 49.5 8.5t39 23.5t26 36t9.5 47q0 57 -36.5 82.5t-97.5 25.5h-58.5t-61.5 -1v-222
h130z" />
    <glyph glyph-name="S" unicode="S" horiz-adv-x="678" 
d="M568 515q-66 20 -128 32.5t-107 12.5q-51 0 -80 -17.5t-29 -55.5q0 -20 11.5 -33t32.5 -22t52 -16t70 -15q55 -11 98 -26t72.5 -37.5t45 -55.5t15.5 -80q0 -56 -20.5 -96.5t-57.5 -67.5t-88.5 -40t-112.5 -13q-60 0 -136 13t-154 45l34 133q78 -32 144.5 -44.5
t114.5 -13.5q59 0 93.5 16.5t34.5 54.5q0 25 -15.5 40t-41.5 25t-59.5 16.5t-68.5 13.5q-56 12 -97 27.5t-68 38.5t-40 55t-13 76q0 48 19 86.5t53.5 65.5t84 41.5t109.5 14.5q37 0 74.5 -4t72.5 -10.5t66 -14.5t54 -17z" />
    <glyph glyph-name="T" unicode="T" horiz-adv-x="677" 
d="M411 0h-144v548h-238v132h620v-132h-238v-548z" />
    <glyph glyph-name="U" unicode="U" horiz-adv-x="757" 
d="M690 299q0 -74 -22.5 -132t-63 -98.5t-98.5 -62t-128 -21.5q-71 0 -128 21.5t-98 62t-63 98.5t-22 132v381h144v-381q0 -85 45.5 -132t121.5 -47q75 0 121 47t46 132v381h145v-381z" />
    <glyph glyph-name="V" unicode="V" horiz-adv-x="766" 
d="M314 0l-291 680h166l193 -486l197 486h164l-290 -680h-139z" />
    <glyph glyph-name="W" unicode="W" horiz-adv-x="1062" 
d="M684 0l-153 435l-153 -435h-138l-221 680h152l143 -457l156 457h122l156 -457l143 457h153l-222 -680h-138z" />
    <glyph glyph-name="X" unicode="X" horiz-adv-x="752" 
d="M732 0h-171l-185 226l-185 -226h-171l256 336l-250 344h178l172 -227l171 227h179l-251 -344z" />
    <glyph glyph-name="Y" unicode="Y" horiz-adv-x="741" 
d="M19 680h162l189 -306l189 306h163l-278 -458v-222h-146v222z" />
    <glyph glyph-name="Z" unicode="Z" horiz-adv-x="672" 
d="M260 132h362v-132h-574v90l365 458h-349v132h552v-90z" />
    <glyph glyph-name="bracketleft" unicode="[" horiz-adv-x="366" 
d="M337 -110v-133h-285v1006h285v-133h-146v-740h146z" />
    <glyph glyph-name="backslash" unicode="\" horiz-adv-x="518" 
d="M499 -272h-143l-318 1040h142z" />
    <glyph glyph-name="bracketright" unicode="]" horiz-adv-x="366" 
d="M29 763h286v-1006h-286v133h147v740h-147v133z" />
    <glyph glyph-name="asciicircum" unicode="^" horiz-adv-x="436" 
d="M146 457h-132l147 223h113l148 -223h-132l-73 107z" />
    <glyph glyph-name="underscore" unicode="_" horiz-adv-x="626" 
d="M597 -90v-121h-568v121h568z" />
    <glyph glyph-name="grave" unicode="`" 
d="M274 560l-122 151h182l75 -151h-135z" />
    <glyph glyph-name="a" unicode="a" horiz-adv-x="618" 
d="M278 494q38 0 69.5 -1.5t62 -4.5t64.5 -7t77 -10v-471h-139v34q-29 -23 -64.5 -36t-79.5 -13q-50 0 -92 18t-73 51.5t-48 81t-17 106.5q1 57 17.5 103.5t47 79.5t74.5 51t101 18zM300 379q-35 0 -59 -11t-39 -29.5t-21.5 -44.5t-6.5 -56q0 -60 31.5 -98.5t85.5 -38.5
q30 0 60 10.5t61 36.5v225q-24 2 -51.5 4t-60.5 2z" />
    <glyph glyph-name="b" unicode="b" horiz-adv-x="620" 
d="M209 483q25 5 60 8t64 3q63 0 109.5 -18t77.5 -51t46.5 -79t15.5 -102q0 -63 -18 -110.5t-49 -79.5t-73 -48.5t-90 -16.5h-53t-58 1.5t-73 5.5t-98 11v703h139v-227zM313 379q-20 0 -49 -3t-55 -8v-259q44 -5 71.5 -6.5t39.5 -1.5q66 0 97 39t31 104q0 29 -7 53.5
t-22.5 42.5t-41.5 28.5t-64 10.5z" />
    <glyph glyph-name="c" unicode="c" horiz-adv-x="516" 
d="M462 363q-42 9 -75.5 14.5t-59.5 5.5q-72 0 -112 -39t-40 -102t40 -100.5t104 -37.5q25 0 63.5 5.5t80.5 15.5l18 -110q-41 -14 -86 -22t-86 -8q-59 0 -109 18t-86 52t-56 81.5t-20 106.5t20 106.5t56.5 80.5t87 51t112.5 18q35 0 80.5 -6.5t86.5 -20.5z" />
    <glyph glyph-name="d" unicode="d" horiz-adv-x="620" 
d="M550 7q-57 -7 -98 -11t-73 -5.5t-58 -1.5h-53q-48 0 -90 16.5t-73 48.5t-49 79.5t-18 110.5q0 56 16 102t47 79t77.5 51t109.5 18q28 0 63 -3t60 -8v227h139v-703zM307 379q-38 0 -64 -10.5t-41.5 -28.5t-22 -42.5t-6.5 -53.5q0 -65 30.5 -104t96.5 -39q12 0 40 1.5
t71 6.5v259q-26 5 -55 8t-49 3z" />
    <glyph glyph-name="e" unicode="e" horiz-adv-x="566" 
d="M291 495q51 0 94 -15t74.5 -42.5t49.5 -66t19 -85.5q0 -17 -0.5 -28.5t-1.5 -21.5t-2.5 -21t-4.5 -26h-335q14 -38 48 -60.5t88 -22.5q29 0 69 6t101 19l19 -109q-57 -18 -104 -27.5t-89 -9.5q-69 0 -121 19.5t-87 54t-52.5 81t-17.5 100.5q0 58 19.5 105t53 80.5
t80 51.5t100.5 18zM294 387q-47 0 -76.5 -27t-39.5 -72h226q-2 45 -32.5 72t-77.5 27z" />
    <glyph glyph-name="f" unicode="f" horiz-adv-x="425" 
d="M257 355v-355h-139v355h-109v124h109v63q0 51 15 90t42 66t64.5 41t82.5 14q23 0 43.5 -2.5t39.5 -7.5l-19 -116q-13 2 -25.5 2.5t-27.5 0.5q-35 0 -55.5 -22.5t-20.5 -70.5v-58h164v-124h-164z" />
    <glyph glyph-name="g" unicode="g" horiz-adv-x="614" 
d="M278 494q55 0 96.5 -3t73 -6.5t56 -7.5t47.5 -6v-462q0 -58 -17.5 -106.5t-52.5 -84t-87.5 -55t-122.5 -19.5q-38 0 -83.5 9t-87.5 20l22 112q42 -7 79 -13t66 -6q69 0 105.5 34.5t39.5 99.5q-22 -2 -40.5 -3.5t-35.5 -2t-33 -0.5h-34q-50 0 -92.5 18t-73.5 50.5t-48 78
t-17 101.5q0 57 16 103.5t47 79.5t75.5 51t101.5 18zM300 379q-35 0 -59 -11t-39 -29.5t-21.5 -44.5t-6.5 -56q0 -27 8.5 -50t23.5 -40.5t36.5 -27.5t48.5 -10q23 0 50.5 0.5t70.5 7.5v255q-24 2 -51.5 4t-60.5 2z" />
    <glyph glyph-name="h" unicode="h" horiz-adv-x="621" 
d="M357 494q45 0 82 -13t63.5 -37t41 -58t14.5 -76v-310h-139v269q0 46 -26.5 72.5t-68.5 26.5q-26 0 -54.5 -3.5t-59.5 -8.5v-356h-138v710h138v-228q38 5 76 8.5t71 3.5z" />
    <glyph glyph-name="i" unicode="i" horiz-adv-x="268" 
d="M134 545q-38 0 -63.5 24.5t-25.5 62.5t25.5 63.5t63.5 25.5q18 0 34.5 -6.5t28.5 -18.5t19 -28.5t7 -35.5q0 -38 -26 -62.5t-63 -24.5zM204 0h-139v479h139v-479z" />
    <glyph glyph-name="j" unicode="j" horiz-adv-x="265" 
d="M123 721q18 0 34.5 -6.5t29 -18.5t19.5 -28.5t7 -35.5q0 -38 -26.5 -62.5t-63.5 -24.5t-63.5 24.5t-26.5 62.5q0 19 7 35.5t19.5 28.5t29 18.5t34.5 6.5zM192 -3q0 -58 -9 -103t-34 -76.5t-70.5 -49t-117.5 -18.5l-11 120q34 -1 54.5 5.5t31.5 20.5t14.5 35t3.5 49v499
h138v-482z" />
    <glyph glyph-name="k" unicode="k" horiz-adv-x="590" 
d="M238 307l156 172h166l-181 -200l192 -279h-160l-125 178h-77v-178h-139v710h139v-403h29z" />
    <glyph glyph-name="l" unicode="l" horiz-adv-x="283" 
d="M211 0h-139v710h139v-710z" />
    <glyph glyph-name="m" unicode="m" horiz-adv-x="932" 
d="M663 494q45 0 83 -10t65.5 -32t42.5 -57t15 -85v-310h-139v269q0 52 -25.5 75.5t-74.5 23.5q-24 0 -48.5 -2.5t-47.5 -7.5q2 -13 3.5 -26t1.5 -27v-305h-139v269q0 52 -25 75.5t-74 23.5q-23 0 -46 -1.5t-46 -3.5v-363h-139v469q17 3 47 7.5t66.5 8.5t75.5 6.5t75 2.5
q37 0 69 -7t58 -21q19 6 43.5 11t51.5 8.5t54.5 6t52.5 2.5z" />
    <glyph glyph-name="n" unicode="n" horiz-adv-x="620" 
d="M355 494q45 0 82.5 -13t64 -37t41 -58t14.5 -76v-310h-139v269q0 46 -27 72.5t-69 26.5q-26 0 -54.5 -2t-58.5 -5v-361h-139v471q23 3 57.5 7t73.5 7.5t79 6t75 2.5z" />
    <glyph glyph-name="o" unicode="o" horiz-adv-x="617" 
d="M309 500q60 0 110 -18.5t85 -52.5t54.5 -81t19.5 -105q0 -59 -19.5 -107t-54.5 -82t-85 -53t-110 -19q-61 0 -111 19t-85.5 53t-55 82t-19.5 107q0 58 19.5 105t55 81t85.5 52.5t111 18.5zM309 106q60 0 96 37.5t36 99.5q0 60 -36 96.5t-96 36.5t-96.5 -36.5t-36.5 -96.5
q0 -62 36.5 -99.5t96.5 -37.5z" />
    <glyph glyph-name="p" unicode="p" horiz-adv-x="627" 
d="M343 494q57 0 101.5 -18t74.5 -51t46 -79.5t18 -103.5q0 -56 -17.5 -101.5t-48 -78t-73 -50.5t-92.5 -18q-35 0 -67 0.5t-76 5.5v-231h-139v702q53 7 124.5 15t148.5 8zM330 110q27 0 48.5 10t37 27.5t24 40.5t8.5 50q0 30 -6.5 56t-21.5 44.5t-39.5 29.5t-59.5 11
q-33 0 -60.5 -2t-51.5 -4v-255q44 -7 71 -7.5t50 -0.5z" />
    <glyph glyph-name="q" unicode="q" horiz-adv-x="627" 
d="M284 494q77 0 148.5 -8t123.5 -15v-702h-138v231q-44 -5 -76.5 -5.5t-66.5 -0.5q-50 0 -92.5 18t-73.5 50.5t-48 78t-17 101.5q1 57 17.5 103.5t46.5 79.5t74.5 51t101.5 18zM296 110q23 0 50.5 0.5t71.5 7.5v255q-25 2 -52.5 4t-60.5 2q-35 0 -59 -11t-39 -29.5
t-21.5 -44.5t-6.5 -56q0 -27 8.5 -50t23.5 -40.5t36.5 -27.5t48.5 -10z" />
    <glyph glyph-name="r" unicode="r" horiz-adv-x="408" 
d="M379 358q-44 0 -86 -1t-84 -5v-352h-139v463q33 6 72.5 11.5t80.5 10t81 7t75 2.5v-136z" />
    <glyph glyph-name="s" unicode="s" horiz-adv-x="529" 
d="M75 138q61 -23 110 -32.5t84 -9.5q36 0 59 8.5t23 28.5q0 14 -11.5 23t-29.5 14.5t-41 9t-46 8.5q-83 16 -124 48.5t-41 95.5q0 76 56.5 118t153.5 42q27 0 55 -3t54.5 -8t50 -11.5t41.5 -13.5l-31 -105q-50 14 -96.5 23.5t-78.5 9.5q-33 0 -51 -11t-18 -30q0 -14 9 -22
t25 -13.5t38.5 -9.5t48.5 -9q41 -8 72 -19t52 -27t31.5 -39.5t10.5 -57.5q0 -42 -16 -72t-44.5 -50t-68.5 -29.5t-88 -9.5q-42 0 -99 9t-118 33z" />
    <glyph glyph-name="t" unicode="t" horiz-adv-x="465" 
d="M439 1q-18 -4 -32.5 -7t-30 -5t-33 -3t-41.5 -1q-88 0 -136 50t-48 144v176h-99v124h99v171h139v-171h151v-124h-151v-162q0 -40 17 -62t58 -22q22 0 43.5 1.5t50.5 5.5z" />
    <glyph glyph-name="u" unicode="u" horiz-adv-x="623" 
d="M556 10q-23 -4 -57.5 -8.5t-73.5 -8t-79 -5.5t-75 -2q-44 0 -81 10t-63.5 31.5t-41.5 56.5t-15 85v310h139v-277q0 -52 23.5 -75.5t71.5 -23.5q26 0 54.5 2t58.5 5v369h139v-469z" />
    <glyph glyph-name="v" unicode="v" horiz-adv-x="609" 
d="M232 0l-209 479h152l130 -314l129 314h151l-208 -479h-145z" />
    <glyph glyph-name="w" unicode="w" horiz-adv-x="819" 
d="M510 0l-101 282l-100 -282h-133l-153 479h141l86 -293l107 293h106l106 -295l86 295h141l-152 -479h-134z" />
    <glyph glyph-name="x" unicode="x" horiz-adv-x="582" 
d="M559 0h-160l-108 148l-108 -148h-160l176 240l-176 240h164l103 -140l104 140h165l-177 -240z" />
    <glyph glyph-name="y" unicode="y" horiz-adv-x="653" 
d="M294 -230h-155l125 265l-232 444h159l147 -287l135 287h157z" />
    <glyph glyph-name="z" unicode="z" horiz-adv-x="508" 
d="M238 119h239v-119h-437v67l227 294h-224v119h414v-76z" />
    <glyph glyph-name="braceleft" unicode="{" horiz-adv-x="371" 
d="M262 368q0 -23 -3 -41t-12 -31.5t-24.5 -24t-39.5 -17.5q49 -14 64 -40.5t15 -72.5v-211q0 -40 18.5 -51.5t60.5 -11.5v-127q-112 0 -164.5 49.5t-52.5 143.5v206q0 20 -4.5 31t-14.5 16.5t-25.5 7t-36.5 1.5v119q21 0 36.5 1t25.5 6.5t14.5 17t4.5 31.5v205
q0 94 52.5 143.5t164.5 49.5v-126q-42 0 -60.5 -12t-18.5 -52v-210z" />
    <glyph glyph-name="bar" unicode="|" horiz-adv-x="324" 
d="M226 -159h-128v918h128v-918z" />
    <glyph glyph-name="braceright" unicode="}" horiz-adv-x="371" 
d="M108 578q0 40 -18 52t-61 12v126q112 0 165 -49.5t53 -143.5v-205q0 -20 4.5 -31.5t14.5 -17t25.5 -6.5t36.5 -1v-119q-21 0 -36.5 -1.5t-25.5 -7t-14.5 -16.5t-4.5 -31v-206q0 -94 -53 -143.5t-165 -49.5v127q43 0 61 11.5t18 51.5v211q0 46 15 72.5t64 40.5
q-24 7 -39.5 17.5t-24.5 24t-12 31.5t-3 41v210z" />
    <glyph glyph-name="asciitilde" unicode="~" horiz-adv-x="448" 
d="M432 410q0 -56 -20.5 -90.5t-50.5 -50.5t-64.5 -14.5t-62.5 17.5l-50 30q-14 8 -23 8t-14.5 -5t-7.5 -13.5t-2 -16.5h-121q0 55 20.5 89.5t50.5 50.5t64.5 15t62.5 -17l51 -30q13 -8 22 -8t14.5 5t7.5 13.5t2 16.5h121z" />
    <glyph glyph-name="exclamdown" unicode="&#xa1;" horiz-adv-x="281" 
d="M137 499q38 0 64 -24.5t26 -62.5q0 -36 -26 -60.5t-64 -24.5q-36 0 -62 24.5t-26 60.5q0 38 26 62.5t62 24.5zM204 278l9 -478h-155l9 478h137z" />
    <glyph glyph-name="cent" unicode="&#xa2;" horiz-adv-x="516" 
d="M482 25q-27 -9 -56.5 -16t-58.5 -10v-114h-122v116q-47 9 -85 30.5t-65 54t-42 74t-15 91.5q0 49 15 91t42 74.5t65 53.5t85 30v119h122v-117q29 -3 58.5 -9.5t56.5 -15.5l-19 -112q-42 9 -81 14.5t-64 5.5q-31 0 -56.5 -9.5t-44 -27.5t-29 -42.5t-10.5 -54.5
q0 -61 39 -97.5t102 -36.5q26 0 64.5 5.5t80.5 13.5z" />
    <glyph glyph-name="sterling" unicode="&#xa3;" horiz-adv-x="601" 
d="M30 0v120h58v153h-58v117h58v92q0 48 17.5 87t49.5 66.5t76.5 43t99.5 15.5q52 0 98.5 -6t94.5 -17l-19 -114q-50 7 -91 11.5t-85 4.5q-48 0 -75.5 -25t-27.5 -69v-89h191v-117h-191v-153h339v-120h-535z" />
    <glyph glyph-name="yen" unicode="&#xa5;" horiz-adv-x="741" 
d="M646 204h-202v-44h202v-96h-202v-64h-146v64h-203v96h203v44h-203v96h156l-232 380h162l189 -306l189 306h163l-231 -380h155v-96z" />
    <glyph glyph-name="brokenbar" unicode="&#xa6;" horiz-adv-x="324" 
d="M98 350v408h128v-408h-128zM98 -160v408h128v-408h-128z" />
    <glyph glyph-name="section" unicode="&#xa7;" horiz-adv-x="563" 
d="M293 695q54 0 109 -12.5t93 -32.5l-40 -104q-47 20 -85.5 30t-73.5 10q-43 0 -69 -14t-26 -46q0 -18 9.5 -29.5t26.5 -19.5t41 -14.5t54 -15.5q43 -12 78.5 -26t60.5 -34.5t39 -49t14 -69.5q0 -30 -7 -53t-18 -41t-24.5 -31t-26.5 -23q21 -20 32.5 -45.5t11.5 -60.5
q0 -81 -58 -127.5t-164 -46.5q-55 0 -110 12.5t-93 32.5l40 104q48 -20 86.5 -30t73.5 -10q43 0 69 14t26 46q0 18 -9.5 29.5t-27 19.5t-41.5 14.5t-53 15.5q-43 12 -78.5 26t-61 34.5t-39.5 49t-14 69.5q0 30 7 53t18 41t24.5 31.5t27.5 23.5q-21 19 -32.5 44.5t-11.5 60.5
q0 81 58 127.5t164 46.5zM200 366q-15 -17 -26.5 -37t-11.5 -44q0 -19 10 -33t27.5 -24.5t42 -18.5t53.5 -17q19 -6 35.5 -11.5t32.5 -11.5q15 17 26.5 37t11.5 44q0 19 -10 33t-28 24.5t-42.5 19t-53.5 17.5q-18 5 -35 10.5t-32 11.5z" />
    <glyph glyph-name="dieresis" unicode="&#xa8;" 
d="M191 710q35 0 59.5 -23t24.5 -57q0 -35 -24.5 -58t-59.5 -23t-59.5 23t-24.5 58q0 34 24.5 57t59.5 23zM410 710q35 0 59 -23t24 -57q0 -35 -24 -58t-59 -23t-59.5 23t-24.5 58q0 34 24.5 57t59.5 23z" />
    <glyph glyph-name="copyright" unicode="&#xa9;" horiz-adv-x="813" 
d="M406 695q78 0 145 -27t115.5 -74.5t76.5 -112.5t28 -141t-28 -141t-76.5 -112.5t-115.5 -74.5t-145 -27t-144.5 27t-115.5 74.5t-76.5 112.5t-27.5 141t27.5 141t76.5 112.5t115.5 74.5t144.5 27zM406 632q-63 0 -117.5 -22.5t-94.5 -61.5t-63 -92.5t-23 -115.5
t23 -115.5t63 -92.5t94.5 -61.5t117.5 -22.5q64 0 118.5 22.5t94.5 61.5t63 92.5t23 115.5t-23 115.5t-63 92.5t-94.5 61.5t-118.5 22.5zM530 427q-32 6 -60 10.5t-48 4.5q-53 0 -79.5 -27.5t-26.5 -73.5t26.5 -73t79.5 -27q21 0 48.5 4t59.5 11l13 -83q-31 -11 -63 -17
t-61 -6q-52 0 -90.5 14.5t-64.5 40.5t-39 60.5t-13 75.5q0 40 13 75.5t39 61t64.5 40.5t90.5 15q29 0 61 -6t63 -17z" />
    <glyph glyph-name="ordfeminine" unicode="&#xaa;" horiz-adv-x="463" 
d="M243 695q160 0 160 -130v-215q-52 -7 -86 -11t-57.5 -5.5t-40.5 -1.5h-35q-66 0 -101 31t-35 85q0 52 39.5 77t121.5 30l96 5v3q-2 20 -15.5 29.5t-46.5 9.5q-35 0 -76 -4t-73 -8l-11 88q23 4 43 7t39 5t38 3.5t40 1.5zM200 481q-29 -2 -40 -9.5t-11 -24.5
q0 -15 13.5 -23.5t43.5 -8.5q14 0 39 1.5t60 5.5v64z" />
    <glyph glyph-name="guillemotleft" unicode="&#xab;" horiz-adv-x="604" 
d="M226 36l-188 210l188 210l79 -62l-114 -145l112 -143zM462 36l-188 210l188 210l79 -62l-114 -145l112 -143z" />
    <glyph glyph-name="registered" unicode="&#xae;" horiz-adv-x="813" 
d="M406 695q78 0 145 -27t115.5 -74.5t76.5 -112.5t28 -141t-28 -141t-76.5 -112.5t-115.5 -74.5t-145 -27t-144.5 27t-115.5 74.5t-76.5 112.5t-27.5 141t27.5 141t76.5 112.5t115.5 74.5t144.5 27zM406 632q-63 0 -117.5 -22.5t-94.5 -61.5t-63 -92.5t-23 -115.5
t23 -115.5t63 -92.5t94.5 -61.5t117.5 -22.5q64 0 118.5 22.5t94.5 61.5t63 92.5t23 115.5t-23 115.5t-63 92.5t-94.5 61.5t-118.5 22.5zM410 536q71 0 114.5 -34.5t43.5 -100.5q0 -35 -17 -63.5t-48 -47.5l92 -130h-115l-71 106h-6h-51v-106h-96v374q9 0 27 0.5t40 0.5
t44.5 0.5t42.5 0.5zM413 452h-30.5t-30.5 -1v-102h68q22 0 37.5 15.5t15.5 37.5q0 26 -16.5 38t-43.5 12z" />
    <glyph glyph-name="macron" unicode="&#xaf;" 
d="M441 573h-282v111h282v-111z" />
    <glyph glyph-name="degree" unicode="&#xb0;" horiz-adv-x="465" 
d="M232 695q38 0 70.5 -13t56 -36t37 -54t13.5 -68t-13.5 -68.5t-37 -54.5t-56 -36t-70.5 -13t-70 13t-55.5 36t-36.5 54.5t-13 68.5t13 68t36.5 54t55.5 36t70 13zM232 451q31 0 53 21.5t22 51.5t-22 51t-53 21q-30 0 -52 -21t-22 -51t22 -51.5t52 -21.5z" />
    <glyph glyph-name="plusminus" unicode="&#xb1;" horiz-adv-x="679" 
d="M403 323v-129h-127v129h-177v122h177v130h127v-130h177v-122h-177zM580 33h-481v122h481v-122z" />
    <glyph glyph-name="uni00B2" unicode="&#xb2;" horiz-adv-x="352" 
d="M23 282v70l146 129q17 12 25.5 26t8.5 35q0 26 -15 36t-43 10q-14 0 -38.5 -2.5t-66.5 -14.5l-21 91q31 11 69 17t74 6q42 0 70.5 -11.5t46.5 -29.5t26 -40.5t8 -45.5q0 -47 -26 -84.5t-68 -75.5l-31 -27h135v-89h-300z" />
    <glyph glyph-name="uni00B3" unicode="&#xb3;" horiz-adv-x="364" 
d="M222 520l5 -1q49 -6 79 -36.5t30 -68.5q0 -64 -39.5 -100t-129.5 -36q-35 0 -73.5 6.5t-74.5 26.5l35 82q29 -12 59 -19t56 -7q33 0 51 10t18 29q0 14 -11 22.5t-35 8.5h-109v48l93 103h-135v93h277v-61z" />
    <glyph glyph-name="acute" unicode="&#xb4;" 
d="M353 560h-135l76 151h182z" />
    <glyph glyph-name="paragraph" unicode="&#xb6;" horiz-adv-x="771" 
d="M285 689q23 0 59.5 -0.5t79 -1t87.5 -1.5t85 -2t71 -2t46 -2v-790h-139v665l-81 3v-668h-138v315h-70q-62 0 -111.5 17.5t-83.5 50t-52 77.5t-18 100t18 99.5t52 75.5t83.5 47.5t111.5 16.5zM270 561q-57 0 -86 -29t-29 -83q0 -56 29 -87.5t86 -31.5h85v230z" />
    <glyph glyph-name="periodcentered" unicode="&#xb7;" horiz-adv-x="314" 
d="M157 172q-41 0 -69.5 27t-28.5 67q0 41 28.5 68t69.5 27t69.5 -27t28.5 -68q0 -40 -28.5 -67t-69.5 -27z" />
    <glyph glyph-name="cedilla" unicode="&#xb8;" 
d="M200 -210l43 161h130l-61 -161h-112z" />
    <glyph glyph-name="uni00B9" unicode="&#xb9;" horiz-adv-x="314" 
d="M286 286h-264v91h80v179l-74 -20l-23 92l171 53h30v-304h80v-91z" />
    <glyph glyph-name="ordmasculine" unicode="&#xba;" horiz-adv-x="463" 
d="M231 695q42 0 77.5 -13t61 -37t40 -57.5t14.5 -73.5q0 -42 -14.5 -76t-40 -58t-61 -37.5t-77.5 -13.5q-41 0 -76.5 13.5t-61 37.5t-40 58t-14.5 76q0 40 14.5 73.5t40 57.5t61 37t76.5 13zM231 425q36 0 61.5 24t25.5 65q0 38 -25.5 62t-61.5 24q-35 0 -60.5 -24
t-25.5 -62q0 -41 25.5 -65t60.5 -24z" />
    <glyph glyph-name="guillemotright" unicode="&#xbb;" horiz-adv-x="604" 
d="M137 456l188 -210l-188 -210l-77 70l112 143l-114 145zM373 456l188 -210l-188 -210l-77 70l112 143l-114 145z" />
    <glyph glyph-name="onequarter" unicode="&#xbc;" horiz-adv-x="914" 
d="M70 377h79v179l-74 -20l-23 92l171 53h30v-304h80v-91h-263v91zM274 0h-73l465 680h74zM863 81h-56v-81h-102v81h-225v73l218 241h109v-227h56v-87zM608 168h97v113z" />
    <glyph glyph-name="onehalf" unicode="&#xbd;" horiz-adv-x="909" 
d="M70 377h79v179l-74 -20l-23 92l171 53h30v-304h80v-91h-263v91zM265 0h-74l466 680h73zM875 0h-301v70l146 129q17 12 26 26t9 35q0 26 -15.5 36t-43.5 10q-14 0 -38.5 -2.5t-65.5 -14.5l-22 90q31 11 69.5 17.5t74.5 6.5q41 0 69.5 -11.5t46.5 -29.5t26 -40.5t8 -45.5
q0 -47 -26 -84.5t-68 -75.5l-31 -27h136v-89z" />
    <glyph glyph-name="threequarters" unicode="&#xbe;" horiz-adv-x="922" 
d="M242 520l5 -1q49 -6 79 -36.5t30 -68.5q0 -64 -39.5 -100t-129.5 -36q-35 0 -73.5 6.5t-74.5 26.5l35 82q29 -12 59 -19t56 -7q33 0 51 10t18 29q0 14 -11 22.5t-35 8.5h-109v48l93 103h-135v93h277v-61zM204 0l466 680h73l-465 -680h-74zM880 168v-87h-56v-81h-101v81
h-226v73l218 241h109v-227h56zM723 168v113l-98 -113h98z" />
    <glyph glyph-name="questiondown" unicode="&#xbf;" horiz-adv-x="518" 
d="M326 346q-37 0 -63 24.5t-26 60.5q0 37 26 61.5t63 24.5q36 0 62 -24.5t26 -61.5q0 -36 -26 -60.5t-62 -24.5zM287 -197q-55 0 -99.5 15.5t-76.5 43t-49.5 67t-17.5 87.5q0 45 15.5 84t44 67.5t67.5 45t86 16.5h9l-3 68h129l19 -180h-120q-52 0 -83 -28t-31 -76
q0 -40 29.5 -64t77.5 -24q43 0 85 4.5t92 11.5l20 -115q-48 -11 -95 -17t-99 -6z" />
    <glyph glyph-name="Agrave" unicode="&#xc0;" horiz-adv-x="787" 
d="M329 748l-123 142h182l75 -142h-134zM179 0h-161l308 684h135l307 -684h-161l-54 125h-320zM287 253h212l-106 247z" />
    <glyph glyph-name="Aacute" unicode="&#xc1;" horiz-adv-x="787" 
d="M474 748h-144l85 142h182zM179 0h-161l308 684h135l307 -684h-161l-54 125h-320zM287 253h212l-106 247z" />
    <glyph glyph-name="Acircumflex" unicode="&#xc2;" horiz-adv-x="787" 
d="M346 748h-133l120 142h121l119 -142h-133l-47 61zM179 0h-161l308 684h135l307 -684h-161l-54 125h-320zM287 253h212l-106 247z" />
    <glyph glyph-name="Atilde" unicode="&#xc3;" horiz-adv-x="787" 
d="M583 884q0 -50 -18.5 -81.5t-45.5 -45.5t-58.5 -13t-56.5 15l-45 28q-12 7 -20.5 7t-13.5 -4.5t-7 -12t-2 -14.5h-109q0 50 18.5 81t46 45t58.5 13t56 -15l46 -27q12 -8 20.5 -8t13 4.5t6.5 12t2 15.5h109zM179 0h-161l308 684h135l307 -684h-161l-54 125h-320zM287 253
h212l-106 247z" />
    <glyph glyph-name="Adieresis" unicode="&#xc4;" horiz-adv-x="787" 
d="M283 738q-35 0 -59 22.5t-24 57.5t24 58t59 23t59.5 -23t24.5 -58t-24.5 -57.5t-59.5 -22.5zM502 738q-35 0 -59.5 22.5t-24.5 57.5t24.5 58t59.5 23t59 -23t24 -58t-24 -57.5t-59 -22.5zM179 0h-161l308 684h135l307 -684h-161l-54 125h-320zM287 253h212l-106 247z" />
    <glyph glyph-name="Aring" unicode="&#xc5;" horiz-adv-x="787" 
d="M393 952q54 0 86.5 -30t32.5 -81q0 -50 -32.5 -81t-86.5 -31t-86.5 31t-32.5 81q0 51 32.5 81t86.5 30zM393 798q20 0 32 11.5t12 31.5t-12 31.5t-32 11.5t-31.5 -11.5t-11.5 -31.5t11.5 -31.5t31.5 -11.5zM179 0h-161l308 684h135l307 -684h-161l-54 125h-320zM287 253
h212l-106 247z" />
    <glyph glyph-name="AE" unicode="&#xc6;" horiz-adv-x="1091" 
d="M998 405v-130h-316v-144h359v-131h-503v122h-263l-83 -122h-174l477 680h546v-131h-359v-144h316zM364 253h174v255z" />
    <glyph glyph-name="Ccedilla" unicode="&#xc7;" horiz-adv-x="719" 
d="M644 529q-62 13 -109 20t-87 7q-60 0 -106 -16.5t-76.5 -45t-46 -67.5t-15.5 -85q0 -50 16.5 -91t47.5 -70t73.5 -45t95.5 -16q38 0 93.5 8.5t113.5 20.5l26 -127q-58 -17 -120.5 -27t-120.5 -10q-85 0 -155 25.5t-119.5 72t-76.5 112.5t-27 146q0 79 27 144.5t76.5 112
t119.5 72t155 25.5q63 0 123.5 -8.5t117.5 -22.5zM271 -210l43 161h130l-61 -161h-112z" />
    <glyph glyph-name="Egrave" unicode="&#xc8;" horiz-adv-x="631" 
d="M260 748l-123 142h182l75 -142h-134zM537 405v-130h-316v-144h360v-131h-504v680h504v-131h-360v-144h316z" />
    <glyph glyph-name="Eacute" unicode="&#xc9;" horiz-adv-x="631" 
d="M405 748h-144l85 142h182zM537 405v-130h-316v-144h360v-131h-504v680h504v-131h-360v-144h316z" />
    <glyph glyph-name="Ecircumflex" unicode="&#xca;" horiz-adv-x="631" 
d="M277 748h-133l120 142h121l119 -142h-133l-47 61zM537 405v-130h-316v-144h360v-131h-504v680h504v-131h-360v-144h316z" />
    <glyph glyph-name="Edieresis" unicode="&#xcb;" horiz-adv-x="631" 
d="M214 738q-35 0 -59 22.5t-24 57.5t24 58t59 23t59.5 -23t24.5 -58t-24.5 -57.5t-59.5 -22.5zM433 738q-35 0 -59.5 22.5t-24.5 57.5t24.5 58t59.5 23t59 -23t24 -58t-24 -57.5t-59 -22.5zM537 405v-130h-316v-144h360v-131h-504v680h504v-131h-360v-144h316z" />
    <glyph glyph-name="Igrave" unicode="&#xcc;" horiz-adv-x="297" 
d="M84 748l-123 142h182l75 -142h-134zM220 0h-144v680h144v-680z" />
    <glyph glyph-name="Iacute" unicode="&#xcd;" horiz-adv-x="297" 
d="M229 748h-144l85 142h182zM220 0h-144v680h144v-680z" />
    <glyph glyph-name="Icircumflex" unicode="&#xce;" horiz-adv-x="297" 
d="M101 748h-133l120 142h121l119 -142h-133l-47 61zM220 0h-144v680h144v-680z" />
    <glyph glyph-name="Idieresis" unicode="&#xcf;" horiz-adv-x="297" 
d="M38 738q-35 0 -59 22.5t-24 57.5t24 58t59 23t59.5 -23t24.5 -58t-24.5 -57.5t-59.5 -22.5zM257 738q-35 0 -59.5 22.5t-24.5 57.5t24.5 58t59.5 23t59 -23t24 -58t-24 -57.5t-59 -22.5zM220 0h-144v680h144v-680z" />
    <glyph glyph-name="Eth" unicode="&#xd0;" horiz-adv-x="737" 
d="M323 689q80 0 147 -25t115 -70t75 -109t27 -142q0 -80 -26.5 -144.5t-73 -111t-109.5 -71.5t-135 -25q-37 0 -75.5 1t-74 2t-66 2.5t-50.5 3.5v267h-52v131h52v282q20 1 48.5 2.5t61.5 3t68 2.5t68 1zM343 123q39 0 74.5 15.5t61.5 44.5t41.5 69.5t15.5 90.5
q0 48 -15.5 87.5t-44 67.5t-67.5 43.5t-85 15.5q-51 0 -103 -3v-156h128v-131h-128v-141q30 -2 61.5 -2.5t60.5 -0.5z" />
    <glyph glyph-name="Ntilde" unicode="&#xd1;" horiz-adv-x="777" 
d="M570 884q0 -50 -18.5 -81.5t-45.5 -45.5t-58.5 -13t-56.5 15l-45 28q-12 7 -20.5 7t-13.5 -4.5t-7 -12t-2 -14.5h-109q0 50 18.5 81t46 45t58.5 13t56 -15l46 -27q12 -8 20.5 -8t13 4.5t6.5 12t2 15.5h109zM701 0h-135l-345 434v-434h-144v680h133l347 -438v438h144v-680
z" />
    <glyph glyph-name="Ograve" unicode="&#xd2;" horiz-adv-x="830" 
d="M351 748l-123 142h182l75 -142h-134zM415 695q80 0 147 -25.5t115.5 -72t75.5 -112t27 -145.5t-27 -145.5t-75.5 -112t-115.5 -72t-147 -25.5t-146.5 25.5t-115 72t-75.5 112t-27 145.5t27 145.5t75.5 112t115 72t146.5 25.5zM415 120q46 0 85.5 16t68 44.5t44.5 69
t16 90.5q0 49 -16 89.5t-44.5 69.5t-68 44.5t-85.5 15.5t-85 -15.5t-67.5 -44.5t-44.5 -69.5t-16 -89.5q0 -50 16 -90.5t44.5 -69t67.5 -44.5t85 -16z" />
    <glyph glyph-name="Oacute" unicode="&#xd3;" horiz-adv-x="830" 
d="M496 748h-144l85 142h182zM415 695q80 0 147 -25.5t115.5 -72t75.5 -112t27 -145.5t-27 -145.5t-75.5 -112t-115.5 -72t-147 -25.5t-146.5 25.5t-115 72t-75.5 112t-27 145.5t27 145.5t75.5 112t115 72t146.5 25.5zM415 120q46 0 85.5 16t68 44.5t44.5 69t16 90.5
q0 49 -16 89.5t-44.5 69.5t-68 44.5t-85.5 15.5t-85 -15.5t-67.5 -44.5t-44.5 -69.5t-16 -89.5q0 -50 16 -90.5t44.5 -69t67.5 -44.5t85 -16z" />
    <glyph glyph-name="Ocircumflex" unicode="&#xd4;" horiz-adv-x="830" 
d="M368 748h-133l120 142h121l119 -142h-133l-47 61zM415 695q80 0 147 -25.5t115.5 -72t75.5 -112t27 -145.5t-27 -145.5t-75.5 -112t-115.5 -72t-147 -25.5t-146.5 25.5t-115 72t-75.5 112t-27 145.5t27 145.5t75.5 112t115 72t146.5 25.5zM415 120q46 0 85.5 16t68 44.5
t44.5 69t16 90.5q0 49 -16 89.5t-44.5 69.5t-68 44.5t-85.5 15.5t-85 -15.5t-67.5 -44.5t-44.5 -69.5t-16 -89.5q0 -50 16 -90.5t44.5 -69t67.5 -44.5t85 -16z" />
    <glyph glyph-name="Otilde" unicode="&#xd5;" horiz-adv-x="830" 
d="M605 884q0 -50 -18.5 -81.5t-45.5 -45.5t-58.5 -13t-56.5 15l-45 28q-12 7 -20.5 7t-13.5 -4.5t-7 -12t-2 -14.5h-109q0 50 18.5 81t46 45t58.5 13t56 -15l46 -27q12 -8 20.5 -8t13 4.5t6.5 12t2 15.5h109zM415 695q80 0 147 -25.5t115.5 -72t75.5 -112t27 -145.5
t-27 -145.5t-75.5 -112t-115.5 -72t-147 -25.5t-146.5 25.5t-115 72t-75.5 112t-27 145.5t27 145.5t75.5 112t115 72t146.5 25.5zM415 120q46 0 85.5 16t68 44.5t44.5 69t16 90.5q0 49 -16 89.5t-44.5 69.5t-68 44.5t-85.5 15.5t-85 -15.5t-67.5 -44.5t-44.5 -69.5
t-16 -89.5q0 -50 16 -90.5t44.5 -69t67.5 -44.5t85 -16z" />
    <glyph glyph-name="Odieresis" unicode="&#xd6;" horiz-adv-x="830" 
d="M305 738q-35 0 -59 22.5t-24 57.5t24 58t59 23t59.5 -23t24.5 -58t-24.5 -57.5t-59.5 -22.5zM524 738q-35 0 -59.5 22.5t-24.5 57.5t24.5 58t59.5 23t59 -23t24 -58t-24 -57.5t-59 -22.5zM415 695q80 0 147 -25.5t115.5 -72t75.5 -112t27 -145.5t-27 -145.5t-75.5 -112
t-115.5 -72t-147 -25.5t-146.5 25.5t-115 72t-75.5 112t-27 145.5t27 145.5t75.5 112t115 72t146.5 25.5zM415 120q46 0 85.5 16t68 44.5t44.5 69t16 90.5q0 49 -16 89.5t-44.5 69.5t-68 44.5t-85.5 15.5t-85 -15.5t-67.5 -44.5t-44.5 -69.5t-16 -89.5q0 -50 16 -90.5
t44.5 -69t67.5 -44.5t85 -16z" />
    <glyph glyph-name="multiply" unicode="&#xd7;" horiz-adv-x="675" 
d="M478 94l-140 142l-142 -142l-87 87l141 142l-141 140l87 87l142 -140l140 140l87 -87l-140 -140l140 -142z" />
    <glyph glyph-name="Oslash" unicode="&#xd8;" horiz-adv-x="830" 
d="M693 581q42 -46 64.5 -106.5t22.5 -134.5q0 -80 -27 -145.5t-75.5 -112t-115.5 -72t-147 -25.5q-58 0 -109 13.5t-93 39.5l-45 -51l-87 74l45 51q-36 45 -55.5 102t-19.5 126q0 80 27 145.5t75.5 112t115 72t146.5 25.5q105 0 187 -44l42 48l87 -75zM202 340
q0 -63 26 -112l277 313q-41 18 -90 18q-46 0 -85 -15.5t-67.5 -44.5t-44.5 -69.5t-16 -89.5zM415 120q46 0 85.5 16t68 44.5t44.5 69t16 90.5q0 38 -9.5 70t-26.5 58l-284 -322q46 -26 106 -26z" />
    <glyph glyph-name="Ugrave" unicode="&#xd9;" horiz-adv-x="757" 
d="M315 748l-123 142h182l75 -142h-134zM690 299q0 -74 -22 -132t-63 -98.5t-98.5 -62t-128.5 -21.5q-70 0 -127.5 21.5t-98 62t-63 98.5t-22.5 132v381h145v-381q0 -85 45.5 -132t120.5 -47q76 0 122 47t46 132v381h144v-381z" />
    <glyph glyph-name="Uacute" unicode="&#xda;" horiz-adv-x="757" 
d="M459 748h-144l85 142h182zM690 299q0 -74 -22 -132t-63 -98.5t-98.5 -62t-128.5 -21.5q-70 0 -127.5 21.5t-98 62t-63 98.5t-22.5 132v381h145v-381q0 -85 45.5 -132t120.5 -47q76 0 122 47t46 132v381h144v-381z" />
    <glyph glyph-name="Ucircumflex" unicode="&#xdb;" horiz-adv-x="757" 
d="M332 748h-133l120 142h121l119 -142h-133l-47 61zM690 299q0 -74 -22 -132t-63 -98.5t-98.5 -62t-128.5 -21.5q-70 0 -127.5 21.5t-98 62t-63 98.5t-22.5 132v381h145v-381q0 -85 45.5 -132t120.5 -47q76 0 122 47t46 132v381h144v-381z" />
    <glyph glyph-name="Udieresis" unicode="&#xdc;" horiz-adv-x="757" 
d="M269 738q-35 0 -59 22.5t-24 57.5t24 58t59 23t59.5 -23t24.5 -58t-24.5 -57.5t-59.5 -22.5zM488 738q-35 0 -59.5 22.5t-24.5 57.5t24.5 58t59.5 23t59 -23t24 -58t-24 -57.5t-59 -22.5zM690 299q0 -74 -22 -132t-63 -98.5t-98.5 -62t-128.5 -21.5q-70 0 -127.5 21.5
t-98 62t-63 98.5t-22.5 132v381h145v-381q0 -85 45.5 -132t120.5 -47q76 0 122 47t46 132v381h144v-381z" />
    <glyph glyph-name="Yacute" unicode="&#xdd;" horiz-adv-x="741" 
d="M451 748h-144l85 142h182zM18 680h163l188 -306l190 306h163l-279 -458v-222h-146v222z" />
    <glyph glyph-name="Thorn" unicode="&#xde;" horiz-adv-x="647" 
d="M328 591q64 0 116.5 -16.5t90.5 -48t59 -76.5t21 -101t-21 -101t-59 -77.5t-90.5 -50t-116.5 -17.5h-107v-103h-144v680h144v-91q26 1 53 1.5t54 0.5zM341 232q57 0 95 31t38 85t-38 83t-95 29q-63 0 -120 -3v-225h120z" />
    <glyph glyph-name="germandbls" unicode="&#xdf;" horiz-adv-x="666" 
d="M288 630q-43 0 -61 -21.5t-18 -61.5v-68h383v-84l-118 -164l5 -1q73 -13 115.5 -64.5t42.5 -135.5q0 -52 -17.5 -94t-49 -72t-76 -46.5t-99.5 -16.5q-44 0 -82.5 5t-80.5 15l18 115q59 -10 91.5 -12t52.5 -2q50 0 80 29t30 77q0 41 -27 65t-69 24h-105v65l111 170h-205
v-352h-139v560q0 94 53 143.5t165 49.5v-123z" />
    <glyph glyph-name="agrave" unicode="&#xe0;" horiz-adv-x="618" 
d="M262 561l-122 151h182l75 -151h-135zM278 494q38 0 69 -1.5t62 -4.5t64.5 -7t77.5 -10v-471h-139v34q-30 -23 -65 -36t-80 -13q-50 0 -91.5 18t-72.5 51.5t-48 81t-17 106.5q1 57 17 103.5t46.5 79.5t75 51t101.5 18zM299 379q-35 0 -59 -11t-39 -29.5t-21.5 -44.5
t-6.5 -56q0 -60 31.5 -98.5t85.5 -38.5q30 0 60 10.5t62 36.5v225q-25 2 -52.5 4t-60.5 2z" />
    <glyph glyph-name="aacute" unicode="&#xe1;" horiz-adv-x="618" 
d="M382 561h-135l76 151h182zM278 494q38 0 69 -1.5t62 -4.5t64.5 -7t77.5 -10v-471h-139v34q-30 -23 -65 -36t-80 -13q-50 0 -91.5 18t-72.5 51.5t-48 81t-17 106.5q1 57 17 103.5t46.5 79.5t75 51t101.5 18zM299 379q-35 0 -59 -11t-39 -29.5t-21.5 -44.5t-6.5 -56
q0 -60 31.5 -98.5t85.5 -38.5q30 0 60 10.5t62 36.5v225q-25 2 -52.5 4t-60.5 2z" />
    <glyph glyph-name="acircumflex" unicode="&#xe2;" horiz-adv-x="618" 
d="M270 566h-133l120 137h121l119 -137h-133l-46 52zM278 494q38 0 69 -1.5t62 -4.5t64.5 -7t77.5 -10v-471h-139v34q-30 -23 -65 -36t-80 -13q-50 0 -91.5 18t-72.5 51.5t-48 81t-17 106.5q1 57 17 103.5t46.5 79.5t75 51t101.5 18zM299 379q-35 0 -59 -11t-39 -29.5
t-21.5 -44.5t-6.5 -56q0 -60 31.5 -98.5t85.5 -38.5q30 0 60 10.5t62 36.5v225q-25 2 -52.5 4t-60.5 2z" />
    <glyph glyph-name="atilde" unicode="&#xe3;" horiz-adv-x="618" 
d="M506 695q0 -50 -18 -80.5t-45 -45t-58 -13t-56 15.5l-46 27q-12 7 -20.5 7t-13 -4.5t-6.5 -12t-2 -14.5h-108q0 50 18 80.5t45 45t58 13.5t56 -15l46 -28q12 -7 20.5 -7t13 4.5t6.5 12t2 14.5h108zM278 494q38 0 69 -1.5t62 -4.5t64.5 -7t77.5 -10v-471h-139v34
q-30 -23 -65 -36t-80 -13q-50 0 -91.5 18t-72.5 51.5t-48 81t-17 106.5q1 57 17 103.5t46.5 79.5t75 51t101.5 18zM299 379q-35 0 -59 -11t-39 -29.5t-21.5 -44.5t-6.5 -56q0 -60 31.5 -98.5t85.5 -38.5q30 0 60 10.5t62 36.5v225q-25 2 -52.5 4t-60.5 2z" />
    <glyph glyph-name="adieresis" unicode="&#xe4;" horiz-adv-x="618" 
d="M209 711q35 0 59.5 -23t24.5 -57q0 -35 -24.5 -58t-59.5 -23t-59.5 23t-24.5 58q0 34 24.5 57t59.5 23zM428 711q35 0 59 -23t24 -57q0 -35 -24 -58t-59 -23t-59.5 23t-24.5 58q0 34 24.5 57t59.5 23zM278 494q38 0 69 -1.5t62 -4.5t64.5 -7t77.5 -10v-471h-139v34
q-30 -23 -65 -36t-80 -13q-50 0 -91.5 18t-72.5 51.5t-48 81t-17 106.5q1 57 17 103.5t46.5 79.5t75 51t101.5 18zM299 379q-35 0 -59 -11t-39 -29.5t-21.5 -44.5t-6.5 -56q0 -60 31.5 -98.5t85.5 -38.5q30 0 60 10.5t62 36.5v225q-25 2 -52.5 4t-60.5 2z" />
    <glyph glyph-name="aring" unicode="&#xe5;" horiz-adv-x="618" 
d="M318 766q54 0 86.5 -30t32.5 -81q0 -50 -32.5 -80.5t-86.5 -30.5t-86.5 30.5t-32.5 80.5q0 51 32.5 81t86.5 30zM318 612q20 0 32 11.5t12 31.5t-12 31.5t-32 11.5t-31.5 -11.5t-11.5 -31.5t11.5 -31.5t31.5 -11.5zM278 494q38 0 69 -1.5t62 -4.5t64.5 -7t77.5 -10v-471
h-139v34q-30 -23 -65 -36t-80 -13q-50 0 -91.5 18t-72.5 51.5t-48 81t-17 106.5q1 57 17 103.5t46.5 79.5t75 51t101.5 18zM299 379q-35 0 -59 -11t-39 -29.5t-21.5 -44.5t-6.5 -56q0 -60 31.5 -98.5t85.5 -38.5q30 0 60 10.5t62 36.5v225q-25 2 -52.5 4t-60.5 2z" />
    <glyph glyph-name="ae" unicode="&#xe6;" horiz-adv-x="893" 
d="M850 282q0 -15 -0.5 -26t-1 -21t-2 -20.5t-4.5 -25.5h-336q14 -38 48.5 -60.5t88.5 -22.5q29 0 68.5 6t100.5 19l19 -109q-57 -18 -104 -27.5t-89 -9.5q-54 0 -97 12t-76 33q-55 -17 -92.5 -26.5t-65 -13.5t-48.5 -4.5t-42 -0.5q-89 0 -136 42.5t-47 120.5q0 72 52 105
t163 32l109 -1v18q0 19 -3 33.5t-11.5 24.5t-23.5 14.5t-40 4.5q-48 0 -94 -5.5t-91 -12.5l-15 115q31 5 58 9t52 7t50 4.5t52 1.5q60 1 99 -13t61 -42q33 25 73.5 38.5t87.5 13.5q51 0 94 -15t74.5 -42.5t49.5 -66t19 -85.5v-4zM617 387q-47 0 -76.5 -26.5t-39.5 -72.5h225
q-2 45 -32 72t-77 27zM164 141q0 -25 22.5 -36.5t64.5 -11.5q22 0 55 4t83 18q-16 30 -23 63l-122 -1q-46 0 -63 -8.5t-17 -27.5z" />
    <glyph glyph-name="ccedilla" unicode="&#xe7;" horiz-adv-x="516" 
d="M462 363q-42 9 -76 14.5t-59 5.5q-72 0 -112 -39t-40 -102t40 -100.5t104 -37.5q24 0 63 5.5t81 15.5l18 -110q-41 -14 -86 -22t-86 -8q-60 0 -109.5 18t-85.5 52t-56 81.5t-20 106.5t20 106.5t56 80.5t86.5 51t112.5 18q36 0 81.5 -6.5t86.5 -20.5zM175 -210l43 161h130
l-61 -161h-112z" />
    <glyph glyph-name="egrave" unicode="&#xe8;" horiz-adv-x="566" 
d="M241 560l-122 151h182l75 -151h-135zM291 495q51 0 94 -15t74.5 -42.5t49.5 -66t19 -85.5q0 -17 -0.5 -28.5t-1.5 -21.5t-2.5 -21t-4.5 -26h-335q14 -38 48 -60.5t88 -22.5q29 0 69 6t101 19l19 -109q-57 -18 -104 -27.5t-89 -9.5q-69 0 -121 19.5t-87 54t-52.5 81
t-17.5 100.5q0 58 19.5 105t53.5 80.5t80 51.5t100 18zM294 387q-47 0 -76.5 -27t-39.5 -72h225q-2 45 -32 72t-77 27z" />
    <glyph glyph-name="eacute" unicode="&#xe9;" horiz-adv-x="566" 
d="M361 560h-135l76 151h182zM291 495q51 0 94 -15t74.5 -42.5t49.5 -66t19 -85.5q0 -17 -0.5 -28.5t-1.5 -21.5t-2.5 -21t-4.5 -26h-335q14 -38 48 -60.5t88 -22.5q29 0 69 6t101 19l19 -109q-57 -18 -104 -27.5t-89 -9.5q-69 0 -121 19.5t-87 54t-52.5 81t-17.5 100.5
q0 58 19.5 105t53.5 80.5t80 51.5t100 18zM294 387q-47 0 -76.5 -27t-39.5 -72h225q-2 45 -32 72t-77 27z" />
    <glyph glyph-name="ecircumflex" unicode="&#xea;" horiz-adv-x="566" 
d="M249 565h-133l120 137h121l119 -137h-133l-46 52zM291 495q51 0 94 -15t74.5 -42.5t49.5 -66t19 -85.5q0 -17 -0.5 -28.5t-1.5 -21.5t-2.5 -21t-4.5 -26h-335q14 -38 48 -60.5t88 -22.5q29 0 69 6t101 19l19 -109q-57 -18 -104 -27.5t-89 -9.5q-69 0 -121 19.5t-87 54
t-52.5 81t-17.5 100.5q0 58 19.5 105t53.5 80.5t80 51.5t100 18zM294 387q-47 0 -76.5 -27t-39.5 -72h225q-2 45 -32 72t-77 27z" />
    <glyph glyph-name="edieresis" unicode="&#xeb;" horiz-adv-x="566" 
d="M188 710q35 0 59.5 -23t24.5 -57q0 -35 -24.5 -58t-59.5 -23t-59.5 23t-24.5 58q0 34 24.5 57t59.5 23zM407 710q35 0 59 -23t24 -57q0 -35 -24 -58t-59 -23t-59.5 23t-24.5 58q0 34 24.5 57t59.5 23zM291 495q51 0 94 -15t74.5 -42.5t49.5 -66t19 -85.5
q0 -17 -0.5 -28.5t-1.5 -21.5t-2.5 -21t-4.5 -26h-335q14 -38 48 -60.5t88 -22.5q29 0 69 6t101 19l19 -109q-57 -18 -104 -27.5t-89 -9.5q-69 0 -121 19.5t-87 54t-52.5 81t-17.5 100.5q0 58 19.5 105t53.5 80.5t80 51.5t100 18zM294 387q-47 0 -76.5 -27t-39.5 -72h225
q-2 45 -32 72t-77 27z" />
    <glyph glyph-name="igrave" unicode="&#xec;" horiz-adv-x="269" 
d="M79 560l-122 151h182l75 -151h-135zM204 0h-139v479h139v-479z" />
    <glyph glyph-name="iacute" unicode="&#xed;" horiz-adv-x="269" 
d="M199 560h-135l76 151h182zM204 0h-139v479h139v-479z" />
    <glyph glyph-name="icircumflex" unicode="&#xee;" horiz-adv-x="269" 
d="M87 565h-133l120 137h121l119 -137h-133l-46 52zM204 0h-139v479h139v-479z" />
    <glyph glyph-name="idieresis" unicode="&#xef;" horiz-adv-x="269" 
d="M26 710q35 0 59.5 -23t24.5 -57q0 -35 -24.5 -58t-59.5 -23t-59.5 23t-24.5 58q0 34 24.5 57t59.5 23zM245 710q35 0 59 -23t24 -57q0 -35 -24 -58t-59 -23t-59.5 23t-24.5 58q0 34 24.5 57t59.5 23zM204 0h-139v479h139v-479z" />
    <glyph glyph-name="eth" unicode="&#xf0;" horiz-adv-x="615" 
d="M253 720q28 -11 54 -24.5t49 -30.5l99 36l31 -78l-54 -21q67 -61 106 -149.5t39 -188.5q0 -66 -20 -118.5t-56 -89t-85.5 -55.5t-107.5 -19q-59 0 -108.5 19t-85.5 53t-56 82t-20 107q0 58 20 105t54 81t79.5 52.5t96.5 18.5q16 0 29 -1.5t24 -4t22 -6.5t24 -9
q-25 24 -46 44t-40 32l-139 -50l-31 79l87 31q-22 13 -46 25.5t-50 24.5zM308 376q-28 0 -52 -9.5t-42 -27t-28 -42t-10 -54.5q0 -31 10 -56t28 -43t42 -28t52 -10q27 0 51 10t42 28t28 43t10 56q0 30 -10 54.5t-28 42t-42 27t-51 9.5z" />
    <glyph glyph-name="ntilde" unicode="&#xf1;" horiz-adv-x="620" 
d="M499 694q0 -50 -18 -80.5t-45 -45t-58 -13t-56 15.5l-46 27q-12 7 -20.5 7t-13 -4.5t-6.5 -12t-2 -14.5h-108q0 50 18 80.5t45 45t58 13.5t56 -15l46 -28q12 -7 20.5 -7t13 4.5t6.5 12t2 14.5h108zM355 494q45 0 82.5 -13t63.5 -37t40.5 -58t14.5 -76v-310h-138v269
q0 46 -27 72.5t-69 26.5q-26 0 -54.5 -2t-58.5 -5v-361h-139v471q23 3 57 7t73 7.5t79.5 6t75.5 2.5z" />
    <glyph glyph-name="ograve" unicode="&#xf2;" horiz-adv-x="617" 
d="M253 560l-122 151h182l75 -151h-135zM309 500q60 0 110 -18.5t85 -52.5t54.5 -81t19.5 -105q0 -59 -19.5 -107t-54.5 -82t-85 -53t-110 -19q-61 0 -111 19t-85.5 53t-55 82t-19.5 107q0 58 19.5 105t55 81t85.5 52.5t111 18.5zM309 106q60 0 96 37.5t36 99.5
q0 60 -36 96.5t-96 36.5t-96.5 -36.5t-36.5 -96.5q0 -62 36.5 -99.5t96.5 -37.5z" />
    <glyph glyph-name="oacute" unicode="&#xf3;" horiz-adv-x="617" 
d="M373 560h-135l76 151h182zM309 500q60 0 110 -18.5t85 -52.5t54.5 -81t19.5 -105q0 -59 -19.5 -107t-54.5 -82t-85 -53t-110 -19q-61 0 -111 19t-85.5 53t-55 82t-19.5 107q0 58 19.5 105t55 81t85.5 52.5t111 18.5zM309 106q60 0 96 37.5t36 99.5q0 60 -36 96.5
t-96 36.5t-96.5 -36.5t-36.5 -96.5q0 -62 36.5 -99.5t96.5 -37.5z" />
    <glyph glyph-name="ocircumflex" unicode="&#xf4;" horiz-adv-x="617" 
d="M261 565h-133l120 137h121l119 -137h-133l-46 52zM309 500q60 0 110 -18.5t85 -52.5t54.5 -81t19.5 -105q0 -59 -19.5 -107t-54.5 -82t-85 -53t-110 -19q-61 0 -111 19t-85.5 53t-55 82t-19.5 107q0 58 19.5 105t55 81t85.5 52.5t111 18.5zM309 106q60 0 96 37.5t36 99.5
q0 60 -36 96.5t-96 36.5t-96.5 -36.5t-36.5 -96.5q0 -62 36.5 -99.5t96.5 -37.5z" />
    <glyph glyph-name="otilde" unicode="&#xf5;" horiz-adv-x="617" 
d="M497 694q0 -50 -18 -80.5t-45 -45t-58 -13t-56 15.5l-46 27q-12 7 -20.5 7t-13 -4.5t-6.5 -12t-2 -14.5h-108q0 50 18 80.5t45 45t58 13.5t56 -15l46 -28q12 -7 20.5 -7t13 4.5t6.5 12t2 14.5h108zM309 500q60 0 110 -18.5t85 -52.5t54.5 -81t19.5 -105q0 -59 -19.5 -107
t-54.5 -82t-85 -53t-110 -19q-61 0 -111 19t-85.5 53t-55 82t-19.5 107q0 58 19.5 105t55 81t85.5 52.5t111 18.5zM309 106q60 0 96 37.5t36 99.5q0 60 -36 96.5t-96 36.5t-96.5 -36.5t-36.5 -96.5q0 -62 36.5 -99.5t96.5 -37.5z" />
    <glyph glyph-name="odieresis" unicode="&#xf6;" horiz-adv-x="617" 
d="M200 710q35 0 59.5 -23t24.5 -57q0 -35 -24.5 -58t-59.5 -23t-59.5 23t-24.5 58q0 34 24.5 57t59.5 23zM419 710q35 0 59 -23t24 -57q0 -35 -24 -58t-59 -23t-59.5 23t-24.5 58q0 34 24.5 57t59.5 23zM309 500q60 0 110 -18.5t85 -52.5t54.5 -81t19.5 -105
q0 -59 -19.5 -107t-54.5 -82t-85 -53t-110 -19q-61 0 -111 19t-85.5 53t-55 82t-19.5 107q0 58 19.5 105t55 81t85.5 52.5t111 18.5zM309 106q60 0 96 37.5t36 99.5q0 60 -36 96.5t-96 36.5t-96.5 -36.5t-36.5 -96.5q0 -62 36.5 -99.5t96.5 -37.5z" />
    <glyph glyph-name="divide" unicode="&#xf7;" horiz-adv-x="682" 
d="M341 452q-32 0 -55 21.5t-23 53.5t23 53.5t55 21.5t55.5 -21.5t23.5 -53.5t-23.5 -53.5t-55.5 -21.5zM583 393v-123h-484v123h484zM341 66q-32 0 -55 21.5t-23 53.5t23 54t55 22t55.5 -22t23.5 -54t-23.5 -53.5t-55.5 -21.5z" />
    <glyph glyph-name="oslash" unicode="&#xf8;" horiz-adv-x="617" 
d="M513 420q32 -34 48.5 -78.5t16.5 -98.5q0 -59 -19.5 -107t-54.5 -82t-85 -53t-110 -19q-76 0 -138 31l-48 -58l-70 59l46 55q-29 33 -45 77t-16 97q0 58 19.5 105t55 81t85.5 52.5t111 18.5q73 0 130 -27l50 60l70 -59zM176 243q0 -36 14 -66l162 193q-20 6 -43 6
q-60 0 -96.5 -36.5t-36.5 -96.5zM309 106q60 0 96 37.5t36 99.5q0 41 -17 70l-167 -198q24 -9 52 -9z" />
    <glyph glyph-name="ugrave" unicode="&#xf9;" horiz-adv-x="623" 
d="M255 560l-122 151h182l75 -151h-135zM556 10q-23 -4 -57.5 -8.5t-73.5 -8t-79 -5.5t-75 -2q-44 0 -81 10t-63.5 31.5t-41.5 56.5t-15 85v310h139v-277q0 -52 23.5 -75.5t71.5 -23.5q26 0 54.5 2t59.5 5v369h138v-469z" />
    <glyph glyph-name="uacute" unicode="&#xfa;" horiz-adv-x="623" 
d="M375 560h-135l76 151h182zM556 10q-23 -4 -57.5 -8.5t-73.5 -8t-79 -5.5t-75 -2q-44 0 -81 10t-63.5 31.5t-41.5 56.5t-15 85v310h139v-277q0 -52 23.5 -75.5t71.5 -23.5q26 0 54.5 2t59.5 5v369h138v-469z" />
    <glyph glyph-name="ucircumflex" unicode="&#xfb;" horiz-adv-x="623" 
d="M264 565h-133l120 137h121l119 -137h-133l-46 52zM556 10q-23 -4 -57.5 -8.5t-73.5 -8t-79 -5.5t-75 -2q-44 0 -81 10t-63.5 31.5t-41.5 56.5t-15 85v310h139v-277q0 -52 23.5 -75.5t71.5 -23.5q26 0 54.5 2t59.5 5v369h138v-469z" />
    <glyph glyph-name="udieresis" unicode="&#xfc;" horiz-adv-x="623" 
d="M202 710q35 0 59.5 -23t24.5 -57q0 -35 -24.5 -58t-59.5 -23t-59.5 23t-24.5 58q0 34 24.5 57t59.5 23zM421 710q35 0 59 -23t24 -57q0 -35 -24 -58t-59 -23t-59.5 23t-24.5 58q0 34 24.5 57t59.5 23zM556 10q-23 -4 -57.5 -8.5t-73.5 -8t-79 -5.5t-75 -2q-44 0 -81 10
t-63.5 31.5t-41.5 56.5t-15 85v310h139v-277q0 -52 23.5 -75.5t71.5 -23.5q26 0 54.5 2t59.5 5v369h138v-469z" />
    <glyph glyph-name="yacute" unicode="&#xfd;" horiz-adv-x="653" 
d="M259 561l75 151h182l-123 -151h-134zM295 -230h-156l125 264l-232 445h158l148 -288l136 288h156z" />
    <glyph glyph-name="thorn" unicode="&#xfe;" horiz-adv-x="629" 
d="M345 494q57 0 101 -18t74.5 -51t46.5 -79.5t18 -103.5q0 -59 -17.5 -106.5t-48 -81t-73 -51.5t-92.5 -18q-35 0 -67.5 0.5t-75.5 5.5v-222h-139v941h139v-222q55 6 134 6zM332 101q54 0 86 38.5t32 98.5q0 30 -6.5 56t-21.5 44.5t-39.5 29.5t-59.5 11q-33 0 -60.5 -2
t-51.5 -4v-264q43 -7 70.5 -7.5t50.5 -0.5z" />
    <glyph glyph-name="ydieresis" unicode="&#xff;" horiz-adv-x="653" 
d="M220 550q-35 0 -59 23t-24 58q0 34 24 57t59 23t59.5 -23t24.5 -57q0 -35 -24.5 -58t-59.5 -23zM439 550q-35 0 -59.5 23t-24.5 58q0 34 24.5 57t59.5 23t59 -23t24 -57q0 -35 -24 -58t-59 -23zM295 -230h-156l125 264l-232 445h158l148 -288l136 288h156z" />
    <glyph glyph-name="Amacron" unicode="&#x100;" horiz-adv-x="787" 
d="M555 766h-324v110h324v-110zM179 0h-161l308 684h135l307 -684h-161l-54 125h-320zM287 253h212l-106 247z" />
    <glyph glyph-name="amacron" unicode="&#x101;" horiz-adv-x="618" 
d="M459 574h-282v111h282v-111zM278 494q38 0 69 -1.5t62 -4.5t64.5 -7t77.5 -10v-471h-139v34q-30 -23 -65 -36t-80 -13q-50 0 -91.5 18t-72.5 51.5t-48 81t-17 106.5q1 57 17 103.5t46.5 79.5t75 51t101.5 18zM299 379q-35 0 -59 -11t-39 -29.5t-21.5 -44.5t-6.5 -56
q0 -60 31.5 -98.5t85.5 -38.5q30 0 60 10.5t62 36.5v225q-25 2 -52.5 4t-60.5 2z" />
    <glyph glyph-name="Abreve" unicode="&#x102;" horiz-adv-x="787" 
d="M556 902q0 -75 -44 -116t-119 -41t-119 41t-44 116h114q0 -29 13.5 -40.5t35.5 -11.5q20 0 33.5 11.5t13.5 40.5h116zM179 0h-161l308 684h135l307 -684h-161l-54 125h-320zM287 253h212l-106 247z" />
    <glyph glyph-name="abreve" unicode="&#x103;" horiz-adv-x="618" 
d="M481 712q0 -75 -44 -116t-119 -41t-119 41t-44 116h114q0 -29 13.5 -40.5t35.5 -11.5q20 0 33.5 11.5t13.5 40.5h116zM278 494q38 0 69 -1.5t62 -4.5t64.5 -7t77.5 -10v-471h-139v34q-30 -23 -65 -36t-80 -13q-50 0 -91.5 18t-72.5 51.5t-48 81t-17 106.5q1 57 17 103.5
t46.5 79.5t75 51t101.5 18zM299 379q-35 0 -59 -11t-39 -29.5t-21.5 -44.5t-6.5 -56q0 -60 31.5 -98.5t85.5 -38.5q30 0 60 10.5t62 36.5v225q-25 2 -52.5 4t-60.5 2z" />
    <glyph glyph-name="Aogonek" unicode="&#x104;" horiz-adv-x="787" 
d="M701 -78q11 0 20.5 1.5t23.5 4.5l13 -102q-10 -5 -31 -9t-44 -4q-67 0 -108 32t-41 86q0 26 16.5 49t48.5 40l-46 105h-320l-54 -125h-161l308 684h135l307 -684h-94q-17 -10 -22 -20t-5 -21q0 -18 12.5 -27.5t41.5 -9.5zM393 500l-106 -247h212z" />
    <glyph glyph-name="aogonek" unicode="&#x105;" horiz-adv-x="618" 
d="M574 -190q-10 -5 -31 -9t-44 -4q-67 0 -108 32t-41 86q0 26 15.5 48.5t46.5 38.5v32q-30 -23 -65 -36t-80 -13q-50 0 -91.5 18t-72.5 51.5t-48 81t-17 106.5q1 57 17 103.5t46.5 79.5t75 51t101.5 18q38 0 69 -1.5t62 -4.5t64.5 -7t77.5 -10v-471h-28q-37 -14 -48.5 -28
t-11.5 -29q0 -18 12.5 -27.5t41.5 -9.5q11 0 20.5 1.5t23.5 4.5zM290 101q30 0 60 10.5t62 36.5v225q-25 2 -52.5 4t-60.5 2q-35 0 -59 -11t-39 -29.5t-21.5 -44.5t-6.5 -56q0 -60 31.5 -98.5t85.5 -38.5z" />
    <glyph glyph-name="Cacute" unicode="&#x106;" horiz-adv-x="719" 
d="M502 748h-144l85 142h182zM644 529q-62 13 -109 20t-87 7q-60 0 -106 -16.5t-76.5 -45t-46 -67.5t-15.5 -85q0 -50 16.5 -91t47.5 -70t73.5 -45t95.5 -16q38 0 93.5 8.5t113.5 20.5l26 -127q-58 -17 -120.5 -27t-120.5 -10q-85 0 -155 25.5t-119.5 72t-76.5 112.5
t-27 146q0 79 27 144.5t76.5 112t119.5 72t155 25.5q63 0 123.5 -8.5t117.5 -22.5z" />
    <glyph glyph-name="cacute" unicode="&#x107;" horiz-adv-x="516" 
d="M357 559h-135l76 151h182zM462 363q-42 9 -76 14.5t-59 5.5q-72 0 -112 -39t-40 -102t40 -100.5t104 -37.5q24 0 63 5.5t81 15.5l18 -110q-41 -14 -86 -22t-86 -8q-60 0 -109.5 18t-85.5 52t-56 81.5t-20 106.5t20 106.5t56 80.5t86.5 51t112.5 18q36 0 81.5 -6.5
t86.5 -20.5z" />
    <glyph glyph-name="Cdotaccent" unicode="&#x10a;" horiz-adv-x="719" 
d="M422 738q-35 0 -59 22.5t-24 57.5q0 34 24 57t59 23t59 -23t24 -57q0 -35 -24 -57.5t-59 -22.5zM644 529q-62 13 -109 20t-87 7q-60 0 -106 -16.5t-76.5 -45t-46 -67.5t-15.5 -85q0 -50 16.5 -91t47.5 -70t73.5 -45t95.5 -16q38 0 93.5 8.5t113.5 20.5l26 -127
q-58 -17 -120.5 -27t-120.5 -10q-85 0 -155 25.5t-119.5 72t-76.5 112.5t-27 146q0 79 27 144.5t76.5 112t119.5 72t155 25.5q63 0 123.5 -8.5t117.5 -22.5z" />
    <glyph glyph-name="cdotaccent" unicode="&#x10b;" horiz-adv-x="516" 
d="M293 548q-35 0 -59.5 23t-24.5 58q0 34 24.5 57t59.5 23t59.5 -23t24.5 -57q0 -35 -24.5 -58t-59.5 -23zM462 363q-42 9 -76 14.5t-59 5.5q-72 0 -112 -39t-40 -102t40 -100.5t104 -37.5q24 0 63 5.5t81 15.5l18 -110q-41 -14 -86 -22t-86 -8q-60 0 -109.5 18t-85.5 52
t-56 81.5t-20 106.5t20 106.5t56 80.5t86.5 51t112.5 18q36 0 81.5 -6.5t86.5 -20.5z" />
    <glyph glyph-name="Ccaron" unicode="&#x10c;" horiz-adv-x="719" 
d="M362 736l-120 151h133l47 -61l47 61h133l-119 -151h-121zM644 529q-62 13 -109 20t-87 7q-60 0 -106 -16.5t-76.5 -45t-46 -67.5t-15.5 -85q0 -50 16.5 -91t47.5 -70t73.5 -45t95.5 -16q38 0 93.5 8.5t113.5 20.5l26 -127q-58 -17 -120.5 -27t-120.5 -10q-85 0 -155 25.5
t-119.5 72t-76.5 112.5t-27 146q0 79 27 144.5t76.5 112t119.5 72t155 25.5q63 0 123.5 -8.5t117.5 -22.5z" />
    <glyph glyph-name="ccaron" unicode="&#x10d;" horiz-adv-x="516" 
d="M232 559l-120 151h133l47 -61l47 61h133l-119 -151h-121zM462 363q-42 9 -76 14.5t-59 5.5q-72 0 -112 -39t-40 -102t40 -100.5t104 -37.5q24 0 63 5.5t81 15.5l18 -110q-41 -14 -86 -22t-86 -8q-60 0 -109.5 18t-85.5 52t-56 81.5t-20 106.5t20 106.5t56 80.5t86.5 51
t112.5 18q36 0 81.5 -6.5t86.5 -20.5z" />
    <glyph glyph-name="Dcaron" unicode="&#x10e;" horiz-adv-x="737" 
d="M274 736l-120 151h133l47 -61l47 61h133l-119 -151h-121zM323 689q80 0 147 -25t115 -70t75 -109t27 -142q0 -80 -26.5 -144.5t-73 -111t-109.5 -71.5t-135 -25q-37 0 -75.5 1t-74 2t-66 2.5t-50.5 3.5v680q20 1 48.5 2.5t61.5 3t68 2.5t68 1zM343 123q39 0 74.5 15.5
t61.5 44.5t41.5 69.5t15.5 90.5q0 48 -15.5 87.5t-44 67.5t-67.5 43.5t-85 15.5q-51 0 -103 -3v-428q30 -2 61.5 -2.5t60.5 -0.5z" />
    <glyph glyph-name="dcaron" unicode="&#x10f;" horiz-adv-x="620" 
d="M550 7q-57 -7 -98 -11t-73 -5.5t-58 -1.5h-53q-48 0 -90 16.5t-73 48.5t-49 79.5t-18 110.5q0 56 16 102t47 79t77.5 51t109.5 18q28 0 63 -3t60 -8v227h139v-703zM685 506h-103l5 204h137zM307 379q-38 0 -64 -10.5t-41.5 -28.5t-22 -42.5t-6.5 -53.5q0 -65 30.5 -104
t96.5 -39q12 0 40 1.5t71 6.5v259q-26 5 -55 8t-49 3z" />
    <glyph glyph-name="Dcroat" unicode="&#x110;" horiz-adv-x="737" 
d="M323 689q80 0 147 -25t115 -70t75 -109t27 -142q0 -80 -26.5 -144.5t-73 -111t-109.5 -71.5t-135 -25q-37 0 -75.5 1t-74 2t-66 2.5t-50.5 3.5v267h-52v131h52v282q20 1 48.5 2.5t61.5 3t68 2.5t68 1zM343 123q39 0 74.5 15.5t61.5 44.5t41.5 69.5t15.5 90.5
q0 48 -15.5 87.5t-44 67.5t-67.5 43.5t-85 15.5q-51 0 -103 -3v-156h128v-131h-128v-141q30 -2 61.5 -2.5t60.5 -0.5z" />
    <glyph glyph-name="dcroat" unicode="&#x111;" horiz-adv-x="620" 
d="M550 544v-537q-57 -7 -98 -11t-73 -5.5t-58 -1.5h-53q-48 0 -90 16.5t-73 48.5t-49 79.5t-18 110.5q0 56 16 102t47 79t77.5 51t109.5 18q28 0 63 -3t60 -8v61h-153v110h153v56h139v-56h34v-110h-34zM411 368q-26 5 -55 8t-49 3q-38 0 -64 -10.5t-41.5 -28.5t-22 -42.5
t-6.5 -53.5q0 -65 30.5 -104t96.5 -39q12 0 40 1.5t71 6.5v259z" />
    <glyph glyph-name="Emacron" unicode="&#x112;" horiz-adv-x="631" 
d="M486 766h-324v110h324v-110zM537 405v-130h-316v-144h360v-131h-504v680h504v-131h-360v-144h316z" />
    <glyph glyph-name="emacron" unicode="&#x113;" horiz-adv-x="566" 
d="M438 573h-282v111h282v-111zM291 495q51 0 94 -15t74.5 -42.5t49.5 -66t19 -85.5q0 -17 -0.5 -28.5t-1.5 -21.5t-2.5 -21t-4.5 -26h-335q14 -38 48 -60.5t88 -22.5q29 0 69 6t101 19l19 -109q-57 -18 -104 -27.5t-89 -9.5q-69 0 -121 19.5t-87 54t-52.5 81t-17.5 100.5
q0 58 19.5 105t53.5 80.5t80 51.5t100 18zM294 387q-47 0 -76.5 -27t-39.5 -72h225q-2 45 -32 72t-77 27z" />
    <glyph glyph-name="Edotaccent" unicode="&#x116;" horiz-adv-x="631" 
d="M324 738q-35 0 -59 22.5t-24 57.5q0 34 24 57t59 23t59 -23t24 -57q0 -35 -24 -57.5t-59 -22.5zM537 405v-130h-316v-144h360v-131h-504v680h504v-131h-360v-144h316z" />
    <glyph glyph-name="edotaccent" unicode="&#x117;" horiz-adv-x="566" 
d="M297 549q-35 0 -59.5 23t-24.5 58q0 34 24.5 57t59.5 23t59.5 -23t24.5 -57q0 -35 -24.5 -58t-59.5 -23zM291 495q51 0 94 -15t74.5 -42.5t49.5 -66t19 -85.5q0 -17 -0.5 -28.5t-1.5 -21.5t-2.5 -21t-4.5 -26h-335q14 -38 48 -60.5t88 -22.5q29 0 69 6t101 19l19 -109
q-57 -18 -104 -27.5t-89 -9.5q-69 0 -121 19.5t-87 54t-52.5 81t-17.5 100.5q0 58 19.5 105t53.5 80.5t80 51.5t100 18zM294 387q-47 0 -76.5 -27t-39.5 -72h225q-2 45 -32 72t-77 27z" />
    <glyph glyph-name="Eogonek" unicode="&#x118;" horiz-adv-x="631" 
d="M221 405h316v-130h-316v-144h360v-131h-68q-29 -13 -38.5 -25.5t-9.5 -26.5q0 -18 12.5 -27.5t41.5 -9.5q11 0 20.5 1.5t23.5 4.5l13 -102q-10 -5 -31 -9t-44 -4q-67 0 -108 32t-41 86q0 48 49 80h-324v680h504v-131h-360v-144z" />
    <glyph glyph-name="eogonek" unicode="&#x119;" horiz-adv-x="566" 
d="M528 286q0 -17 -0.5 -28.5t-1.5 -21.5t-2.5 -21t-4.5 -26h-335q14 -38 48 -60.5t88 -22.5q29 0 69 6t101 19l19 -109q-12 -4 -24 -7.5t-23 -6.5q-39 -14 -51 -28.5t-12 -29.5q0 -18 12.5 -27.5t41.5 -9.5q11 0 20.5 1.5t23.5 4.5l13 -102q-10 -5 -31 -9t-44 -4
q-67 0 -108 32t-41 86q0 36 28 63q-69 0 -120.5 20t-86 54.5t-52 81t-17.5 99.5q0 58 19.5 105t53.5 80.5t80 51.5t100 18q51 0 94 -15t74.5 -42.5t49.5 -66t19 -85.5zM403 288q-2 45 -32 72t-77 27t-76.5 -27t-39.5 -72h225z" />
    <glyph glyph-name="Ecaron" unicode="&#x11a;" horiz-adv-x="631" 
d="M264 736l-120 151h133l47 -61l47 61h133l-119 -151h-121zM537 405v-130h-316v-144h360v-131h-504v680h504v-131h-360v-144h316z" />
    <glyph glyph-name="ecaron" unicode="&#x11b;" horiz-adv-x="566" 
d="M236 560l-120 151h133l47 -61l47 61h133l-119 -151h-121zM291 495q51 0 94 -15t74.5 -42.5t49.5 -66t19 -85.5q0 -17 -0.5 -28.5t-1.5 -21.5t-2.5 -21t-4.5 -26h-335q14 -38 48 -60.5t88 -22.5q29 0 69 6t101 19l19 -109q-57 -18 -104 -27.5t-89 -9.5q-69 0 -121 19.5
t-87 54t-52.5 81t-17.5 100.5q0 58 19.5 105t53.5 80.5t80 51.5t100 18zM294 387q-47 0 -76.5 -27t-39.5 -72h225q-2 45 -32 72t-77 27z" />
    <glyph glyph-name="Gbreve" unicode="&#x11e;" horiz-adv-x="794" 
d="M580 902q0 -75 -44 -116t-119 -41t-119 41t-44 116h114q0 -29 13.5 -40.5t35.5 -11.5q20 0 33.5 11.5t13.5 40.5h116zM731 59q-86 -35 -164.5 -54.5t-150.5 -19.5q-82 0 -149.5 25.5t-115.5 72.5t-74 113t-26 147q0 79 27.5 144t77.5 111t120 71.5t156 25.5
q52 0 113.5 -7t125.5 -23l-28 -133q-73 12 -121.5 18.5t-77.5 6.5q-54 0 -98.5 -15.5t-76 -43.5t-49 -67.5t-17.5 -87.5q0 -49 15.5 -89.5t43 -69t67 -44.5t87.5 -16q42 0 91 7.5t91 18.5v120h-231v129h364v-340z" />
    <glyph glyph-name="gbreve" unicode="&#x11f;" horiz-adv-x="614" 
d="M479 711q0 -75 -44 -116t-119 -41t-119 41t-44 116h114q0 -29 13.5 -40.5t35.5 -11.5q20 0 33.5 11.5t13.5 40.5h116zM278 494q55 0 96.5 -3t73 -6.5t56 -7.5t47.5 -6v-462q0 -58 -17.5 -106.5t-52.5 -84t-87.5 -55t-122.5 -19.5q-38 0 -84 9t-87 20l21 112
q43 -7 79.5 -13t65.5 -6q69 0 106 34.5t40 99.5q-44 -5 -76 -5.5t-67 -0.5q-50 0 -92.5 18t-73.5 50.5t-48 78t-17 101.5q0 57 16 103.5t47 79.5t75.5 51t101.5 18zM299 379q-35 0 -59 -11t-39 -29.5t-21.5 -44.5t-6.5 -56q0 -27 8.5 -50t23.5 -40.5t36.5 -27.5t48.5 -10
q23 0 50.5 0.5t71.5 7.5v255q-25 2 -52.5 4t-60.5 2z" />
    <glyph glyph-name="Gdotaccent" unicode="&#x120;" horiz-adv-x="794" 
d="M417 738q-35 0 -59 22.5t-24 57.5q0 34 24 57t59 23t59 -23t24 -57q0 -35 -24 -57.5t-59 -22.5zM731 59q-86 -35 -164.5 -54.5t-150.5 -19.5q-82 0 -149.5 25.5t-115.5 72.5t-74 113t-26 147q0 79 27.5 144t77.5 111t120 71.5t156 25.5q52 0 113.5 -7t125.5 -23l-28 -133
q-73 12 -121.5 18.5t-77.5 6.5q-54 0 -98.5 -15.5t-76 -43.5t-49 -67.5t-17.5 -87.5q0 -49 15.5 -89.5t43 -69t67 -44.5t87.5 -16q42 0 91 7.5t91 18.5v120h-231v129h364v-340z" />
    <glyph glyph-name="gdotaccent" unicode="&#x121;" horiz-adv-x="614" 
d="M316 549q-35 0 -59.5 23t-24.5 58q0 34 24.5 57t59.5 23t59.5 -23t24.5 -57q0 -35 -24.5 -58t-59.5 -23zM278 494q55 0 96.5 -3t73 -6.5t56 -7.5t47.5 -6v-462q0 -58 -17.5 -106.5t-52.5 -84t-87.5 -55t-122.5 -19.5q-38 0 -84 9t-87 20l21 112q43 -7 79.5 -13t65.5 -6
q69 0 106 34.5t40 99.5q-44 -5 -76 -5.5t-67 -0.5q-50 0 -92.5 18t-73.5 50.5t-48 78t-17 101.5q0 57 16 103.5t47 79.5t75.5 51t101.5 18zM299 379q-35 0 -59 -11t-39 -29.5t-21.5 -44.5t-6.5 -56q0 -27 8.5 -50t23.5 -40.5t36.5 -27.5t48.5 -10q23 0 50.5 0.5t71.5 7.5
v255q-25 2 -52.5 4t-60.5 2z" />
    <glyph glyph-name="uni0122" unicode="&#x122;" horiz-adv-x="794" 
d="M731 59q-86 -35 -164.5 -54.5t-150.5 -19.5q-82 0 -149.5 25.5t-115.5 72.5t-74 113t-26 147q0 79 27.5 144t77.5 111t120 71.5t156 25.5q52 0 113.5 -7t125.5 -23l-28 -133q-73 12 -121.5 18.5t-77.5 6.5q-54 0 -98.5 -15.5t-76 -43.5t-49 -67.5t-17.5 -87.5
q0 -49 15.5 -89.5t43 -69t67 -44.5t87.5 -16q42 0 91 7.5t91 18.5v120h-231v129h364v-340zM377 -179q-45 20 -45 62q0 30 22.5 50.5t53.5 20.5q32 0 54 -20.5t22 -50.5q0 -11 -2 -19.5t-9.5 -22.5t-21.5 -36.5t-38 -60.5h-74z" />
    <glyph glyph-name="uni0123" unicode="&#x123;" horiz-adv-x="614" 
d="M349 701q45 -20 45 -62q0 -30 -22.5 -50.5t-53.5 -20.5q-32 0 -54 20.5t-22 50.5q0 10 2 19t9.5 23t21.5 36.5t38 60.5h74zM278 494q55 0 96.5 -3t73 -6.5t56 -7.5t47.5 -6v-462q0 -58 -17.5 -106.5t-52.5 -84t-87.5 -55t-122.5 -19.5q-38 0 -84 9t-87 20l21 112
q43 -7 79.5 -13t65.5 -6q69 0 106 34.5t40 99.5q-44 -5 -76 -5.5t-67 -0.5q-50 0 -92.5 18t-73.5 50.5t-48 78t-17 101.5q0 57 16 103.5t47 79.5t75.5 51t101.5 18zM299 379q-35 0 -59 -11t-39 -29.5t-21.5 -44.5t-6.5 -56q0 -27 8.5 -50t23.5 -40.5t36.5 -27.5t48.5 -10
q23 0 50.5 0.5t71.5 7.5v255q-25 2 -52.5 4t-60.5 2z" />
    <glyph glyph-name="Hbar" unicode="&#x126;" horiz-adv-x="759" 
d="M683 480v-480h-144v266h-318v-266h-144v480h-41v112h41v88h144v-88h318v88h144v-88h39v-112h-39zM221 480v-82h318v82h-318z" />
    <glyph glyph-name="hbar" unicode="&#x127;" horiz-adv-x="622" 
d="M357 494q45 0 82.5 -13t63.5 -37t40.5 -58t14.5 -76v-310h-138v269q0 46 -27 72.5t-69 26.5q-26 0 -54.5 -3.5t-58.5 -8.5v-356h-139v577h-45v93h45v40h139v-40h116v-93h-116v-95q38 5 76 8.5t70 3.5z" />
    <glyph glyph-name="Imacron" unicode="&#x12a;" horiz-adv-x="297" 
d="M310 766h-324v110h324v-110zM220 0h-144v680h144v-680z" />
    <glyph glyph-name="imacron" unicode="&#x12b;" horiz-adv-x="269" 
d="M276 573h-282v111h282v-111zM204 0h-139v479h139v-479z" />
    <glyph glyph-name="Iogonek" unicode="&#x12e;" horiz-adv-x="297" 
d="M233 -177q-10 -5 -31 -9t-44 -4q-67 0 -108 32t-41 86q0 56 67 90v662h144v-680h-66q-20 -11 -26 -22t-6 -22q0 -18 12.5 -27.5t41.5 -9.5q11 0 20.5 1.5t23.5 4.5z" />
    <glyph glyph-name="iogonek" unicode="&#x12f;" horiz-adv-x="269" 
d="M135 549q-35 0 -59.5 23t-24.5 58q0 34 24.5 57t59.5 23t59.5 -23t24.5 -57q0 -35 -24.5 -58t-59.5 -23zM155 -88q11 0 20.5 1.5t23.5 4.5l13 -102q-10 -5 -31 -9t-44 -4q-67 0 -108 32t-41 86q0 29 19.5 53.5t57.5 40.5v464h139v-479h-57q-29 -13 -37.5 -25t-8.5 -26
q0 -18 12.5 -27.5t41.5 -9.5z" />
    <glyph glyph-name="Idotaccent" unicode="&#x130;" horiz-adv-x="297" 
d="M148 743q-19 0 -36 7t-29.5 19t-19.5 28t-7 35t7 35t19.5 28t29.5 19t36 7t36 -7t29.5 -19t19.5 -28t7 -35t-7 -35t-19.5 -28t-29.5 -19t-36 -7zM220 0h-144v680h144v-680z" />
    <glyph glyph-name="dotlessi" unicode="&#x131;" horiz-adv-x="269" 
d="M204 0h-139v479h139v-479z" />
    <glyph glyph-name="IJ" unicode="&#x132;" horiz-adv-x="858" 
d="M220 0h-144v680h144v-680zM792 270q0 -67 -18 -120t-50.5 -89.5t-78.5 -56t-103 -19.5q-32 0 -59 2t-54 7t-56 12.5t-65 18.5l26 128q37 -9 65 -14.5t51.5 -8.5t44.5 -4.5t45 -1.5q45 0 75 37.5t30 106.5v412h147v-410z" />
    <glyph glyph-name="ij" unicode="&#x133;" horiz-adv-x="564" 
d="M134 545q-37 0 -63 24.5t-26 62.5q0 19 7 35.5t19 28.5t28.5 18.5t34.5 6.5t34.5 -6.5t28.5 -18.5t19 -28.5t7 -35.5q0 -38 -26 -62.5t-63 -24.5zM421 721q18 0 34.5 -6.5t29 -18.5t19.5 -28.5t7 -35.5q0 -38 -26.5 -62.5t-63.5 -24.5t-63.5 24.5t-26.5 62.5q0 19 7 35.5
t19.5 28.5t29 18.5t34.5 6.5zM204 0h-139v479h139v-479zM491 -3q0 -58 -9 -103t-34.5 -76.5t-71 -49t-117.5 -18.5l-11 120q34 -1 54.5 5.5t31.5 20.5t14.5 35t3.5 49v499h139v-482z" />
    <glyph glyph-name="uni0136" unicode="&#x136;" horiz-adv-x="713" 
d="M221 0h-144v680h144v-299h44l242 299h178l-257 -317l267 -363h-177l-178 240h-119v-240zM308 -179q-45 20 -45 62q0 30 22.5 50.5t53.5 20.5q32 0 54 -20.5t22 -50.5q0 -11 -2 -19.5t-9.5 -22.5t-21.5 -36.5t-38 -60.5h-74z" />
    <glyph glyph-name="uni0137" unicode="&#x137;" horiz-adv-x="590" 
d="M238 307l155 172h167l-181 -200l192 -279h-161l-124 178h-77v-178h-139v710h139v-403h29zM258 -179q-45 19 -45 62q0 30 22.5 50.5t53.5 20.5q32 0 54 -20.5t22 -50.5q0 -11 -2 -19.5t-9.5 -22.5t-21.5 -36.5t-38 -60.5h-74z" />
    <glyph glyph-name="Lacute" unicode="&#x139;" horiz-adv-x="598" 
d="M232 748h-144l85 142h182zM77 0v680h144v-551h347v-129h-491z" />
    <glyph glyph-name="lacute" unicode="&#x13a;" horiz-adv-x="282" 
d="M206 759h-135l76 150h181zM211 0h-139v710h139v-710z" />
    <glyph glyph-name="uni013B" unicode="&#x13b;" horiz-adv-x="598" 
d="M77 0v680h144v-551h347v-129h-491zM286 -179q-45 20 -45 62q0 30 22.5 50.5t53.5 20.5q32 0 54 -20.5t22 -50.5q0 -11 -2 -19.5t-9.5 -22.5t-21.5 -36.5t-38 -60.5h-74z" />
    <glyph glyph-name="uni013C" unicode="&#x13c;" horiz-adv-x="283" 
d="M211 0h-139v710h139v-710zM106 -179q-45 19 -45 62q0 30 22.5 50.5t53.5 20.5q32 0 54 -20.5t22 -50.5q0 -11 -2 -19.5t-9.5 -22.5t-21.5 -36.5t-38 -60.5h-74z" />
    <glyph glyph-name="Lcaron" unicode="&#x13d;" horiz-adv-x="598" 
d="M77 0v680h144v-551h347v-129h-491zM404 476h-103l5 204h137z" />
    <glyph glyph-name="lcaron" unicode="&#x13e;" horiz-adv-x="283" 
d="M211 0h-139v710h139v-710zM344 506h-103l5 204h137z" />
    <glyph glyph-name="Ldot" unicode="&#x13f;" horiz-adv-x="598" 
d="M77 0v680h144v-551h347v-129h-491zM398 245q-35 0 -59 23t-24 57q0 35 24 58t59 23t59.5 -23t24.5 -58q0 -34 -24.5 -57t-59.5 -23z" />
    <glyph glyph-name="ldot" unicode="&#x140;" horiz-adv-x="406" 
d="M211 0h-139v710h139v-710zM341 253q-35 0 -59.5 23t-24.5 58q0 34 24.5 57t59.5 23t59 -23t24 -57q0 -35 -24 -58t-59 -23z" />
    <glyph glyph-name="Lslash" unicode="&#x141;" horiz-adv-x="598" 
d="M568 0h-491v221l-68 -26v118l68 26v341h144v-285l149 57v-118l-149 -57v-148h347v-129z" />
    <glyph glyph-name="lslash" unicode="&#x142;" horiz-adv-x="283" 
d="M211 312v-312h-139v257l-60 -24v118l60 24v335h139v-280l61 24v-118z" />
    <glyph glyph-name="Nacute" unicode="&#x143;" horiz-adv-x="777" 
d="M460 748h-144l85 142h182zM701 0h-135l-345 434v-434h-144v680h133l347 -438v438h144v-680z" />
    <glyph glyph-name="nacute" unicode="&#x144;" horiz-adv-x="620" 
d="M374 560h-135l76 151h182zM355 494q45 0 82.5 -13t63.5 -37t40.5 -58t14.5 -76v-310h-138v269q0 46 -27 72.5t-69 26.5q-26 0 -54.5 -2t-58.5 -5v-361h-139v471q23 3 57 7t73 7.5t79.5 6t75.5 2.5z" />
    <glyph glyph-name="uni0145" unicode="&#x145;" horiz-adv-x="777" 
d="M701 0h-135l-345 434v-434h-144v680h133l347 -438v438h144v-680zM350 -188q-45 20 -45 62q0 30 22.5 50.5t53.5 20.5q32 0 54 -20.5t22 -50.5q0 -11 -2 -19.5t-9.5 -22.5t-21.5 -36.5t-38 -60.5h-74z" />
    <glyph glyph-name="uni0146" unicode="&#x146;" horiz-adv-x="620" 
d="M355 494q45 0 82.5 -13t63.5 -37t40.5 -58t14.5 -76v-310h-138v269q0 46 -27 72.5t-69 26.5q-26 0 -54.5 -2t-58.5 -5v-361h-139v471q23 3 57 7t73 7.5t79.5 6t75.5 2.5zM275 -179q-45 19 -45 62q0 30 22.5 50.5t53.5 20.5q32 0 54 -20.5t22 -50.5q0 -11 -2 -19.5
t-9.5 -22.5t-21.5 -36.5t-38 -60.5h-74z" />
    <glyph glyph-name="Ncaron" unicode="&#x147;" horiz-adv-x="777" 
d="M320 736l-120 151h133l47 -61l47 61h133l-119 -151h-121zM701 0h-135l-345 434v-434h-144v680h133l347 -438v438h144v-680z" />
    <glyph glyph-name="ncaron" unicode="&#x148;" horiz-adv-x="620" 
d="M250 560l-120 151h133l47 -61l47 61h133l-119 -151h-121zM355 494q45 0 82.5 -13t63.5 -37t40.5 -58t14.5 -76v-310h-138v269q0 46 -27 72.5t-69 26.5q-26 0 -54.5 -2t-58.5 -5v-361h-139v471q23 3 57 7t73 7.5t79.5 6t75.5 2.5z" />
    <glyph glyph-name="Omacron" unicode="&#x14c;" horiz-adv-x="830" 
d="M577 766h-324v110h324v-110zM415 695q80 0 147 -25.5t115.5 -72t75.5 -112t27 -145.5t-27 -145.5t-75.5 -112t-115.5 -72t-147 -25.5t-146.5 25.5t-115 72t-75.5 112t-27 145.5t27 145.5t75.5 112t115 72t146.5 25.5zM415 120q46 0 85.5 16t68 44.5t44.5 69t16 90.5
q0 49 -16 89.5t-44.5 69.5t-68 44.5t-85.5 15.5t-85 -15.5t-67.5 -44.5t-44.5 -69.5t-16 -89.5q0 -50 16 -90.5t44.5 -69t67.5 -44.5t85 -16z" />
    <glyph glyph-name="omacron" unicode="&#x14d;" horiz-adv-x="617" 
d="M450 573h-282v111h282v-111zM309 500q60 0 110 -18.5t85 -52.5t54.5 -81t19.5 -105q0 -59 -19.5 -107t-54.5 -82t-85 -53t-110 -19q-61 0 -111 19t-85.5 53t-55 82t-19.5 107q0 58 19.5 105t55 81t85.5 52.5t111 18.5zM309 106q60 0 96 37.5t36 99.5q0 60 -36 96.5
t-96 36.5t-96.5 -36.5t-36.5 -96.5q0 -62 36.5 -99.5t96.5 -37.5z" />
    <glyph glyph-name="Ohungarumlaut" unicode="&#x150;" horiz-adv-x="830" 
d="M397 749h-119l39 142h132zM560 749h-119l39 142h132zM415 695q80 0 147 -25.5t115.5 -72t75.5 -112t27 -145.5t-27 -145.5t-75.5 -112t-115.5 -72t-147 -25.5t-146.5 25.5t-115 72t-75.5 112t-27 145.5t27 145.5t75.5 112t115 72t146.5 25.5zM415 120q46 0 85.5 16
t68 44.5t44.5 69t16 90.5q0 49 -16 89.5t-44.5 69.5t-68 44.5t-85.5 15.5t-85 -15.5t-67.5 -44.5t-44.5 -69.5t-16 -89.5q0 -50 16 -90.5t44.5 -69t67.5 -44.5t85 -16z" />
    <glyph glyph-name="ohungarumlaut" unicode="&#x151;" horiz-adv-x="617" 
d="M291 560h-120l39 144h134zM455 560h-120l40 144h133zM309 500q60 0 110 -18.5t85 -52.5t54.5 -81t19.5 -105q0 -59 -19.5 -107t-54.5 -82t-85 -53t-110 -19q-61 0 -111 19t-85.5 53t-55 82t-19.5 107q0 58 19.5 105t55 81t85.5 52.5t111 18.5zM309 106q60 0 96 37.5
t36 99.5q0 60 -36 96.5t-96 36.5t-96.5 -36.5t-36.5 -96.5q0 -62 36.5 -99.5t96.5 -37.5z" />
    <glyph glyph-name="OE" unicode="&#x152;" horiz-adv-x="998" 
d="M905 405v-130h-316v-144h359v-131h-503q-84 0 -156 23.5t-125 67.5t-83 106.5t-30 142.5q0 79 30 142t83 107t125 67.5t156 23.5h503v-131h-359v-144h316zM202 340q0 -99 64 -151.5t179 -53.5v409q-115 -1 -179 -53t-64 -151z" />
    <glyph glyph-name="oe" unicode="&#x153;" horiz-adv-x="970" 
d="M931 286q0 -17 -0.5 -28.5t-1 -21.5t-2 -21t-4.5 -26h-335q14 -38 48 -60.5t88 -22.5q29 0 69 6t101 19l19 -109q-57 -18 -104 -27.5t-89 -9.5q-70 0 -122.5 20.5t-87.5 55.5q-35 -38 -86.5 -58.5t-114.5 -20.5q-61 0 -111 19t-85.5 53t-55 82t-19.5 107q0 58 19.5 105
t55 81t85.5 52.5t111 18.5q64 0 115.5 -20t86.5 -58q34 35 81 54t103 19q51 0 94 -15t74.5 -42.5t49.5 -66t18 -85.5zM808 288q-2 45 -32.5 72t-77.5 27t-76.5 -27t-39.5 -72h226zM309 106q60 0 96 37.5t36 99.5q0 60 -36 96.5t-96 36.5t-96.5 -36.5t-36.5 -96.5
q0 -62 36.5 -99.5t96.5 -37.5z" />
    <glyph glyph-name="Racute" unicode="&#x154;" horiz-adv-x="676" 
d="M389 748h-144l85 142h182zM301 208h-80v-208h-144v680q20 1 51 2t67 2t73.5 1.5t70.5 0.5q63 0 114.5 -15.5t87.5 -45.5t56 -74t20 -102q0 -69 -34 -121.5t-94 -84.5l172 -243h-174l-140 208h-46zM351 334q27 0 49.5 8.5t39.5 23.5t26.5 36t9.5 47q0 57 -37 82.5
t-97 25.5h-59.5t-61.5 -1v-222h130z" />
    <glyph glyph-name="racute" unicode="&#x155;" horiz-adv-x="408" 
d="M289 560h-135l76 151h182zM379 358q-44 0 -86 -1t-84 -5v-352h-139v463q33 6 72.5 11.5t80.5 10t81 7t75 2.5v-136z" />
    <glyph glyph-name="uni0156" unicode="&#x156;" horiz-adv-x="676" 
d="M301 208h-80v-208h-144v680q20 1 51 2t67 2t73.5 1.5t70.5 0.5q63 0 114.5 -15.5t87.5 -45.5t56 -74t20 -102q0 -69 -34 -121.5t-94 -84.5l172 -243h-174l-140 208h-46zM351 334q27 0 49.5 8.5t39.5 23.5t26.5 36t9.5 47q0 57 -37 82.5t-97 25.5h-59.5t-61.5 -1v-222h130
zM308 -179q-45 20 -45 62q0 30 22.5 50.5t53.5 20.5q32 0 54 -20.5t22 -50.5q0 -11 -2 -19.5t-9.5 -22.5t-21.5 -36.5t-38 -60.5h-74z" />
    <glyph glyph-name="uni0157" unicode="&#x157;" horiz-adv-x="408" 
d="M379 358q-44 0 -86 -1t-84 -5v-352h-139v463q33 6 72.5 11.5t80.5 10t81 7t75 2.5v-136zM107 -179q-45 19 -45 62q0 30 22.5 50.5t53.5 20.5q32 0 54 -20.5t22 -50.5q0 -11 -2 -19.5t-9.5 -22.5t-21.5 -36.5t-38 -60.5h-74z" />
    <glyph glyph-name="Rcaron" unicode="&#x158;" horiz-adv-x="676" 
d="M249 736l-120 151h133l47 -61l47 61h133l-119 -151h-121zM301 208h-80v-208h-144v680q20 1 51 2t67 2t73.5 1.5t70.5 0.5q63 0 114.5 -15.5t87.5 -45.5t56 -74t20 -102q0 -69 -34 -121.5t-94 -84.5l172 -243h-174l-140 208h-46zM351 334q27 0 49.5 8.5t39.5 23.5t26.5 36
t9.5 47q0 57 -37 82.5t-97 25.5h-59.5t-61.5 -1v-222h130z" />
    <glyph glyph-name="rcaron" unicode="&#x159;" horiz-adv-x="408" 
d="M165 560l-120 151h133l47 -61l47 61h133l-119 -151h-121zM379 358q-44 0 -86 -1t-84 -5v-352h-139v463q33 6 72.5 11.5t80.5 10t81 7t75 2.5v-136z" />
    <glyph glyph-name="Sacute" unicode="&#x15a;" horiz-adv-x="678" 
d="M425 748h-144l85 142h182zM568 515q-66 20 -128 32.5t-107 12.5q-51 0 -80 -17.5t-29 -55.5q0 -20 11.5 -33t32.5 -22t52 -16t70 -15q55 -11 98 -26t72.5 -37.5t45 -55.5t15.5 -80q0 -56 -20.5 -96.5t-57.5 -67.5t-88.5 -40t-112.5 -13q-60 0 -136 13t-154 45l34 133
q78 -32 144.5 -44.5t114.5 -13.5q59 0 93.5 16.5t34.5 54.5q0 25 -15.5 40t-41.5 25t-59.5 16.5t-68.5 13.5q-56 12 -97 27.5t-68 38.5t-40 55t-13 76q0 48 19 86.5t53.5 65.5t84 41.5t109.5 14.5q37 0 74.5 -4t72.5 -10.5t66 -14.5t54 -17z" />
    <glyph glyph-name="sacute" unicode="&#x15b;" horiz-adv-x="529" 
d="M331 559h-135l76 151h182zM74 138q62 -23 111 -32.5t83 -9.5q36 0 59.5 8.5t23.5 28.5q0 14 -11.5 23t-30 14.5t-41.5 9t-45 8.5q-83 16 -124 48.5t-41 95.5q0 76 56 118t153 42q27 0 55.5 -3t55 -8t50 -11.5t41.5 -13.5l-31 -105q-51 14 -97.5 23.5t-78.5 9.5
q-33 0 -51 -11t-18 -30q0 -14 9 -22t25.5 -13.5t38.5 -9.5t48 -9q41 -8 72.5 -19t52.5 -27t31.5 -39.5t10.5 -57.5q0 -42 -16 -72t-44.5 -50t-68.5 -29.5t-88 -9.5q-43 0 -99.5 9t-117.5 33z" />
    <glyph glyph-name="Scedilla" unicode="&#x15e;" horiz-adv-x="678" 
d="M568 515q-66 20 -128 32.5t-107 12.5q-51 0 -80 -17.5t-29 -55.5q0 -20 11.5 -33t32.5 -22t52 -16t70 -15q55 -11 98 -26t72.5 -37.5t45 -55.5t15.5 -80q0 -56 -20.5 -96.5t-57.5 -67.5t-88.5 -40t-112.5 -13q-60 0 -136 13t-154 45l34 133q78 -32 144.5 -44.5
t114.5 -13.5q59 0 93.5 16.5t34.5 54.5q0 25 -15.5 40t-41.5 25t-59.5 16.5t-68.5 13.5q-56 12 -97 27.5t-68 38.5t-40 55t-13 76q0 48 19 86.5t53.5 65.5t84 41.5t109.5 14.5q37 0 74.5 -4t72.5 -10.5t66 -14.5t54 -17zM226 -210l43 161h130l-61 -161h-112z" />
    <glyph glyph-name="scedilla" unicode="&#x15f;" horiz-adv-x="529" 
d="M74 138q62 -23 111 -32.5t83 -9.5q36 0 59.5 8.5t23.5 28.5q0 14 -11.5 23t-30 14.5t-41.5 9t-45 8.5q-83 16 -124 48.5t-41 95.5q0 76 56 118t153 42q27 0 55.5 -3t55 -8t50 -11.5t41.5 -13.5l-31 -105q-51 14 -97.5 23.5t-78.5 9.5q-33 0 -51 -11t-18 -30q0 -14 9 -22
t25.5 -13.5t38.5 -9.5t48 -9q41 -8 72.5 -19t52.5 -27t31.5 -39.5t10.5 -57.5q0 -42 -16 -72t-44.5 -50t-68.5 -29.5t-88 -9.5q-43 0 -99.5 9t-117.5 33zM163 -210l43 161h130l-61 -161h-112z" />
    <glyph glyph-name="Scaron" unicode="&#x160;" horiz-adv-x="678" 
d="M284 736l-120 151h133l47 -61l47 61h133l-119 -151h-121zM568 515q-66 20 -128 32.5t-107 12.5q-51 0 -80 -17.5t-29 -55.5q0 -20 11.5 -33t32.5 -22t52 -16t70 -15q55 -11 98 -26t72.5 -37.5t45 -55.5t15.5 -80q0 -56 -20.5 -96.5t-57.5 -67.5t-88.5 -40t-112.5 -13
q-60 0 -136 13t-154 45l34 133q78 -32 144.5 -44.5t114.5 -13.5q59 0 93.5 16.5t34.5 54.5q0 25 -15.5 40t-41.5 25t-59.5 16.5t-68.5 13.5q-56 12 -97 27.5t-68 38.5t-40 55t-13 76q0 48 19 86.5t53.5 65.5t84 41.5t109.5 14.5q37 0 74.5 -4t72.5 -10.5t66 -14.5t54 -17z
" />
    <glyph glyph-name="scaron" unicode="&#x161;" horiz-adv-x="529" 
d="M206 559l-120 151h133l47 -61l47 61h133l-119 -151h-121zM74 138q62 -23 111 -32.5t83 -9.5q36 0 59.5 8.5t23.5 28.5q0 14 -11.5 23t-30 14.5t-41.5 9t-45 8.5q-83 16 -124 48.5t-41 95.5q0 76 56 118t153 42q27 0 55.5 -3t55 -8t50 -11.5t41.5 -13.5l-31 -105
q-51 14 -97.5 23.5t-78.5 9.5q-33 0 -51 -11t-18 -30q0 -14 9 -22t25.5 -13.5t38.5 -9.5t48 -9q41 -8 72.5 -19t52.5 -27t31.5 -39.5t10.5 -57.5q0 -42 -16 -72t-44.5 -50t-68.5 -29.5t-88 -9.5q-43 0 -99.5 9t-117.5 33z" />
    <glyph glyph-name="Tcaron" unicode="&#x164;" horiz-adv-x="677" 
d="M279 736l-120 151h133l47 -61l47 61h133l-119 -151h-121zM411 0h-144v548h-238v132h620v-132h-238v-548z" />
    <glyph glyph-name="tcaron" unicode="&#x165;" horiz-adv-x="465" 
d="M394 527h-103l5 204h137zM439 1q-18 -4 -32.5 -7t-30 -5t-33 -3t-41.5 -1q-88 0 -136 50t-48 144v176h-99v124h99v171h139v-171h152v-124h-152v-162q0 -40 17 -62t59 -22q21 0 42.5 1.5t50.5 5.5z" />
    <glyph glyph-name="Umacron" unicode="&#x16a;" horiz-adv-x="757" 
d="M541 766h-324v110h324v-110zM690 299q0 -74 -22 -132t-63 -98.5t-98.5 -62t-128.5 -21.5q-70 0 -127.5 21.5t-98 62t-63 98.5t-22.5 132v381h145v-381q0 -85 45.5 -132t120.5 -47q76 0 122 47t46 132v381h144v-381z" />
    <glyph glyph-name="umacron" unicode="&#x16b;" horiz-adv-x="623" 
d="M452 573h-282v111h282v-111zM556 10q-23 -4 -57.5 -8.5t-73.5 -8t-79 -5.5t-75 -2q-44 0 -81 10t-63.5 31.5t-41.5 56.5t-15 85v310h139v-277q0 -52 23.5 -75.5t71.5 -23.5q26 0 54.5 2t59.5 5v369h138v-469z" />
    <glyph glyph-name="Uring" unicode="&#x16e;" horiz-adv-x="757" 
d="M378 952q54 0 86.5 -30t32.5 -81q0 -50 -32.5 -81t-86.5 -31t-86.5 31t-32.5 81q0 51 32.5 81t86.5 30zM378 798q20 0 32 11.5t12 31.5t-12 31.5t-32 11.5t-31.5 -11.5t-11.5 -31.5t11.5 -31.5t31.5 -11.5zM690 299q0 -74 -22 -132t-63 -98.5t-98.5 -62t-128.5 -21.5
q-70 0 -127.5 21.5t-98 62t-63 98.5t-22.5 132v381h145v-381q0 -85 45.5 -132t120.5 -47q76 0 122 47t46 132v381h144v-381z" />
    <glyph glyph-name="uring" unicode="&#x16f;" horiz-adv-x="623" 
d="M311 765q54 0 86.5 -30t32.5 -81q0 -50 -32.5 -80.5t-86.5 -30.5t-86.5 30.5t-32.5 80.5q0 51 32.5 81t86.5 30zM311 611q20 0 32 11.5t12 31.5t-12 31.5t-32 11.5t-31.5 -11.5t-11.5 -31.5t11.5 -31.5t31.5 -11.5zM556 10q-23 -4 -57.5 -8.5t-73.5 -8t-79 -5.5t-75 -2
q-44 0 -81 10t-63.5 31.5t-41.5 56.5t-15 85v310h139v-277q0 -52 23.5 -75.5t71.5 -23.5q26 0 54.5 2t59.5 5v369h138v-469z" />
    <glyph glyph-name="Uhungarumlaut" unicode="&#x170;" horiz-adv-x="757" 
d="M361 749h-119l39 142h132zM524 749h-119l39 142h132zM690 299q0 -74 -22 -132t-63 -98.5t-98.5 -62t-128.5 -21.5q-70 0 -127.5 21.5t-98 62t-63 98.5t-22.5 132v381h145v-381q0 -85 45.5 -132t120.5 -47q76 0 122 47t46 132v381h144v-381z" />
    <glyph glyph-name="uhungarumlaut" unicode="&#x171;" horiz-adv-x="623" 
d="M294 560h-120l39 144h134zM458 560h-120l40 144h133zM556 10q-23 -4 -57.5 -8.5t-73.5 -8t-79 -5.5t-75 -2q-44 0 -81 10t-63.5 31.5t-41.5 56.5t-15 85v310h139v-277q0 -52 23.5 -75.5t71.5 -23.5q26 0 54.5 2t59.5 5v369h138v-469z" />
    <glyph glyph-name="Uogonek" unicode="&#x172;" horiz-adv-x="757" 
d="M690 299q0 -116 -53 -192.5t-147 -105.5q-34 -14 -44.5 -27.5t-10.5 -27.5q0 -18 12.5 -27.5t41.5 -9.5q11 0 20.5 1.5t23.5 4.5l13 -102q-10 -5 -31 -9t-44 -4q-67 0 -108 32t-41 86q0 38 33 68q-65 3 -118.5 26t-91 63.5t-58 96.5t-20.5 127v381h145v-381
q0 -85 45.5 -132t120.5 -47q76 0 122 47t46 132v381h144v-381z" />
    <glyph glyph-name="uogonek" unicode="&#x173;" horiz-adv-x="623" 
d="M604 -181q-10 -5 -31 -9t-44 -4q-67 0 -108 32t-41 86q0 38 34 69q-36 -3 -73.5 -5t-69.5 -2q-44 0 -81 10t-63.5 31.5t-41.5 56.5t-15 85v310h139v-277q0 -52 23.5 -75.5t71.5 -23.5q26 0 54.5 2t59.5 5v369h138v-469q-39 -14 -51 -28.5t-12 -29.5q0 -18 12.5 -27.5
t41.5 -9.5q11 0 20.5 1.5t23.5 4.5z" />
    <glyph glyph-name="Wcircumflex" unicode="&#x174;" horiz-adv-x="1062" 
d="M485 748h-133l120 142h121l119 -142h-133l-47 61zM684 0l-153 435l-154 -435h-137l-222 680h153l142 -457l157 457h121l157 -457l142 457h153l-222 -680h-137z" />
    <glyph glyph-name="wcircumflex" unicode="&#x175;" horiz-adv-x="819" 
d="M362 565h-133l120 137h121l119 -137h-133l-46 52zM510 0l-101 282l-100 -282h-133l-153 479h141l86 -293l107 293h106l105 -295l87 295h141l-152 -479h-134z" />
    <glyph glyph-name="Ycircumflex" unicode="&#x176;" horiz-adv-x="741" 
d="M324 748h-133l120 142h121l119 -142h-133l-47 61zM18 680h163l188 -306l190 306h163l-279 -458v-222h-146v222z" />
    <glyph glyph-name="ycircumflex" unicode="&#x177;" horiz-adv-x="653" 
d="M148 566l120 137h121l119 -137h-133l-46 52l-48 -52h-133zM295 -230h-156l125 264l-232 445h158l148 -288l136 288h156z" />
    <glyph glyph-name="Ydieresis" unicode="&#x178;" horiz-adv-x="741" 
d="M261 738q-35 0 -59 22.5t-24 57.5t24 58t59 23t59.5 -23t24.5 -58t-24.5 -57.5t-59.5 -22.5zM480 738q-35 0 -59.5 22.5t-24.5 57.5t24.5 58t59.5 23t59 -23t24 -58t-24 -57.5t-59 -22.5zM18 680h163l188 -306l190 306h163l-279 -458v-222h-146v222z" />
    <glyph glyph-name="Zacute" unicode="&#x179;" horiz-adv-x="672" 
d="M417 748h-144l85 142h182zM260 132h361v-132h-573v90l364 458h-349v132h553v-90z" />
    <glyph glyph-name="zacute" unicode="&#x17a;" horiz-adv-x="508" 
d="M312 560h-135l76 151h182zM239 119h238v-119h-437v67l228 294h-224v119h414v-76z" />
    <glyph glyph-name="Zdotaccent" unicode="&#x17b;" horiz-adv-x="672" 
d="M336 738q-35 0 -59 22.5t-24 57.5q0 34 24 57t59 23t59 -23t24 -57q0 -35 -24 -57.5t-59 -22.5zM260 132h361v-132h-573v90l364 458h-349v132h553v-90z" />
    <glyph glyph-name="zdotaccent" unicode="&#x17c;" horiz-adv-x="508" 
d="M248 549q-35 0 -59.5 23t-24.5 58q0 34 24.5 57t59.5 23t59.5 -23t24.5 -57q0 -35 -24.5 -58t-59.5 -23zM239 119h238v-119h-437v67l228 294h-224v119h414v-76z" />
    <glyph glyph-name="Zcaron" unicode="&#x17d;" horiz-adv-x="672" 
d="M276 736l-120 151h133l47 -61l47 61h133l-119 -151h-121zM260 132h361v-132h-573v90l364 458h-349v132h553v-90z" />
    <glyph glyph-name="zcaron" unicode="&#x17e;" horiz-adv-x="508" 
d="M188 560l-120 151h133l47 -61l47 61h133l-119 -151h-121zM239 119h238v-119h-437v67l228 294h-224v119h414v-76z" />
    <glyph glyph-name="florin" unicode="&#x192;" horiz-adv-x="563" 
d="M416 695q32 0 57.5 -5t50.5 -12l-19 -112q-23 3 -39.5 4.5t-38.5 1.5q-34 0 -51.5 -23t-24.5 -71l-7 -54h162v-124h-180l-14 -103q-14 -103 -63 -157.5t-141 -54.5q-32 0 -57 5t-51 12l20 112q22 -3 38.5 -4.5t38.5 -1.5q35 0 52 23t24 71l14 98h-115v124h132l8 60
q14 102 63.5 156.5t140.5 54.5z" />
    <glyph glyph-name="uni01CD" unicode="&#x1cd;" horiz-adv-x="787" 
d="M333 736l-120 151h133l47 -61l47 61h133l-119 -151h-121zM179 0h-161l308 684h135l307 -684h-161l-54 125h-320zM287 253h212l-106 247z" />
    <glyph glyph-name="uni01CE" unicode="&#x1ce;" horiz-adv-x="618" 
d="M257 561l-120 151h133l47 -61l47 61h133l-119 -151h-121zM278 494q38 0 69 -1.5t62 -4.5t64.5 -7t77.5 -10v-471h-139v34q-30 -23 -65 -36t-80 -13q-50 0 -91.5 18t-72.5 51.5t-48 81t-17 106.5q1 57 17 103.5t46.5 79.5t75 51t101.5 18zM299 379q-35 0 -59 -11
t-39 -29.5t-21.5 -44.5t-6.5 -56q0 -60 31.5 -98.5t85.5 -38.5q30 0 60 10.5t62 36.5v225q-25 2 -52.5 4t-60.5 2z" />
    <glyph glyph-name="uni0218" unicode="&#x218;" horiz-adv-x="678" 
d="M568 515q-66 20 -128 32.5t-107 12.5q-51 0 -80 -17.5t-29 -55.5q0 -20 11.5 -33t32.5 -22t52 -16t70 -15q55 -11 98 -26t72.5 -37.5t45 -55.5t15.5 -80q0 -56 -20.5 -96.5t-57.5 -67.5t-88.5 -40t-112.5 -13q-60 0 -136 13t-154 45l34 133q78 -32 144.5 -44.5
t114.5 -13.5q59 0 93.5 16.5t34.5 54.5q0 25 -15.5 40t-41.5 25t-59.5 16.5t-68.5 13.5q-56 12 -97 27.5t-68 38.5t-40 55t-13 76q0 48 19 86.5t53.5 65.5t84 41.5t109.5 14.5q37 0 74.5 -4t72.5 -10.5t66 -14.5t54 -17zM287 -179q-45 20 -45 62q0 30 22.5 50.5t53.5 20.5
q32 0 54 -20.5t22 -50.5q0 -11 -2 -19.5t-9.5 -22.5t-21.5 -36.5t-38 -60.5h-74z" />
    <glyph glyph-name="uni0219" unicode="&#x219;" horiz-adv-x="529" 
d="M74 138q62 -23 111 -32.5t83 -9.5q36 0 59.5 8.5t23.5 28.5q0 14 -11.5 23t-30 14.5t-41.5 9t-45 8.5q-83 16 -124 48.5t-41 95.5q0 76 56 118t153 42q27 0 55.5 -3t55 -8t50 -11.5t41.5 -13.5l-31 -105q-51 14 -97.5 23.5t-78.5 9.5q-33 0 -51 -11t-18 -30q0 -14 9 -22
t25.5 -13.5t38.5 -9.5t48 -9q41 -8 72.5 -19t52.5 -27t31.5 -39.5t10.5 -57.5q0 -42 -16 -72t-44.5 -50t-68.5 -29.5t-88 -9.5q-43 0 -99.5 9t-117.5 33zM234 -179q-45 19 -45 62q0 30 22.5 50.5t53.5 20.5q32 0 54 -20.5t22 -50.5q0 -11 -2 -19.5t-9.5 -22.5t-21.5 -36.5
t-38 -60.5h-74z" />
    <glyph glyph-name="uni021A" unicode="&#x21a;" horiz-adv-x="677" 
d="M411 0h-144v548h-238v132h620v-132h-238v-548zM308 -179q-45 20 -45 62q0 30 22.5 50.5t53.5 20.5q32 0 54 -20.5t22 -50.5q0 -11 -2 -19.5t-9.5 -22.5t-21.5 -36.5t-38 -60.5h-74z" />
    <glyph glyph-name="uni021B" unicode="&#x21b;" horiz-adv-x="465" 
d="M439 1q-18 -4 -32.5 -7t-30 -5t-33 -3t-41.5 -1q-88 0 -136 50t-48 144v176h-99v124h99v171h139v-171h152v-124h-152v-162q0 -40 17 -62t59 -22q21 0 42.5 1.5t50.5 5.5zM233 -179q-45 19 -45 62q0 30 22.5 50.5t53.5 20.5q32 0 54 -20.5t22 -50.5q0 -11 -2 -19.5
t-9.5 -22.5t-21.5 -36.5t-38 -60.5h-74z" />
    <glyph glyph-name="circumflex" unicode="&#x2c6;" 
d="M253 565h-133l120 137h121l119 -137h-133l-46 52z" />
    <glyph glyph-name="caron" unicode="&#x2c7;" 
d="M240 560l-120 151h133l47 -61l47 61h133l-119 -151h-121z" />
    <glyph glyph-name="breve" unicode="&#x2d8;" 
d="M463 711q0 -75 -44 -116t-119 -41t-119 41t-44 116h114q0 -29 13.5 -40.5t35.5 -11.5q20 0 33.5 11.5t13.5 40.5h116z" />
    <glyph glyph-name="dotaccent" unicode="&#x2d9;" 
d="M300 549q-35 0 -59.5 23t-24.5 58q0 34 24.5 57t59.5 23t59.5 -23t24.5 -57q0 -35 -24.5 -58t-59.5 -23z" />
    <glyph glyph-name="ring" unicode="&#x2da;" 
d="M297 765q54 0 86.5 -30t32.5 -81q0 -50 -32.5 -80.5t-86.5 -30.5t-86.5 30.5t-32.5 80.5q0 51 32.5 81t86.5 30zM297 611q20 0 32 11.5t12 31.5t-12 31.5t-32 11.5t-31.5 -11.5t-11.5 -31.5t11.5 -31.5t31.5 -11.5z" />
    <glyph glyph-name="ogonek" unicode="&#x2db;" 
d="M371 33q-39 -14 -51 -28.5t-12 -29.5q0 -18 12.5 -27.5t41.5 -9.5q11 0 20.5 1.5t23.5 4.5l13 -102q-10 -5 -31 -9t-44 -4q-67 0 -108 32t-41 86q0 42 41.5 74.5t122.5 39.5z" />
    <glyph glyph-name="tilde" unicode="&#x2dc;" 
d="M489 694q0 -50 -18 -80.5t-45 -45t-58 -13t-56 15.5l-46 27q-12 7 -20.5 7t-13 -4.5t-6.5 -12t-2 -14.5h-108q0 50 18 80.5t45 45t58 13.5t56 -15l46 -28q12 -7 20.5 -7t13 4.5t6.5 12t2 14.5h108z" />
    <glyph glyph-name="hungarumlaut" unicode="&#x2dd;" 
d="M281 560h-120l39 144h134zM445 560h-120l40 144h133z" />
    <glyph glyph-name="uni0326" unicode="&#x326;" horiz-adv-x="0" 
d="M266 -179q-45 19 -45 62q0 30 22.5 50.5t53.5 20.5q32 0 54 -20.5t22 -50.5q0 -11 -2 -19.5t-9.5 -22.5t-21.5 -36.5t-38 -60.5h-74z" />
    <glyph glyph-name="Wgrave" unicode="&#x1e80;" horiz-adv-x="1062" 
d="M468 748l-123 142h182l75 -142h-134zM684 0l-153 435l-154 -435h-137l-222 680h153l142 -457l157 457h121l157 -457l142 457h153l-222 -680h-137z" />
    <glyph glyph-name="wgrave" unicode="&#x1e81;" horiz-adv-x="819" 
d="M334 560l-122 151h182l75 -151h-135zM510 0l-101 282l-100 -282h-133l-153 479h141l86 -293l107 293h106l105 -295l87 295h141l-152 -479h-134z" />
    <glyph glyph-name="Wacute" unicode="&#x1e82;" horiz-adv-x="1062" 
d="M612 748h-144l85 142h182zM684 0l-153 435l-154 -435h-137l-222 680h153l142 -457l157 457h121l157 -457l142 457h153l-222 -680h-137z" />
    <glyph glyph-name="wacute" unicode="&#x1e83;" horiz-adv-x="819" 
d="M485 560h-134l75 151h182zM510 0l-101 282l-100 -282h-133l-153 479h141l86 -293l107 293h106l105 -295l87 295h141l-152 -479h-134z" />
    <glyph glyph-name="Wdieresis" unicode="&#x1e84;" horiz-adv-x="1062" 
d="M422 738q-35 0 -59 22.5t-24 57.5t24 58t59 23t59.5 -23t24.5 -58t-24.5 -57.5t-59.5 -22.5zM641 738q-35 0 -59.5 22.5t-24.5 57.5t24.5 58t59.5 23t59 -23t24 -58t-24 -57.5t-59 -22.5zM684 0l-153 435l-154 -435h-137l-222 680h153l142 -457l157 457h121l157 -457
l142 457h153l-222 -680h-137z" />
    <glyph glyph-name="wdieresis" unicode="&#x1e85;" horiz-adv-x="819" 
d="M301 710q35 0 59.5 -23t24.5 -57q0 -35 -24.5 -58t-59.5 -23t-59 23t-24 58q0 34 24 57t59 23zM520 710q35 0 59 -23t24 -57q0 -35 -24 -58t-59 -23t-59.5 23t-24.5 58q0 34 24.5 57t59.5 23zM510 0l-101 282l-100 -282h-133l-153 479h141l86 -293l107 293h106l105 -295
l87 295h141l-152 -479h-134z" />
    <glyph glyph-name="Ygrave" unicode="&#x1ef2;" horiz-adv-x="741" 
d="M307 748l-123 142h182l75 -142h-134zM18 680h163l188 -306l190 306h163l-279 -458v-222h-146v222z" />
    <glyph glyph-name="ygrave" unicode="&#x1ef3;" horiz-adv-x="653" 
d="M151 712h182l75 -151h-135zM295 -230h-156l125 264l-232 445h158l148 -288l136 288h156z" />
    <glyph glyph-name="uni2009" unicode="&#x2009;" horiz-adv-x="148" 
 />
    <glyph glyph-name="endash" unicode="&#x2013;" horiz-adv-x="650" 
d="M574 192h-497v137h497v-137z" />
    <glyph glyph-name="emdash" unicode="&#x2014;" horiz-adv-x="1016" 
d="M937 192h-858v137h858v-137z" />
    <glyph glyph-name="quoteleft" unicode="&#x2018;" horiz-adv-x="315" 
d="M197 644q30 -13 44 -33.5t14 -46.5q0 -20 -7.5 -36.5t-21 -29.5t-31 -20t-37.5 -7q-21 0 -39 7t-31.5 20t-21 29.5t-7.5 36.5q0 14 3 26t13 32.5t30 54.5t53 92h98z" />
    <glyph glyph-name="quoteright" unicode="&#x2019;" horiz-adv-x="315" 
d="M118 603q-30 12 -44 32.5t-14 46.5q0 40 28.5 67t69.5 27t69.5 -27t28.5 -67q0 -14 -3 -26t-13 -32.5t-29.5 -54.5t-53.5 -92h-98z" />
    <glyph glyph-name="quotesinglbase" unicode="&#x201a;" horiz-adv-x="315" 
d="M118 -3q-30 12 -44 33t-14 47q0 19 7.5 36t21 30t31 20t37.5 7q21 0 39 -7t31.5 -20t21 -30t7.5 -36q0 -14 -3 -26t-13 -32.5t-30 -55t-53 -92.5h-98z" />
    <glyph glyph-name="quotedblleft" unicode="&#x201c;" horiz-adv-x="534" 
d="M197 643q30 -12 44 -32.5t14 -46.5q0 -40 -28.5 -66.5t-68.5 -26.5q-42 0 -70.5 26.5t-28.5 66.5q0 14 3 26t13 32.5t30 54.5t53 92h98zM416 643q30 -12 44 -32.5t14 -46.5q0 -40 -28.5 -66.5t-68.5 -26.5q-41 0 -70 26.5t-29 66.5q0 14 3 26t13.5 32.5t30 54.5t53.5 92
h97z" />
    <glyph glyph-name="quotedblright" unicode="&#x201d;" horiz-adv-x="535" 
d="M158 778q41 0 69.5 -27t28.5 -67q0 -14 -3 -26t-13 -32.5t-29.5 -54.5t-53.5 -92h-98l59 126q-30 12 -44 32.5t-14 46.5q0 40 28.5 67t69.5 27zM378 778q41 0 69.5 -27t28.5 -67q0 -14 -3 -26t-13 -32.5t-29.5 -54.5t-53.5 -92h-98l59 126q-30 12 -44 32.5t-14 46.5
q0 40 28.5 67t69.5 27z" />
    <glyph glyph-name="quotedblbase" unicode="&#x201e;" horiz-adv-x="534" 
d="M118 -3q-30 12 -44 33t-14 47q0 19 7.5 36t21 30t31 20t37.5 7q21 0 39 -7t31.5 -20t21 -30t7.5 -36q0 -14 -3 -26t-13 -32.5t-30 -55t-53 -92.5h-98zM337 -3q-29 12 -43.5 33t-14.5 47q0 19 7.5 36t21 30t31.5 20t38 7t38 -7t31.5 -20t21 -30t7.5 -36q0 -14 -3 -26
t-13 -32.5t-29.5 -55t-53.5 -92.5h-98z" />
    <glyph glyph-name="dagger" unicode="&#x2020;" horiz-adv-x="407" 
d="M248 300h-89v215h-115v89h115v115h89v-115h115v-89h-115v-215z" />
    <glyph glyph-name="daggerdbl" unicode="&#x2021;" horiz-adv-x="407" 
d="M363 485v-90h-115v-95h-89v95h-115v90h115v53h-115v89h115v92h89v-92h115v-89h-115v-53h115z" />
    <glyph glyph-name="bullet" unicode="&#x2022;" horiz-adv-x="350" 
d="M175 158q-30 0 -56 10.5t-44.5 29t-29.5 44t-11 55.5t11 55.5t29.5 44.5t44.5 29.5t56 10.5t56 -10.5t45 -29.5t30 -44.5t11 -55.5t-11 -55.5t-30 -44t-45 -29t-56 -10.5z" />
    <glyph glyph-name="ellipsis" unicode="&#x2026;" horiz-adv-x="811" 
d="M157 -19q-41 0 -69.5 27t-28.5 68q0 40 28.5 67t69.5 27t69.5 -27t28.5 -67q0 -41 -28.5 -68t-69.5 -27zM403 -19q-41 0 -69.5 27t-28.5 68q0 40 28.5 67t69.5 27t69.5 -27t28.5 -67q0 -41 -28.5 -68t-69.5 -27zM654 -19q-41 0 -69.5 27t-28.5 68q0 40 28.5 67t69.5 27
t69.5 -27t28.5 -67q0 -41 -28.5 -68t-69.5 -27z" />
    <glyph glyph-name="perthousand" unicode="&#x2030;" horiz-adv-x="1520" 
d="M276 695q43 0 79.5 -14t63 -40t41.5 -62t15 -80q0 -45 -15 -81.5t-41.5 -62.5t-63 -40t-79.5 -14q-42 0 -78.5 14t-63.5 40t-42 62.5t-15 81.5q0 44 15 80t42 62t63.5 40t78.5 14zM267 0l465 680h74l-466 -680h-73zM275 599q-40 0 -68.5 -27.5t-28.5 -72.5
q0 -47 28.5 -74.5t68.5 -27.5q42 0 70.5 27.5t28.5 74.5q0 45 -28.5 72.5t-70.5 27.5zM802 379q42 0 78.5 -14t63 -39.5t41.5 -62t15 -80.5q0 -45 -15 -81.5t-41.5 -62.5t-63 -40t-78.5 -14t-78.5 14t-63.5 40t-42 62.5t-15 81.5q0 44 15 80.5t42 62t63.5 39.5t78.5 14z
M1245 379q42 0 78.5 -14t63 -39.5t41.5 -62t15 -80.5q0 -45 -15 -81.5t-41.5 -62.5t-63 -40t-78.5 -14q-43 0 -79.5 14t-63.5 40t-42 62.5t-15 81.5q0 44 15 80.5t42 62t63.5 39.5t79.5 14zM801 283q-40 0 -68.5 -27.5t-28.5 -72.5q0 -47 28.5 -74.5t68.5 -27.5
q41 0 69.5 27.5t28.5 74.5q0 45 -28.5 72.5t-69.5 27.5zM1245 283q-41 0 -69.5 -27.5t-28.5 -72.5q0 -47 28.5 -74.5t69.5 -27.5t69.5 27.5t28.5 74.5q0 45 -28.5 72.5t-69.5 27.5z" />
    <glyph glyph-name="guilsinglleft" unicode="&#x2039;" horiz-adv-x="368" 
d="M226 36l-188 210l188 210l79 -62l-114 -145l112 -143z" />
    <glyph glyph-name="guilsinglright" unicode="&#x203a;" horiz-adv-x="368" 
d="M142 456l188 -210l-188 -210l-77 70l112 143l-114 145z" />
    <glyph glyph-name="fraction" unicode="&#x2044;" horiz-adv-x="514" 
d="M-17 0l465 680h74l-465 -680h-74z" />
    <glyph glyph-name="uni2070" unicode="&#x2070;" horiz-adv-x="469" 
d="M235 686q46 0 84 -15t65 -42t41.5 -64.5t14.5 -83.5q0 -47 -14.5 -85t-41.5 -65t-65 -42t-84 -15t-84 15t-65 42t-42 65t-15 85q0 46 15 83.5t42 64.5t65 42t84 15zM235 368q45 0 73 31t28 82q0 50 -28 80.5t-73 30.5t-73 -30.5t-28 -80.5q0 -51 28 -82t73 -31z" />
    <glyph glyph-name="uni2074" unicode="&#x2074;" horiz-adv-x="402" 
d="M397 454v-87h-56v-81h-102v81h-225v73l218 241h109v-227h56zM239 454v113l-97 -113h97z" />
    <glyph glyph-name="uni2075" unicode="&#x2075;" horiz-adv-x="381" 
d="M209 540q71 -3 107.5 -35.5t36.5 -88.5q0 -29 -11 -54.5t-32 -44t-51 -29t-69 -10.5q-48 0 -83.5 7t-74.5 26l33 87q32 -14 59 -22t60 -8t52.5 12.5t19.5 31.5q0 17 -17 25.5t-43 10.5l-128 6l17 227h252v-93h-163l-4 -47z" />
    <glyph glyph-name="uni2076" unicode="&#x2076;" horiz-adv-x="399" 
d="M220 579q67 -5 108.5 -44t41.5 -105q0 -35 -12.5 -64t-35 -50t-54 -32.5t-69.5 -11.5t-69.5 11.5t-54 32.5t-35 50t-12.5 64q0 26 9 48.5t22 42.5l110 160h121zM199 361q32 0 52 18.5t20 50.5q0 30 -20 48t-52 18t-51.5 -18.5t-19.5 -47.5q0 -32 19.5 -50.5t51.5 -18.5z
" />
    <glyph glyph-name="uni2077" unicode="&#x2077;" horiz-adv-x="333" 
d="M176 286h-115l132 297h-179v98h305v-63z" />
    <glyph glyph-name="uni2078" unicode="&#x2078;" horiz-adv-x="363" 
d="M278 485q39 -15 55 -38.5t16 -54.5q0 -26 -12 -47.5t-34 -37.5t-53 -24.5t-68 -8.5q-78 0 -123 33t-45 85q0 32 16 55t55 38q-33 14 -45 35t-12 50q0 53 43 84.5t111 31.5t110.5 -31.5t42.5 -84.5q0 -29 -12 -50t-45 -35zM134 561q0 -22 13 -33t35 -11t35.5 11t13.5 33
q0 18 -13.5 31t-35.5 13t-35 -13t-13 -31zM182 356q26 0 41 13t15 34q0 23 -15 36t-41 13t-42 -13t-15 -36q-1 -21 15 -34t42 -13z" />
    <glyph glyph-name="uni2079" unicode="&#x2079;" horiz-adv-x="390" 
d="M366 533q0 -26 -8.5 -49t-22.5 -42l-3 -3l-106 -156h-122l70 101q-68 5 -109 44.5t-41 104.5q0 36 12.5 65t35 50t54 32.5t69.5 11.5t69.5 -11.5t54 -32.5t35 -50t12.5 -65zM123 534q0 -30 20 -48t52 -18t51.5 18t19.5 48q0 31 -19.5 50t-51.5 19t-52 -19t-20 -50z" />
    <glyph glyph-name="uni2080" unicode="&#x2080;" horiz-adv-x="469" 
d="M235 224q46 0 84 -15t65 -42t41.5 -64.5t14.5 -83.5q0 -47 -14.5 -85t-41.5 -65t-65 -42t-84 -15t-84 15t-65 42t-42 65t-15 85q0 46 15 83.5t42 64.5t65 42t84 15zM235 -94q45 0 73 31t28 82q0 50 -28 80.5t-73 30.5t-73 -30.5t-28 -80.5q0 -51 28 -82t73 -31z" />
    <glyph glyph-name="uni2081" unicode="&#x2081;" horiz-adv-x="314" 
d="M286 -180h-264v91h80v179l-74 -20l-23 92l171 53h30v-304h80v-91z" />
    <glyph glyph-name="uni2082" unicode="&#x2082;" horiz-adv-x="352" 
d="M23 -180v69l146 130q17 12 25.5 26t8.5 35q0 26 -15 36t-43 10q-14 0 -38.5 -2.5t-66.5 -14.5l-21 90q31 11 69 17.5t74 6.5q42 0 70.5 -11.5t46.5 -29.5t26 -40.5t8 -45.5q0 -47 -26 -84.5t-68 -75.5l-31 -27h135v-89h-300z" />
    <glyph glyph-name="uni2083" unicode="&#x2083;" horiz-adv-x="364" 
d="M222 54l5 -1q49 -6 79 -36.5t30 -68.5q0 -64 -39.5 -100t-129.5 -36q-35 0 -73.5 6.5t-74.5 26.5l35 82q29 -12 59 -19t56 -7q33 0 51 10t18 29q0 14 -11 22.5t-35 8.5h-109v48l93 103h-135v93h277v-61z" />
    <glyph glyph-name="uni2084" unicode="&#x2084;" horiz-adv-x="402" 
d="M397 -12v-87h-56v-81h-102v81h-225v73l218 241h109v-227h56zM239 -12v113l-97 -113h97z" />
    <glyph glyph-name="uni2085" unicode="&#x2085;" horiz-adv-x="381" 
d="M209 74q71 -3 107.5 -35.5t36.5 -89.5q0 -58 -42.5 -97.5t-120.5 -39.5q-48 0 -83.5 6.5t-74.5 26.5l33 87q32 -14 59 -22t60 -8t52.5 12.5t19.5 31.5q0 17 -17 25.5t-43 9.5l-128 7l17 227h252v-93h-163l-4 -47z" />
    <glyph glyph-name="uni2086" unicode="&#x2086;" horiz-adv-x="399" 
d="M220 113q67 -5 108.5 -44t41.5 -105q0 -35 -12.5 -64t-35 -50t-54 -32.5t-69.5 -11.5t-69.5 11.5t-54 32.5t-35 50t-12.5 64q0 26 9 48.5t22 42.5l110 160h121zM199 -105q32 0 52 18.5t20 50.5q0 30 -20 48t-52 18t-51.5 -18.5t-19.5 -47.5q0 -32 19.5 -50.5t51.5 -18.5z
" />
    <glyph glyph-name="uni2087" unicode="&#x2087;" horiz-adv-x="333" 
d="M176 -180h-115l132 297h-179v98h305v-63z" />
    <glyph glyph-name="uni2088" unicode="&#x2088;" horiz-adv-x="363" 
d="M278 23q39 -15 55 -38.5t16 -54.5q0 -26 -12 -47.5t-34 -37.5t-53 -24.5t-68 -8.5q-78 0 -123 33t-45 85q0 32 16 55t55 38q-33 14 -45 35t-12 50q0 53 43 84.5t111 31.5t110.5 -31.5t42.5 -84.5q0 -29 -12 -50t-45 -35zM134 99q0 -22 13 -33t35 -11t35.5 11t13.5 33
q0 18 -13.5 31t-35.5 13t-35 -13t-13 -31zM182 -106q26 0 41 13t15 34q0 23 -15 36t-41 13t-42 -13t-15 -36q-1 -21 15 -34t42 -13z" />
    <glyph glyph-name="uni2089" unicode="&#x2089;" horiz-adv-x="390" 
d="M366 71q0 -26 -8.5 -49t-22.5 -42l-3 -3l-106 -156h-122l70 101q-68 5 -109 44.5t-41 104.5q0 36 12.5 65t35 50t54 32.5t69.5 11.5t69.5 -11.5t54 -32.5t35 -50t12.5 -65zM123 72q0 -30 20 -48t52 -18t51.5 18t19.5 48q0 31 -19.5 50t-51.5 19t-52 -19t-20 -50z" />
    <glyph glyph-name="Euro" unicode="&#x20ac;" horiz-adv-x="749" 
d="M457 695q27 0 58 -3t62.5 -8t62.5 -13t59 -17l-26 -128q-59 12 -111 19.5t-84 7.5q-66 0 -114 -27.5t-74 -75.5h236l-24 -91h-236q-1 -6 -1 -12v-12q0 -5 0.5 -14t1.5 -18h222l-23 -91h-168q26 -42 68.5 -65t99.5 -23q34 0 89.5 7.5t118.5 20.5l25 -125
q-58 -19 -123.5 -30.5t-118.5 -11.5q-125 0 -210.5 60.5t-119.5 166.5h-76v91h59q-1 9 -1.5 17.5t-0.5 13.5v25h-57v91h71q15 57 45.5 102t73.5 77t97.5 49t118.5 17z" />
    <glyph glyph-name="uni2116" unicode="&#x2116;" horiz-adv-x="1412" 
d="M1068 696q60 0 110 -18.5t85 -52.5t54.5 -81.5t19.5 -105.5q0 -59 -19.5 -106.5t-54.5 -82t-85 -53t-110 -18.5q-61 0 -111 18.5t-85.5 53t-55 82t-19.5 106.5q0 58 19.5 105.5t55 81.5t85.5 52.5t111 18.5zM701 0h-135l-345 434v-434h-144v680h133l347 -438v438h144
v-680zM1068 302q60 0 96 37t36 99q0 61 -36 97.5t-96 36.5t-96.5 -36.5t-36.5 -97.5q0 -62 36.5 -99t96.5 -37zM1307 116v-116h-482v116h482z" />
    <glyph glyph-name="uni2117" unicode="&#x2117;" horiz-adv-x="831" 
d="M416 695q78 0 145 -27t115.5 -74.5t76.5 -112.5t28 -141t-28 -141t-76.5 -112.5t-115.5 -74.5t-145 -27t-145 27t-115.5 74.5t-76.5 112.5t-28 141t28 141t76.5 112.5t115.5 74.5t145 27zM416 632q-64 0 -118.5 -22.5t-94.5 -61.5t-63 -92.5t-23 -115.5t23 -115.5
t63 -92.5t94.5 -61.5t118.5 -22.5q63 0 117.5 22.5t94.5 61.5t63 92.5t23 115.5t-23 115.5t-63 92.5t-94.5 61.5t-117.5 22.5zM426 536q85 0 127.5 -34.5t42.5 -99.5q0 -36 -13 -62t-35 -42.5t-50.5 -24t-59.5 -7.5h-58v-106h-95v374q7 0 26 0.5t41.5 0.5t43.5 0.5t30 0.5z
M437 452h-26.5t-30.5 -1v-102h63q26 0 42.5 15.5t16.5 39.5t-17.5 36t-47.5 12z" />
    <glyph glyph-name="trademark" unicode="&#x2122;" horiz-adv-x="747" 
d="M200 601v-231h-85v231h-100v79h284v-79h-99zM555 370h-69l-62 141l-7 -141h-81l13 310h80l93 -203l87 203h78l19 -310h-83l-7 141z" />
    <glyph glyph-name="oneeighth" unicode="&#x215b;" horiz-adv-x="967" 
d="M69 377h80v179l-74 -20l-23 92l171 53h30v-304h80v-91h-264v91zM274 0h-74l465 680h74zM829 203q40 -15 55.5 -38.5t15.5 -54.5q0 -26 -12 -47.5t-34 -37.5t-53 -24.5t-68 -8.5q-77 0 -122.5 33t-45.5 85q0 32 16 55t55 38q-32 14 -44.5 35t-12.5 50q0 53 43.5 84.5
t110.5 31.5q68 0 110.5 -31.5t42.5 -84.5q0 -29 -12 -50t-45 -35zM733 323q-22 0 -35 -13t-13 -31q0 -22 13 -33t35 -11q23 0 36 11t13 33q0 18 -13 31t-36 13zM733 74q26 0 41.5 13t14.5 34q1 23 -14.5 36t-41.5 13t-42 -13t-15 -36q-1 -21 15 -34t42 -13z" />
    <glyph glyph-name="threeeighths" unicode="&#x215c;" horiz-adv-x="959" 
d="M242 520l5 -1q49 -6 79 -36.5t30 -68.5q0 -64 -39.5 -100t-129.5 -36q-35 0 -73.5 6.5t-74.5 26.5l35 82q29 -12 59 -19t56 -7q33 0 51 10t18 29q0 14 -11 22.5t-35 8.5h-109v48l93 103h-135v93h277v-61zM195 0l465 680h74l-465 -680h-74zM821 203q40 -15 56 -38.5
t16 -54.5q0 -26 -12 -47.5t-34.5 -37.5t-53.5 -24.5t-68 -8.5q-77 0 -122 33t-45 85q0 32 15.5 55t55.5 38q-33 14 -45.5 35t-12.5 50q0 53 43.5 84.5t110.5 31.5q68 0 110.5 -31.5t42.5 -84.5q0 -29 -12 -50t-45 -35zM678 279q0 -22 12.5 -33t34.5 -11q23 0 36 11t13 33
q0 18 -13 31t-36 13q-22 0 -34.5 -13t-12.5 -31zM725 74q26 0 41.5 13t14.5 34q1 23 -14.5 36t-41.5 13t-42 -13t-15 -36q-1 -21 15 -34t42 -13z" />
    <glyph glyph-name="fiveeighths" unicode="&#x215d;" horiz-adv-x="969" 
d="M209 540q71 -3 107.5 -35.5t36.5 -88.5q0 -29 -11 -54.5t-32 -44t-51 -29t-69 -10.5q-48 0 -83.5 7t-74.5 26l33 87q32 -14 59 -22t60 -8t52.5 12.5t19.5 31.5q0 17 -17 25.5t-43 10.5l-128 6l17 227h252v-93h-163l-4 -47zM194 0l465 680h74l-466 -680h-73zM831 203
q40 -15 55.5 -38.5t15.5 -54.5q0 -26 -12 -47.5t-34 -37.5t-53 -24.5t-68 -8.5q-77 0 -122.5 33t-45.5 85q0 32 16 55t55 38q-32 14 -44.5 35t-12.5 50q0 53 43.5 84.5t110.5 31.5q68 0 110.5 -31.5t42.5 -84.5q0 -29 -12 -50t-45 -35zM687 279q0 -22 13 -33t35 -11
q23 0 36 11t13 33q0 18 -13 31t-36 13q-22 0 -35 -13t-13 -31zM735 74q26 0 41.5 13t14.5 34q1 23 -14.5 36t-41.5 13t-42 -13t-15 -36q-1 -21 15 -34t42 -13z" />
    <glyph glyph-name="seveneighths" unicode="&#x215e;" horiz-adv-x="911" 
d="M224 286h-115l132 297h-179v98h305v-63zM142 0l466 680h74l-466 -680h-74zM774 203q39 -15 55 -38.5t16 -54.5q0 -26 -12 -47.5t-34 -37.5t-53 -24.5t-68 -8.5q-78 0 -123 33t-45 85q0 32 16 55t55 38q-33 14 -45 35t-12 50q0 53 43 84.5t111 31.5t110.5 -31.5
t42.5 -84.5q0 -29 -12.5 -50t-44.5 -35zM630 279q0 -22 12.5 -33t35.5 -11q22 0 35 11t13 33q0 18 -13 31t-35 13q-23 0 -35.5 -13t-12.5 -31zM678 74q26 0 41 13t14 34q1 23 -14 36t-41 13t-42 -13t-16 -36q0 -21 16 -34t42 -13z" />
    <glyph glyph-name="arrowleft" unicode="&#x2190;" horiz-adv-x="750" 
d="M448 73l-94 -85l-326 354l319 345l94 -84l-183 -197h459v-128h-459z" />
    <glyph glyph-name="arrowup" unicode="&#x2191;" horiz-adv-x="765" 
d="M314 457l-196 -182l-83 94l343 317l352 -324l-84 -94l-204 190v-458h-128v457z" />
    <glyph glyph-name="arrowright" unicode="&#x2192;" horiz-adv-x="750" 
d="M492 406l-183 197l95 84l318 -345l-326 -353l-94 84l191 205h-460v128h459z" />
    <glyph glyph-name="arrowdown" unicode="&#x2193;" horiz-adv-x="765" 
d="M646 412l84 -93l-352 -325l-343 317l83 94l194 -182v457h133v-458z" />
    <glyph glyph-name="uni2196" unicode="&#x2196;" horiz-adv-x="790" 
d="M196 466v-255h-126v469h485v-125h-271l468 -474l-84 -84z" />
    <glyph glyph-name="uni2197" unicode="&#x2197;" horiz-adv-x="791" 
d="M237 555v125h484v-469h-126v255l-472 -469l-84 84l468 474h-270z" />
    <glyph glyph-name="uni2198" unicode="&#x2198;" horiz-adv-x="790" 
d="M594 214v255h126v-469h-484v125h271l-469 474l84 84z" />
    <glyph glyph-name="uni2199" unicode="&#x2199;" horiz-adv-x="790" 
d="M555 125v-125h-485v469h126v-255l472 469l84 -84l-468 -474h271z" />
    <glyph glyph-name="minus" unicode="&#x2212;" horiz-adv-x="679" 
d="M580 393v-123h-481v123h481z" />
    <glyph glyph-name="triagup" unicode="&#x25b2;" horiz-adv-x="973" 
d="M903 0h-833l415 691z" />
    <glyph glyph-name="uni25B4" unicode="&#x25b4;" horiz-adv-x="497" 
d="M442 181h-387l193 319z" />
    <glyph glyph-name="uni25B8" unicode="&#x25b8;" horiz-adv-x="441" 
d="M81 141v387l319 -193z" />
    <glyph glyph-name="triagdn" unicode="&#x25bc;" horiz-adv-x="973" 
d="M485 -11l-415 691h833z" />
    <glyph glyph-name="uni25BE" unicode="&#x25be;" horiz-adv-x="497" 
d="M248 161l-193 319h387z" />
    <glyph glyph-name="uni25C2" unicode="&#x25c2;" horiz-adv-x="441" 
d="M41 335l319 193v-387z" />
    <glyph glyph-name="uniFB01" unicode="&#xfb01;" horiz-adv-x="667" 
d="M621 0h-139v355h-225v-355h-139v355h-109v124h109v41q0 56 19.5 99.5t53.5 73t80.5 45t100.5 15.5q33 0 60.5 -5t53 -15.5t49.5 -25.5t51 -34l-68 -96q-68 52 -137 52q-60 0 -92 -29t-32 -84v-37h364v-479z" />
    <glyph glyph-name="uniFB02" unicode="&#xfb02;" horiz-adv-x="699" 
d="M489 0v605q-32 13 -57.5 18.5t-60.5 5.5q-60 0 -87 -29t-27 -83v-38h164v-124h-164v-355h-139v355h-109v124h109v44q0 112 61.5 171t182.5 59q38 0 70 -8.5t63 -20.5l133 -7v-717h-139z" />
    <glyph glyph-name="glyph113" horiz-adv-x="661" 
d="M339 686q63 0 114 -15.5t87.5 -45.5t56.5 -74t20 -102q0 -43 -14 -80t-40.5 -66.5t-63.5 -51t-82 -31.5h-2l236 -220h-193l-222 209h-15v-209h-144v680q20 1 50.5 2t66.5 2t73.5 1.5t71.5 0.5zM343 557h-60t-62 -1v-220h131q53 0 88 31.5t35 81.5q0 57 -36 82.5t-96 25.5
z" />
    <glyph glyph-name="glyph114" horiz-adv-x="661" 
d="M390 748h-144l85 142h182zM339 686q63 0 114.5 -15.5t87.5 -45.5t56 -74t20 -102q0 -43 -14 -80t-40.5 -66.5t-63 -51t-81.5 -31.5h-2l236 -220h-193l-223 209h-15v-209h-144v680q20 1 51 2t67 2t73.5 1.5t70.5 0.5zM343 557h-59.5t-62.5 -1v-220h131q53 0 88.5 31.5
t35.5 81.5q0 57 -36.5 82.5t-96.5 25.5z" />
    <glyph glyph-name="glyph115" horiz-adv-x="661" 
d="M249 736l-120 151h133l47 -61l47 61h133l-119 -151h-121zM339 686q63 0 114.5 -15.5t87.5 -45.5t56 -74t20 -102q0 -43 -14 -80t-40.5 -66.5t-63 -51t-81.5 -31.5h-2l236 -220h-193l-223 209h-15v-209h-144v680q20 1 51 2t67 2t73.5 1.5t70.5 0.5zM343 557h-59.5
t-62.5 -1v-220h131q53 0 88.5 31.5t35.5 81.5q0 57 -36.5 82.5t-96.5 25.5z" />
    <glyph glyph-name="glyph116" horiz-adv-x="661" 
d="M339 686q63 0 114.5 -15.5t87.5 -45.5t56 -74t20 -102q0 -43 -14 -80t-40.5 -66.5t-63 -51t-81.5 -31.5h-2l236 -220h-193l-223 209h-15v-209h-144v680q20 1 51 2t67 2t73.5 1.5t70.5 0.5zM343 557h-59.5t-62.5 -1v-220h131q53 0 88.5 31.5t35.5 81.5q0 57 -36.5 82.5
t-96.5 25.5zM298 -179q-45 20 -45 62q0 30 22.5 50.5t53.5 20.5q32 0 54 -20.5t22 -50.5q0 -11 -2 -19.5t-9.5 -22.5t-21.5 -36.5t-38 -60.5h-74z" />
    <glyph glyph-name="glyph117" horiz-adv-x="830" 
d="M415 695q80 0 147 -25.5t115.5 -72t75.5 -112t27 -145.5t-27 -145.5t-75.5 -112t-115.5 -72t-147 -25.5t-146.5 25.5t-115 72t-75.5 112t-27 145.5t27 145.5t75.5 112t115 72t146.5 25.5zM415 120q46 0 85.5 16t68 44.5t44.5 69t16 90.5q0 49 -16 89.5t-44.5 69.5
t-68 44.5t-85.5 15.5t-85 -15.5t-67.5 -44.5t-44.5 -69.5t-16 -89.5q0 -50 16 -90.5t44.5 -69t67.5 -44.5t85 -16zM713 -184q-168 0 -336 30v97h336v-127z" />
    <glyph glyph-name="glyph161" horiz-adv-x="269" 
d="M135 549q-35 0 -59.5 23t-24.5 58q0 34 24.5 57t59.5 23t59.5 -23t24.5 -57q0 -35 -24.5 -58t-59.5 -23zM204 0h-139v479h139v-479z" />
    <glyph glyph-name="glyph232" horiz-adv-x="1326" 
d="M568 515q-66 20 -128 32.5t-107 12.5q-51 0 -80 -17.5t-29 -55.5q0 -20 11.5 -33t32.5 -22t52 -16t70 -15q55 -11 98 -26t72.5 -37.5t45 -55.5t15.5 -80q0 -56 -20.5 -96.5t-57.5 -67.5t-88.5 -40t-112.5 -13q-60 0 -136 13t-154 45l34 133q78 -32 144.5 -44.5
t114.5 -13.5q59 0 93.5 16.5t34.5 54.5q0 25 -15.5 40t-41.5 25t-59.5 16.5t-68.5 13.5q-56 12 -97 27.5t-68 38.5t-40 55t-13 76q0 48 19 86.5t53.5 65.5t84 41.5t109.5 14.5q37 0 74.5 -4t72.5 -10.5t66 -14.5t54 -17zM1215 515q-66 20 -128 32.5t-107 12.5
q-51 0 -80 -17.5t-29 -55.5q0 -20 11.5 -33t32.5 -22t52 -16t70 -15q55 -11 98 -26t72.5 -37.5t45 -55.5t15.5 -80q0 -56 -20.5 -96.5t-57.5 -67.5t-88.5 -40t-112.5 -13q-60 0 -136 13t-154 45l34 133q78 -32 144.5 -44.5t114.5 -13.5q59 0 93.5 16.5t34.5 54.5
q0 25 -15.5 40t-41.5 25t-59.5 16.5t-68.5 13.5q-56 12 -97 27.5t-68 38.5t-40 55t-13 76q0 48 19 86.5t53.5 65.5t84 41.5t109.5 14.5q37 0 74.5 -4t72.5 -10.5t66 -14.5t54 -17z" />
    <glyph glyph-name="glyph233" horiz-adv-x="624" 
d="M556 9q0 -58 -17.5 -107t-52.5 -84t-87.5 -55t-122.5 -20q-38 0 -82 7.5t-86 16.5l19 118q42 -7 79 -13t66 -6q69 0 106 35t39 101q-38 -4 -75.5 -5.5t-70.5 -1.5q-44 0 -81 8.5t-63.5 29.5t-41.5 56.5t-15 89.5v300h139v-268q0 -52 23.5 -75.5t71.5 -23.5q26 0 54.5 2
t58.5 5v360h139v-470z" />
    <glyph glyph-name="glyph234" horiz-adv-x="624" 
d="M376 560h-135l76 151h182zM556 9q0 -58 -17.5 -107t-52.5 -84t-87 -55t-122 -20q-39 0 -83 7.5t-85 16.5l18 118q42 -7 79 -13t66 -6q69 0 106 35t39 101q-38 -4 -75.5 -5.5t-70.5 -1.5q-44 0 -81 8.5t-63.5 29.5t-41.5 56.5t-15 89.5v300h139v-268q0 -52 23.5 -75.5
t71.5 -23.5q26 0 54.5 2t59.5 5v360h138v-470z" />
    <glyph glyph-name="glyph235" horiz-adv-x="624" 
d="M264 565h-133l120 137h121l119 -137h-133l-46 52zM556 9q0 -58 -17.5 -107t-52.5 -84t-87 -55t-122 -20q-39 0 -83 7.5t-85 16.5l18 118q42 -7 79 -13t66 -6q69 0 106 35t39 101q-38 -4 -75.5 -5.5t-70.5 -1.5q-44 0 -81 8.5t-63.5 29.5t-41.5 56.5t-15 89.5v300h139
v-268q0 -52 23.5 -75.5t71.5 -23.5q26 0 54.5 2t59.5 5v360h138v-470z" />
    <glyph glyph-name="glyph236" horiz-adv-x="624" 
d="M203 710q35 0 59.5 -23t24.5 -57q0 -35 -24.5 -58t-59.5 -23t-59.5 23t-24.5 58q0 34 24.5 57t59.5 23zM422 710q35 0 59 -23t24 -57q0 -35 -24 -58t-59 -23t-59.5 23t-24.5 58q0 34 24.5 57t59.5 23zM556 9q0 -58 -17.5 -107t-52.5 -84t-87 -55t-122 -20q-39 0 -83 7.5
t-85 16.5l18 118q42 -7 79 -13t66 -6q69 0 106 35t39 101q-38 -4 -75.5 -5.5t-70.5 -1.5q-44 0 -81 8.5t-63.5 29.5t-41.5 56.5t-15 89.5v300h139v-268q0 -52 23.5 -75.5t71.5 -23.5q26 0 54.5 2t59.5 5v360h138v-470z" />
    <glyph glyph-name="glyph237" horiz-adv-x="624" 
d="M256 560l-122 151h182l75 -151h-135zM556 9q0 -58 -17.5 -107t-52.5 -84t-87 -55t-122 -20q-39 0 -83 7.5t-85 16.5l18 118q42 -7 79 -13t66 -6q69 0 106 35t39 101q-38 -4 -75.5 -5.5t-70.5 -1.5q-44 0 -81 8.5t-63.5 29.5t-41.5 56.5t-15 89.5v300h139v-268
q0 -52 23.5 -75.5t71.5 -23.5q26 0 54.5 2t59.5 5v360h138v-470z" />
    <glyph glyph-name="glyph238" horiz-adv-x="571" 
d="M294 498q213 1 213 -183v-305q-68 -10 -113.5 -15t-77 -7.5t-54 -2.5h-45.5q-89 0 -136 42.5t-47 120.5q0 72 52.5 109.5t162.5 42.5l129 7v4q0 35 -25 51.5t-72 16.5q-49 0 -95 -5.5t-91 -12.5l-15 115q62 10 110 16t104 6zM251 93q19 0 50.5 2t76.5 7v106l-134 -8
q-80 -3 -80 -54q0 -26 22.5 -39.5t64.5 -13.5z" />
    <glyph glyph-name="glyph239" horiz-adv-x="571" 
d="M336 560h-135l76 151h182zM294 498q214 1 214 -183v-305q-69 -10 -114 -15t-76.5 -7.5t-54.5 -2.5h-46q-89 0 -136 42.5t-47 120.5q0 72 52.5 109.5t163.5 42.5l128 7v4q0 35 -25 51.5t-72 16.5q-48 0 -94.5 -5.5t-91.5 -12.5l-14 115q31 5 57.5 9t52 7t50.5 4.5t53 1.5z
M251 93q20 0 51 2t76 7v106l-133 -8q-81 -3 -81 -54q0 -26 22.5 -39.5t64.5 -13.5z" />
    <glyph glyph-name="glyph240" horiz-adv-x="571" 
d="M435 711q0 -75 -44 -116t-119 -41t-119 41t-44 116h114q0 -29 13.5 -40.5t35.5 -11.5q20 0 33.5 11.5t13.5 40.5h116zM294 498q214 1 214 -183v-305q-69 -10 -114 -15t-76.5 -7.5t-54.5 -2.5h-46q-89 0 -136 42.5t-47 120.5q0 72 52.5 109.5t163.5 42.5l128 7v4
q0 35 -25 51.5t-72 16.5q-48 0 -94.5 -5.5t-91.5 -12.5l-14 115q31 5 57.5 9t52 7t50.5 4.5t53 1.5zM251 93q20 0 51 2t76 7v106l-133 -8q-81 -3 -81 -54q0 -26 22.5 -39.5t64.5 -13.5z" />
    <glyph glyph-name="glyph241" horiz-adv-x="571" 
d="M211 560l-120 151h133l47 -61l47 61h133l-119 -151h-121zM294 498q214 1 214 -183v-305q-69 -10 -114 -15t-76.5 -7.5t-54.5 -2.5h-46q-89 0 -136 42.5t-47 120.5q0 72 52.5 109.5t163.5 42.5l128 7v4q0 35 -25 51.5t-72 16.5q-48 0 -94.5 -5.5t-91.5 -12.5l-14 115
q31 5 57.5 9t52 7t50.5 4.5t53 1.5zM251 93q20 0 51 2t76 7v106l-133 -8q-81 -3 -81 -54q0 -26 22.5 -39.5t64.5 -13.5z" />
    <glyph glyph-name="glyph242" horiz-adv-x="571" 
d="M224 565h-133l120 137h121l119 -137h-133l-46 52zM294 498q214 1 214 -183v-305q-69 -10 -114 -15t-76.5 -7.5t-54.5 -2.5h-46q-89 0 -136 42.5t-47 120.5q0 72 52.5 109.5t163.5 42.5l128 7v4q0 35 -25 51.5t-72 16.5q-48 0 -94.5 -5.5t-91.5 -12.5l-14 115q31 5 57.5 9
t52 7t50.5 4.5t53 1.5zM251 93q20 0 51 2t76 7v106l-133 -8q-81 -3 -81 -54q0 -26 22.5 -39.5t64.5 -13.5z" />
    <glyph glyph-name="glyph243" horiz-adv-x="571" 
d="M163 710q35 0 59.5 -23t24.5 -57q0 -35 -24.5 -58t-59.5 -23t-59.5 23t-24.5 58q0 34 24.5 57t59.5 23zM382 710q35 0 59 -23t24 -57q0 -35 -24 -58t-59 -23t-59.5 23t-24.5 58q0 34 24.5 57t59.5 23zM294 498q214 1 214 -183v-305q-69 -10 -114 -15t-76.5 -7.5
t-54.5 -2.5h-46q-89 0 -136 42.5t-47 120.5q0 72 52.5 109.5t163.5 42.5l128 7v4q0 35 -25 51.5t-72 16.5q-48 0 -94.5 -5.5t-91.5 -12.5l-14 115q31 5 57.5 9t52 7t50.5 4.5t53 1.5zM251 93q20 0 51 2t76 7v106l-133 -8q-81 -3 -81 -54q0 -26 22.5 -39.5t64.5 -13.5z" />
    <glyph glyph-name="glyph244" horiz-adv-x="571" 
d="M215 560l-122 151h182l75 -151h-135zM294 498q214 1 214 -183v-305q-69 -10 -114 -15t-76.5 -7.5t-54.5 -2.5h-46q-89 0 -136 42.5t-47 120.5q0 72 52.5 109.5t163.5 42.5l128 7v4q0 35 -25 51.5t-72 16.5q-48 0 -94.5 -5.5t-91.5 -12.5l-14 115q31 5 57.5 9t52 7
t50.5 4.5t53 1.5zM251 93q20 0 51 2t76 7v106l-133 -8q-81 -3 -81 -54q0 -26 22.5 -39.5t64.5 -13.5z" />
    <glyph glyph-name="glyph245" horiz-adv-x="571" 
d="M413 573h-282v111h282v-111zM294 498q214 1 214 -183v-305q-69 -10 -114 -15t-76.5 -7.5t-54.5 -2.5h-46q-89 0 -136 42.5t-47 120.5q0 72 52.5 109.5t163.5 42.5l128 7v4q0 35 -25 51.5t-72 16.5q-48 0 -94.5 -5.5t-91.5 -12.5l-14 115q31 5 57.5 9t52 7t50.5 4.5
t53 1.5zM251 93q20 0 51 2t76 7v106l-133 -8q-81 -3 -81 -54q0 -26 22.5 -39.5t64.5 -13.5z" />
    <glyph glyph-name="glyph246" horiz-adv-x="571" 
d="M555 -181q-10 -5 -31 -9t-44 -4q-67 0 -108 32t-41 86q0 39 33 68q-27 -3 -47.5 -4t-37.5 -2t-32 -1h-30q-89 0 -136 42.5t-47 120.5q0 72 52.5 109.5t163.5 42.5l128 7v4q0 35 -25 51.5t-72 16.5q-48 0 -94.5 -5.5t-91.5 -12.5l-14 115q31 5 57.5 9t52 7t50.5 4.5
t53 1.5q214 1 214 -183v-305h-2q-38 -14 -50 -28.5t-12 -29.5q0 -18 12.5 -27.5t41.5 -9.5q11 0 20.5 1.5t23.5 4.5zM164 146q0 -26 22.5 -39.5t64.5 -13.5q20 0 51 2t76 7v106l-133 -8q-81 -3 -81 -54z" />
    <glyph glyph-name="glyph247" horiz-adv-x="571" 
d="M271 765q54 0 86.5 -30t32.5 -81q0 -50 -32.5 -80.5t-86.5 -30.5t-86.5 30.5t-32.5 80.5q0 51 32.5 81t86.5 30zM271 611q20 0 32 11.5t12 31.5t-12 31.5t-32 11.5t-31.5 -11.5t-11.5 -31.5t11.5 -31.5t31.5 -11.5zM294 498q214 1 214 -183v-305q-69 -10 -114 -15
t-76.5 -7.5t-54.5 -2.5h-46q-89 0 -136 42.5t-47 120.5q0 72 52.5 109.5t163.5 42.5l128 7v4q0 35 -25 51.5t-72 16.5q-48 0 -94.5 -5.5t-91.5 -12.5l-14 115q31 5 57.5 9t52 7t50.5 4.5t53 1.5zM251 93q20 0 51 2t76 7v106l-133 -8q-81 -3 -81 -54q0 -26 22.5 -39.5
t64.5 -13.5z" />
    <glyph glyph-name="glyph248" horiz-adv-x="571" 
d="M460 694q0 -50 -18 -80.5t-45 -45t-58 -13t-56 15.5l-46 27q-12 7 -20.5 7t-13 -4.5t-6.5 -12t-2 -14.5h-108q0 50 18 80.5t45 45t58 13.5t56 -15l46 -28q12 -7 20.5 -7t13 4.5t6.5 12t2 14.5h108zM294 498q214 1 214 -183v-305q-69 -10 -114 -15t-76.5 -7.5t-54.5 -2.5
h-46q-89 0 -136 42.5t-47 120.5q0 72 52.5 109.5t163.5 42.5l128 7v4q0 35 -25 51.5t-72 16.5q-48 0 -94.5 -5.5t-91.5 -12.5l-14 115q31 5 57.5 9t52 7t50.5 4.5t53 1.5zM251 93q20 0 51 2t76 7v106l-133 -8q-81 -3 -81 -54q0 -26 22.5 -39.5t64.5 -13.5z" />
    <glyph glyph-name="glyph249" horiz-adv-x="1047" 
d="M769 494q57 0 101.5 -18t75 -51t46.5 -79.5t16 -103.5q0 -59 -17 -106.5t-47.5 -81t-73 -51.5t-92.5 -18q-28 0 -54.5 0.5t-58 2.5t-72 7.5t-97.5 14.5v596q-16 6 -29.5 10.5t-27 7t-27.5 4t-32 1.5q-66 0 -94.5 -29t-28.5 -83v-38h173v-124h-173v-355h-139v355h-109v124
h109v44q0 112 62.5 171t190.5 59q38 0 70 -8.5t64 -20.5l130 -7v-234q28 5 60.5 8t73.5 3zM757 101q53 0 85 38.5t32 98.5q0 30 -6.5 56t-21.5 44.5t-39 29.5t-59 11q-33 0 -60.5 -3t-52.5 -8v-259q44 -7 71 -7.5t51 -0.5z" />
    <glyph glyph-name="glyph250" horiz-adv-x="821" 
d="M652 355v-355h-138v355h-257v-355h-139v355h-109v124h109v41q0 56 20.5 99.5t55.5 73t80.5 45t96.5 15.5q59 0 102.5 -16t88.5 -47q55 63 155 63q24 0 44 -2.5t40 -7.5l-19 -116q-14 2 -26 2.5t-28 0.5q-34 0 -55 -22.5t-21 -70.5v-58h164v-124h-164zM514 542
q0 10 0.5 19t1.5 17q-68 51 -135 51q-53 0 -88.5 -29t-35.5 -84v-37h257v63z" />
    <glyph glyph-name="glyph251" horiz-adv-x="1433" 
d="M1145 494q63 0 109.5 -18t77.5 -51t46.5 -79t15.5 -102q0 -63 -18 -110.5t-49 -79.5t-73 -48.5t-90 -16.5h-53t-57.5 1.5t-72.5 5.5t-98 11v598q-32 13 -59 18.5t-67 5.5q-60 0 -87 -29t-27 -83v-38h174v-124h-174v-355h-139v355h-247v-355h-139v355h-109v124h109v41
q0 56 19.5 99.5t53 73t80 45t100.5 15.5q59 0 102.5 -16t88.5 -47q63 63 186 63q43 0 76.5 -9t64.5 -20l133 -7v-234q25 5 60 8t63 3zM504 523q0 17 1.5 31.5t3.5 28.5q-64 46 -128 46q-60 0 -92 -29t-32 -84v-37h247v44zM1133 101q66 0 96.5 39t30.5 104q0 29 -6.5 53.5
t-22.5 42.5t-41.5 28.5t-63.5 10.5q-20 0 -49 -3t-55 -8v-259q43 -5 70.5 -6.5t40.5 -1.5z" />
    <glyph glyph-name="glyph252" horiz-adv-x="1198" 
d="M1029 355v-355h-138v355h-248v-355h-139v355h-247v-355h-139v355h-109v124h109v41q0 56 19.5 99.5t53 73t80 45t100.5 15.5q61 0 106 -17.5t92 -50.5q34 33 82.5 50.5t105.5 17.5t99.5 -15t86.5 -44q56 59 151 59q24 0 44 -2.5t40 -7.5l-19 -116q-14 2 -26 2.5t-27 0.5
q-35 0 -56 -22.5t-21 -70.5v-58h164v-124h-164zM504 520q0 35 7 62q-63 47 -130 47q-60 0 -92 -29t-32 -84v-37h247v41zM891 542q0 22 3 42q-63 45 -127 45q-60 0 -92 -29t-32 -84v-37h248v63z" />
    <glyph glyph-name="glyph253" horiz-adv-x="1423" 
d="M1159 494q45 0 82 -13t63.5 -37t41 -58t14.5 -76v-310h-139v269q0 46 -26.5 72.5t-68.5 26.5q-26 0 -54.5 -3.5t-59.5 -8.5v-356h-138v605q-32 13 -57.5 18.5t-59.5 5.5q-60 0 -87 -29t-27 -83v-38h164v-124h-164v-355h-139v355h-247v-355h-139v355h-109v124h109v41
q0 56 19.5 99.5t53 73t80 45t100.5 15.5q59 0 102.5 -16t88.5 -47q63 63 186 63q38 0 70 -9t62 -20l133 -7v-12h-1v-223q38 5 76 8.5t71 3.5zM504 523q0 17 1.5 31.5t3.5 28.5q-64 46 -128 46q-60 0 -92 -29t-32 -84v-37h247v44z" />
    <glyph glyph-name="glyph254" horiz-adv-x="1053" 
d="M1007 0h-138v355h-226v-355h-139v355h-247v-355h-139v355h-109v124h109v41q0 56 19.5 99.5t53.5 73t80.5 45t100.5 15.5q30 0 56 -4.5t49.5 -13t45.5 -21.5t46 -29q71 68 189 68q33 0 61 -5t53 -15.5t49.5 -25.5t50.5 -34l-68 -96q-35 26 -68 39t-69 13q-60 0 -92 -29
t-32 -84v-37h364v-479zM504 520q0 35 7 62q-63 47 -130 47q-60 0 -92 -29t-32 -84v-37h247v41z" />
    <glyph glyph-name="glyph255" horiz-adv-x="1049" 
d="M995 16q0 -58 -9 -103t-34.5 -76.5t-70.5 -48.5t-118 -18l-11 119q34 -1 54.5 5.5t31.5 20.5t14.5 35.5t3.5 49.5v355h-213v-355h-139v355h-247v-355h-139v355h-109v124h109v41q0 56 19.5 99.5t53.5 73t80.5 45t100.5 15.5q30 0 56 -4.5t49.5 -13t45.5 -21.5t46 -29
q71 68 189 68q33 0 61 -5t53 -15.5t49.5 -25.5t50.5 -34l-68 -96q-35 26 -68 39t-69 13q-60 0 -92 -29t-32 -84v-37h352v-463zM504 520q0 35 7 62q-63 47 -130 47q-60 0 -92 -29t-32 -84v-37h247v41z" />
    <glyph glyph-name="glyph256" horiz-adv-x="1393" 
d="M1214 0l-124 178h-78v-178h-138v605q-32 13 -57.5 18.5t-59.5 5.5q-60 0 -87 -29t-27 -83v-38h164v-124h-164v-355h-139v355h-247v-355h-139v355h-109v124h109v41q0 56 19.5 99.5t53 73t80 45t100.5 15.5q59 0 102.5 -16t88.5 -47q63 63 186 63q38 0 70 -9t62 -20l133 -7
v-12h-1v-398h30l155 172h166l-181 -200l193 -279h-161zM504 523q0 17 1.5 31.5t3.5 28.5q-64 46 -128 46q-60 0 -92 -29t-32 -84v-37h247v44z" />
    <glyph glyph-name="glyph257" horiz-adv-x="1075" 
d="M1003 0h-139v609q-28 11 -51 15.5t-55 4.5q-60 0 -87.5 -29t-27.5 -83v-38h164v-124h-164v-355h-139v355h-247v-355h-139v355h-109v124h109v41q0 56 19.5 99.5t53.5 73t80.5 45t100.5 15.5q58 0 101.5 -16t88.5 -47q63 63 186 63q38 0 71 -9t63 -21l121 -6v-717zM504 523
q0 17 1.5 31.5t3.5 28.5q-64 46 -128 46q-60 0 -92 -29t-32 -84v-37h247v44z" />
    <glyph glyph-name="glyph258" horiz-adv-x="1226" 
d="M1201 1q-18 -4 -32.5 -7t-30 -5t-33 -3t-41.5 -1q-89 0 -137 50t-48 144v176h-236v-355h-139v355h-247v-355h-139v355h-109v124h109v41q0 56 19.5 99.5t53 73t80 45t100.5 15.5q58 0 100 -15.5t86 -44.5q57 60 160 60q26 0 48 -3.5t42 -8.5l-19 -115q-15 2 -28.5 3
t-31.5 1q-42 0 -63.5 -22.5t-21.5 -70.5v-58h236v171h139v-171h152v-124h-152v-162q0 -40 17 -62t59 -22q21 0 42.5 1.5t50.5 5.5zM504 542q0 22 3 43q-62 44 -126 44q-60 0 -92 -29t-32 -84v-37h247v63z" />
    <glyph glyph-name="glyph259" horiz-adv-x="1046" 
d="M782 494q45 0 82 -13t63.5 -37t41 -58t14.5 -76v-310h-139v269q0 46 -26.5 72.5t-68.5 26.5q-53 0 -114 -12v-356h-139v606q-16 6 -29.5 10.5t-27 7t-27.5 4t-32 1.5q-66 0 -94.5 -29t-28.5 -83v-38h173v-124h-173v-355h-139v355h-109v124h109v44q0 112 62.5 171
t190.5 59q38 0 70 -8.5t64 -20.5l130 -7v-235q38 5 76 8.5t71 3.5z" />
    <glyph glyph-name="glyph260" horiz-adv-x="672" 
d="M618 16q0 -58 -9 -103t-34.5 -76.5t-70.5 -48.5t-118 -18l-11 119q34 -1 54.5 5.5t31.5 20.5t14.5 35.5t3.5 49.5v355h-222v-355h-139v355h-109v124h109v41q0 56 19.5 99.5t54.5 73t83 45t106 15.5q33 0 61 -5t53 -15.5t49.5 -25.5t50.5 -34l-68 -96q-35 26 -68 39
t-69 13q-66 0 -99.5 -29t-33.5 -84v-37h361v-463z" />
    <glyph glyph-name="glyph261" horiz-adv-x="1007" 
d="M712 178h-86v-178h-139v606q-16 6 -29.5 10.5t-27 7t-27.5 4t-32 1.5q-60 0 -87 -29t-27 -83v-38h164v-124h-164v-355h-139v355h-109v124h109v44q0 112 61.5 171t182.5 59q38 0 70 -8.5t63 -20.5l131 -7v-410h30l155 172h166l-181 -200l192 -279h-160z" />
    <glyph glyph-name="glyph262" horiz-adv-x="840" 
d="M814 1q-18 -4 -32.5 -7t-29.5 -5t-33 -3t-42 -1q-88 0 -136 50t-48 144v176h-236v-355h-139v355h-109v124h109v63q0 102 57.5 156.5t155.5 54.5q26 0 48 -3.5t42 -8.5l-19 -115q-15 2 -28.5 3t-31.5 1q-42 0 -63.5 -22.5t-21.5 -70.5v-58h236v171h139v-171h152v-124h-152
v-162q0 -40 17 -62t59 -22q21 0 42.5 1.5t50.5 5.5z" />
    <glyph glyph-name="glyph265" horiz-adv-x="761" 
d="M602 355v-355h-139v354q-55 -1 -123.5 -2.5t-130.5 -6.5v-345h-139v448q30 6 79.5 11t105 9.5t111 7t97.5 3.5v63q0 51 15 90t42 66t64.5 41t82.5 14q23 0 43 -2.5t40 -7.5l-19 -116q-13 2 -25.5 2.5t-27.5 0.5q-35 0 -55.5 -22.5t-20.5 -70.5v-58h154v-124h-154z" />
    <glyph glyph-name="glyph266" horiz-adv-x="799" 
d="M743 489v-124h-152v-172q0 -40 17.5 -62t58.5 -22q22 0 43 1.5t50 5.5l14 -115q-18 -4 -32.5 -7t-30 -5t-33 -3t-41.5 -1q-88 0 -136.5 50t-48.5 144v185q-52 -1 -118 -2.5t-125 -6.5v-355h-139v458q31 5 79 10t102 9.5t107 7t94 3.5v162h139v-161h152z" />
    <glyph glyph-name="glyph279" horiz-adv-x="645" 
d="M323 556q62 0 114 -20.5t89.5 -58t58.5 -89.5t21 -116t-21 -116t-58.5 -89.5t-89.5 -58t-114 -20.5t-114 20.5t-90 58t-59.5 89.5t-21.5 116t21.5 116t59.5 89.5t90 58t114 20.5zM323 113q31 0 58 11.5t47 32.5t31.5 50t11.5 65t-11.5 65t-31.5 50t-47 32.5t-58 11.5
t-58.5 -11.5t-47.5 -32.5t-32 -50t-12 -65t12 -65t32 -50t47.5 -32.5t58.5 -11.5z" />
    <glyph glyph-name="glyph280" horiz-adv-x="491" 
d="M482 0h-468v118h185v262l-167 -41l-31 120l294 85h42v-426h145v-118z" />
    <glyph glyph-name="glyph281" horiz-adv-x="546" 
d="M260 547q63 0 107.5 -14.5t72.5 -39.5t41 -57.5t13 -68.5q0 -30 -9 -60t-30.5 -60t-57 -60t-87.5 -61l-12 -7h213v-119h-463v95l104 60q68 40 106.5 70t58 52.5t24.5 38t5 27.5q0 40 -28.5 56.5t-79.5 16.5q-17 0 -61.5 -5.5t-112.5 -19.5l-20 126q48 12 106 21t110 9z
" />
    <glyph glyph-name="glyph282" horiz-adv-x="583" 
d="M345 255h6q91 -10 143.5 -60.5t52.5 -125.5q0 -103 -67 -163.5t-205 -60.5q-60 0 -122 12.5t-122 43.5l47 112q51 -23 102.5 -35t98.5 -12q57 0 91.5 27t34.5 72q0 35 -33.5 56t-90.5 21h-130v65l178 206h-273v127h463v-84z" />
    <glyph glyph-name="glyph283" horiz-adv-x="648" 
d="M630 114v-114h-80v-136h-136v136h-385v92l385 452h136v-430h80zM414 114v250l-208 -250h208z" />
    <glyph glyph-name="glyph284" horiz-adv-x="597" 
d="M305 288q57 -3 103 -18.5t79 -42t50.5 -64t17.5 -84.5q0 -50 -18 -92t-52 -73t-82.5 -48t-109.5 -17q-74 0 -133.5 12.5t-119.5 44.5l43 117q54 -23 102 -36.5t103 -13.5q60 0 97 27.5t37 75.5q0 41 -35.5 64t-105.5 26l-192 9l31 369h409v-132h-288l-11 -120z" />
    <glyph glyph-name="glyph285" horiz-adv-x="616" 
d="M308 487q61 0 112.5 -17t88.5 -48.5t57.5 -77t20.5 -102.5q0 -58 -20.5 -105.5t-57.5 -81t-88.5 -52t-112.5 -18.5q-62 0 -113.5 18.5t-88 52t-57 81t-20.5 105.5q0 43 14.5 80.5t37.5 67.5l200 290h160l-134 -193h1zM308 105q63 0 102.5 37t39.5 100q0 60 -39.5 97
t-102.5 37q-66 0 -104.5 -37t-38.5 -97q0 -63 40 -100t103 -37z" />
    <glyph glyph-name="glyph286" horiz-adv-x="548" 
d="M272 -136h-153l244 548h-334v132h501v-85z" />
    <glyph glyph-name="glyph287" horiz-adv-x="628" 
d="M469 352q63 -26 91.5 -67.5t28.5 -97.5q0 -44 -19.5 -81t-55.5 -64t-87 -42t-113 -15t-113 15t-87 42t-55.5 64t-19.5 81q0 56 28.5 97.5t90.5 67.5q-49 23 -71 61t-22 89q0 44 18.5 79.5t51.5 61t78.5 39t100.5 13.5t100.5 -13.5t78.5 -39t51 -61t18 -79.5
q0 -51 -21.5 -89t-71.5 -61zM211 494q0 -40 28.5 -64.5t74.5 -24.5q47 0 75.5 24.5t28.5 64.5q0 38 -28.5 62.5t-75.5 24.5q-46 0 -74.5 -24.5t-28.5 -62.5zM314 105q28 0 51 7.5t39.5 20.5t25.5 29.5t9 34.5q0 42 -34 68t-91 26t-91 -26t-34 -68q0 -18 9 -34.5t25.5 -29.5
t39.5 -20.5t51 -7.5z" />
    <glyph glyph-name="glyph288" horiz-adv-x="644" 
d="M317 559q62 0 113.5 -18.5t88 -52.5t57 -81t20.5 -105q0 -43 -15.5 -80t-36.5 -68l-200 -290h-162l134 193q-62 0 -113 17t-87.5 48.5t-57 77t-20.5 102.5q0 58 20.5 105t57.5 81t88 52.5t113 18.5zM175 302q0 -60 39.5 -97t102.5 -37q66 0 104.5 37t38.5 97
q0 63 -40 100t-103 37t-102.5 -37t-39.5 -100z" />
    <glyph glyph-name="glyph289" horiz-adv-x="645" 
d="M323 556q61 0 113 -20.5t90 -58t59 -89.5t21 -116t-21 -116t-59 -89.5t-90 -58t-113 -20.5q-62 0 -114 20.5t-90 58t-59.5 89.5t-21.5 116t21.5 116t59.5 89.5t90 58t114 20.5zM323 431q-32 0 -59 -11.5t-47.5 -32.5t-32 -50t-11.5 -65q0 -38 14 -71l208 211
q-33 19 -72 19zM323 113q30 0 57 11.5t47.5 32.5t32 50t11.5 65q0 24 -5.5 45t-15.5 39l-213 -217q37 -26 86 -26z" />
    <glyph glyph-name="glyph290" horiz-adv-x="599" 
d="M430 344q127 -35 127 -157q0 -97 -71.5 -149.5t-197.5 -52.5q-65 0 -125.5 13t-110.5 33l32 121q60 -20 107 -28t82 -8q69 0 104 23.5t35 60.5q0 39 -34.5 59.5t-86.5 20.5h-130v119h130q52 0 82 20.5t30 59.5q0 42 -34 63.5t-97 21.5q-37 0 -84.5 -8t-103.5 -28l-32 121
q50 20 111 33t121 13t108.5 -14t83 -40t53 -62t18.5 -81q0 -62 -33.5 -99.5t-83.5 -54.5z" />
    <glyph glyph-name="glyph291" horiz-adv-x="643" 
d="M322 695q66 0 120 -25.5t93 -72t60 -112t21 -145.5t-21 -145.5t-60 -112t-93 -72t-120 -25.5t-120 25.5t-93 72t-60 112t-21 145.5t21 145.5t60 112t93 72t120 25.5zM322 114q34 0 61.5 16.5t47.5 46t31 71t11 92.5t-11 92.5t-31 71.5t-47.5 46t-61.5 16t-62 -16t-48 -46
t-31 -71.5t-11 -92.5t11 -92.5t31 -71t48 -46t62 -16.5z" />
    <glyph glyph-name="glyph292" horiz-adv-x="643" 
d="M72 0v118h194v395l-163 -41l-31 123l294 85h42v-562h184v-118h-520z" />
    <glyph glyph-name="glyph293" horiz-adv-x="643" 
d="M80 0v95l233 226q19 18 36 34.5t29.5 33t20 34t7.5 37.5q0 54 -35 78.5t-89 24.5q-29 0 -71 -7.5t-105 -28.5l-31 122q51 20 111.5 33t119.5 13q64 0 111 -18t77.5 -47.5t45 -68t14.5 -80.5q0 -38 -12.5 -73t-34.5 -68t-53 -64.5t-67 -61.5l-103 -85h299v-129h-503z" />
    <glyph glyph-name="glyph294" horiz-adv-x="643" 
d="M388 395h6q90 -10 142.5 -60.5t52.5 -125.5q0 -103 -67 -163.5t-205 -60.5q-60 0 -122 12.5t-122 43.5l48 112q50 -23 101.5 -35t99.5 -12q56 0 90 27t34 72q0 34 -33 55t-90 21h-130v66l176 205h-271v128h463v-84z" />
    <glyph glyph-name="glyph295" horiz-adv-x="643" 
d="M617 233v-120h-76v-113h-140v113h-365v98l365 469h140v-447h76zM401 233v267l-187 -267h187z" />
    <glyph glyph-name="glyph296" horiz-adv-x="643" 
d="M340 425q57 -3 103 -18.5t78.5 -42t50.5 -64t18 -85.5q0 -50 -18.5 -92t-52.5 -73t-82.5 -48t-108.5 -17q-74 0 -133.5 12.5t-120.5 44.5l45 122q53 -23 101 -36.5t103 -13.5q56 0 89 27.5t33 70.5q0 38 -35 62t-92 26l-194 9l31 371h409v-133h-287l-10 -118z" />
    <glyph glyph-name="glyph297" horiz-adv-x="643" 
d="M320 487q61 0 112.5 -17t88.5 -48.5t57.5 -77t20.5 -102.5q0 -58 -20.5 -105.5t-57.5 -81t-88.5 -52t-112.5 -18.5q-62 0 -113.5 18.5t-88 52t-57 81t-20.5 105.5q0 43 16 79.5t36 68.5l182 290h163l-122 -193h4zM320 105q63 0 102.5 37t39.5 100q0 60 -39.5 97
t-102.5 37q-65 0 -104 -37t-39 -97q0 -63 40 -100t103 -37z" />
    <glyph glyph-name="glyph298" horiz-adv-x="643" 
d="M286 0h-155l284 547h-361v133h539v-85z" />
    <glyph glyph-name="glyph299" horiz-adv-x="643" 
d="M485 352q63 -26 91.5 -67.5t28.5 -97.5q0 -44 -20 -81t-56 -64t-87 -42t-113 -15t-112.5 15t-86.5 42t-55.5 64t-19.5 81q0 56 28 97.5t91 67.5q-50 23 -71.5 61t-21.5 89q0 44 18.5 79.5t51.5 61t78.5 39t99.5 13.5q55 0 101 -13.5t79 -39t51 -61t18 -79.5
q0 -51 -21.5 -89t-71.5 -61zM226 494q0 -40 28.5 -64.5t74.5 -24.5q47 0 76 24.5t29 64.5q0 38 -29 62.5t-76 24.5q-46 0 -74.5 -24.5t-28.5 -62.5zM329 105q28 0 51 7.5t39.5 20.5t25.5 29.5t9 34.5q0 42 -34 68t-91 26q-56 0 -90 -26t-34 -68q0 -18 9 -34.5t25.5 -29.5
t39 -20.5t50.5 -7.5z" />
    <glyph glyph-name="glyph300" horiz-adv-x="643" 
d="M332 695q62 0 113.5 -18.5t88 -52.5t57 -81t20.5 -105q0 -43 -15 -80t-37 -68l-200 -290h-162l134 193q-62 0 -113 17t-87.5 48.5t-57 77t-20.5 102.5q0 58 20.5 105t57.5 81t88 52.5t113 18.5zM190 438q0 -60 39.5 -97t102.5 -37q66 0 104.5 37t38.5 97q0 63 -40 100
t-103 37t-102.5 -37t-39.5 -100z" />
    <glyph glyph-name="glyph301" horiz-adv-x="746" 
d="M374 695q72 0 131.5 -25.5t102 -72t65.5 -112t23 -145.5t-23 -145.5t-65.5 -112t-102 -72t-131.5 -25.5q-73 0 -132.5 25.5t-102 72t-65.5 112t-23 145.5t23 145.5t65.5 112t102 72t132.5 25.5zM374 566q-41 0 -74 -16t-56.5 -46t-36.5 -71.5t-13 -92.5q0 -76 28 -130
l232 336q-37 20 -80 20zM277 145q42 -31 97 -31q40 0 73 16.5t56.5 46t36.5 71t13 92.5q0 45 -10 82t-29 66z" />
    <glyph glyph-name="glyph310" horiz-adv-x="469" 
d="M235 404q46 0 84 -15t65 -42t41.5 -64.5t14.5 -83.5q0 -47 -14.5 -85t-41.5 -65t-65 -42t-84 -15t-84 15t-65 42t-42 65t-15 85q0 46 15 83.5t42 64.5t65 42t84 15zM235 86q45 0 73 31t28 82q0 50 -28 80.5t-73 30.5t-73 -30.5t-28 -80.5q0 -51 28 -82t73 -31z" />
    <glyph glyph-name="glyph311" horiz-adv-x="314" 
d="M286 0h-264v91h80v179l-74 -20l-23 92l171 53h30v-304h80v-91z" />
    <glyph glyph-name="glyph312" horiz-adv-x="352" 
d="M23 0v70l146 129q17 12 25.5 26t8.5 35q0 26 -15 36t-43 10q-14 0 -38.5 -2.5t-66.5 -14.5l-21 90q31 11 69 17.5t74 6.5q42 0 70.5 -11.5t46.5 -29.5t26 -40.5t8 -45.5q0 -47 -26 -84.5t-68 -75.5l-31 -27h135v-89h-300z" />
    <glyph glyph-name="glyph313" horiz-adv-x="364" 
d="M222 234l5 -1q49 -6 79 -36.5t30 -68.5q0 -64 -39.5 -100t-129.5 -36q-35 0 -73.5 6.5t-74.5 26.5l35 82q29 -12 59 -19t56 -7q33 0 51 10t18 29q0 14 -11 22.5t-35 8.5h-109v48l93 103h-135v93h277v-61z" />
    <glyph glyph-name="glyph314" horiz-adv-x="402" 
d="M397 168v-87h-56v-81h-102v81h-225v73l218 241h109v-227h56zM239 168v113l-97 -113h97z" />
    <glyph glyph-name="glyph315" horiz-adv-x="381" 
d="M209 254q71 -3 107.5 -35.5t36.5 -88.5q0 -29 -11 -54.5t-32 -44t-51 -29t-69 -10.5q-48 0 -83.5 6.5t-74.5 26.5l33 87q32 -14 59 -22t60 -8t52.5 12.5t19.5 31.5q0 17 -17 25.5t-43 9.5l-128 7l17 227h252v-93h-163l-4 -47z" />
    <glyph glyph-name="glyph316" horiz-adv-x="399" 
d="M220 293q67 -5 108.5 -44t41.5 -105q0 -35 -12.5 -64t-35 -50t-54 -32.5t-69.5 -11.5t-69.5 11.5t-54 32.5t-35 50t-12.5 64q0 26 9 48.5t22 42.5l110 160h121zM199 75q32 0 52 18.5t20 50.5q0 30 -20 48t-52 18t-51.5 -18.5t-19.5 -47.5q0 -32 19.5 -50.5t51.5 -18.5z
" />
    <glyph glyph-name="glyph317" horiz-adv-x="333" 
d="M176 0h-115l132 297h-179v98h305v-63z" />
    <glyph glyph-name="glyph318" horiz-adv-x="363" 
d="M278 203q39 -15 55 -38.5t16 -54.5q0 -26 -12 -47.5t-34 -37.5t-53 -24.5t-68 -8.5q-78 0 -123 33t-45 85q0 32 16 55t55 38q-33 14 -45 35t-12 50q0 53 43 84.5t111 31.5t110.5 -31.5t42.5 -84.5q0 -29 -12 -50t-45 -35zM134 279q0 -22 13 -33t35 -11t35.5 11t13.5 33
q0 18 -13.5 31t-35.5 13t-35 -13t-13 -31zM182 74q26 0 41 13t15 34q0 23 -15 36t-41 13t-42 -13t-15 -36q-1 -21 15 -34t42 -13z" />
    <glyph glyph-name="glyph319" horiz-adv-x="390" 
d="M366 251q0 -26 -8.5 -49t-22.5 -42l-3 -3l-106 -156h-122l70 101q-68 5 -109 44.5t-41 104.5q0 36 12.5 65t35 50t54 32.5t69.5 11.5t69.5 -11.5t54 -32.5t35 -50t12.5 -65zM123 252q0 -30 20 -48t52 -18t51.5 18t19.5 48q0 31 -19.5 50t-51.5 19t-52 -19t-20 -50z" />
    <glyph glyph-name="glyph320" horiz-adv-x="469" 
d="M235 690q46 0 84 -15t65 -42t41.5 -64.5t14.5 -83.5q0 -47 -14.5 -85t-41.5 -65t-65 -42t-84 -15t-84 15t-65 42t-42 65t-15 85q0 46 15 83.5t42 64.5t65 42t84 15zM235 372q45 0 73 31t28 82q0 50 -28 80.5t-73 30.5t-73 -30.5t-28 -80.5q0 -51 28 -82t73 -31z" />
    <glyph glyph-name="glyph321" horiz-adv-x="314" 
d="M286 286h-264v91h80v179l-74 -20l-23 92l171 53h30v-304h80v-91z" />
    <glyph glyph-name="glyph322" horiz-adv-x="352" 
d="M23 286v70l146 129q17 12 25.5 26t8.5 35q0 26 -15 36t-43 10q-14 0 -38.5 -2.5t-66.5 -14.5l-21 91q31 11 69 17t74 6q42 0 70.5 -11.5t46.5 -29.5t26 -40.5t8 -45.5q0 -47 -26 -84.5t-68 -75.5l-31 -27h135v-89h-300z" />
    <glyph glyph-name="glyph323" horiz-adv-x="364" 
d="M222 520l5 -1q49 -6 79 -36.5t30 -68.5q0 -64 -39.5 -100t-129.5 -36q-35 0 -73.5 6.5t-74.5 26.5l35 82q29 -12 59 -19t56 -7q33 0 51 10t18 29q0 14 -11 22.5t-35 8.5h-109v48l93 103h-135v93h277v-61z" />
    <glyph glyph-name="glyph324" horiz-adv-x="402" 
d="M397 454v-87h-56v-81h-102v81h-225v73l218 241h109v-227h56zM239 454v113l-97 -113h97z" />
    <glyph glyph-name="glyph325" horiz-adv-x="381" 
d="M209 540q71 -3 107.5 -35.5t36.5 -88.5q0 -29 -11 -54.5t-32 -44t-51 -29t-69 -10.5q-48 0 -83.5 7t-74.5 26l33 87q32 -14 59 -22t60 -8t52.5 12.5t19.5 31.5q0 17 -17 25.5t-43 10.5l-128 6l17 227h252v-93h-163l-4 -47z" />
    <glyph glyph-name="glyph326" horiz-adv-x="399" 
d="M220 579q67 -5 108.5 -44t41.5 -105q0 -35 -12.5 -64t-35 -50t-54 -32.5t-69.5 -11.5t-69.5 11.5t-54 32.5t-35 50t-12.5 64q0 26 9 48.5t22 42.5l110 160h121zM199 361q32 0 52 18.5t20 50.5q0 30 -20 48t-52 18t-51.5 -18.5t-19.5 -47.5q0 -32 19.5 -50.5t51.5 -18.5z
" />
    <glyph glyph-name="glyph327" horiz-adv-x="333" 
d="M176 286h-115l132 297h-179v98h305v-63z" />
    <glyph glyph-name="glyph328" horiz-adv-x="363" 
d="M278 485q39 -15 55 -38.5t16 -54.5q0 -26 -12 -47.5t-34 -37.5t-53 -24.5t-68 -8.5q-78 0 -123 33t-45 85q0 32 16 55t55 38q-33 14 -45 35t-12 50q0 53 43 84.5t111 31.5t110.5 -31.5t42.5 -84.5q0 -29 -12 -50t-45 -35zM134 561q0 -22 13 -33t35 -11t35.5 11t13.5 33
q0 18 -13.5 31t-35.5 13t-35 -13t-13 -31zM182 356q26 0 41 13t15 34q0 23 -15 36t-41 13t-42 -13t-15 -36q-1 -21 15 -34t42 -13z" />
    <glyph glyph-name="glyph329" horiz-adv-x="390" 
d="M366 529q0 -26 -8.5 -49t-22.5 -42l-3 -3l-106 -156h-122l70 101q-68 5 -109 44.5t-41 104.5q0 36 12.5 65t35 50t54 32.5t69.5 11.5t69.5 -11.5t54 -32.5t35 -50t12.5 -65zM123 530q0 -30 20 -48t52 -18t51.5 18t19.5 48q0 31 -19.5 50t-51.5 19t-52 -19t-20 -50z" />
    <glyph glyph-name="glyph356" horiz-adv-x="389" 
d="M262 457q0 -27 -3 -46.5t-12 -34t-24.5 -25t-39.5 -17.5q24 -7 39.5 -17t24.5 -25t12 -34.5t3 -46.5v-121q0 -40 18.5 -51.5t60.5 -11.5v-127q-112 0 -164.5 50t-52.5 144v125q0 20 -4.5 31t-14.5 16.5t-25.5 7t-36.5 1.5v119q21 0 36.5 1t25.5 6.5t14.5 17t4.5 31.5v125
q0 94 52.5 143.5t164.5 49.5v-126q-42 0 -60.5 -12t-18.5 -52v-121z" />
    <glyph glyph-name="glyph357" horiz-adv-x="389" 
d="M127 578q0 40 -18.5 52t-60.5 12v126q111 0 164 -49.5t53 -143.5v-125q0 -20 4.5 -31.5t14.5 -17t25.5 -6.5t36.5 -1v-119q-21 0 -36.5 -1.5t-25.5 -7t-14.5 -16.5t-4.5 -31v-125q0 -94 -53 -144t-164 -50v127q42 0 60.5 11.5t18.5 51.5v121q0 27 3 46.5t11.5 34.5t24 25
t39.5 17q-24 7 -39.5 17.5t-24 25t-11.5 34t-3 46.5v121z" />
    <glyph glyph-name="glyph358" horiz-adv-x="366" 
d="M337 50v-133h-285v846h285v-133h-146v-580h146z" />
    <glyph glyph-name="glyph359" horiz-adv-x="366" 
d="M29 763h285v-846h-285v133h146v580h-146v133z" />
    <glyph glyph-name="glyph360" horiz-adv-x="352" 
d="M315 716q-31 -48 -57 -90t-44.5 -84.5t-28.5 -91t-10 -109.5t10 -109t28.5 -90.5t44.5 -84t57 -90.5l-103 -64q-90 110 -130 217.5t-40 220.5q0 114 40 222t130 217z" />
    <glyph glyph-name="glyph361" horiz-adv-x="341" 
d="M129 780q90 -109 130.5 -217t40.5 -222q0 -113 -40.5 -220.5t-130.5 -217.5l-103 64q31 49 57 90.5t44.5 84t28.5 90.5t10 109t-10 109.5t-28.5 91t-44.5 84.5t-57 90z" />
    <glyph glyph-name="glyph365" horiz-adv-x="1016" 
d="M937 272h-858v137h858v-137z" />
    <glyph glyph-name="glyph366" horiz-adv-x="650" 
d="M574 272h-497v137h497v-137z" />
    <glyph glyph-name="glyph367" horiz-adv-x="480" 
d="M400 271h-322v137h322v-137z" />
    <glyph glyph-name="glyph378" horiz-adv-x="604" 
d="M226 116l-188 210l188 210l79 -62l-114 -145l112 -143zM462 116l-188 210l188 210l79 -62l-114 -145l112 -143z" />
    <glyph glyph-name="glyph379" horiz-adv-x="604" 
d="M137 536l188 -210l-188 -210l-77 70l112 143l-114 145zM373 536l188 -210l-188 -210l-77 70l112 143l-114 145z" />
    <glyph glyph-name="glyph380" horiz-adv-x="368" 
d="M226 116l-188 210l188 210l79 -62l-114 -145l112 -143z" />
    <glyph glyph-name="glyph381" horiz-adv-x="368" 
d="M142 536l188 -210l-188 -210l-77 70l112 143l-114 145z" />
    <glyph glyph-name="glyph400" horiz-adv-x="488" 
d="M451 -109h-143l-270 877h142z" />
    <glyph glyph-name="glyph401" horiz-adv-x="350" 
d="M175 188q-30 0 -56 10.5t-44.5 29t-29.5 44t-11 55.5t11 55.5t29.5 44t44.5 29t56 10.5t56 -10.5t45 -29t30 -44t11 -55.5t-11 -55.5t-30 -44t-45 -29t-56 -10.5z" />
    <glyph glyph-name="glyph402" horiz-adv-x="281" 
d="M137 699q38 0 64 -24.5t26 -61.5t-26 -61.5t-64 -24.5q-36 0 -62 24.5t-26 61.5t26 61.5t62 24.5zM204 478l9 -478h-155l9 478h137z" />
    <glyph glyph-name="glyph403" horiz-adv-x="314" 
d="M157 251q-41 0 -69.5 27t-28.5 67q0 41 28.5 68t69.5 27t69.5 -27t28.5 -68q0 -40 -28.5 -67t-69.5 -27z" />
    <glyph glyph-name="glyph404" horiz-adv-x="518" 
d="M326 527q-37 0 -63 24.5t-26 61.5t26 61.5t63 24.5q36 0 62 -24.5t26 -61.5t-26 -61.5t-62 -24.5zM287 -15q-55 0 -99.5 15.5t-76.5 43t-49.5 67t-17.5 87.5q0 45 15.5 84t44 67.5t67.5 44.5t86 16h9l-3 69h129l19 -180h-120q-52 0 -83 -28t-31 -76q0 -40 29.5 -64.5
t77.5 -24.5q43 0 85 4.5t92 12.5l20 -115q-48 -11 -95 -17t-99 -6z" />
    <glyph glyph-name="glyph405" horiz-adv-x="482" 
d="M38 -95l264 863h143l-265 -863h-142z" />
    <glyph glyph-name="glyph409" horiz-adv-x="643" 
d="M564 424v-124h-180l-14 -103q-14 -103 -63 -157.5t-141 -54.5q-32 0 -57 5t-51 12l20 112q22 -3 38.5 -4.5t38.5 -1.5q35 0 52 23t24 71l14 98h-115v124h132l8 60q14 102 63.5 156.5t140.5 54.5q32 0 57.5 -5t50.5 -12l-19 -112q-23 3 -39.5 4.5t-38.5 1.5
q-34 0 -51.5 -23t-24.5 -71l-7 -54h162z" />
    <glyph glyph-name="glyph415" horiz-adv-x="643" 
d="M547 25q-26 -9 -56 -16t-59 -10v-114h-121v116q-47 9 -85 30.5t-65 54t-42 74t-15 91.5q0 49 15 91t42 74.5t65 53.5t85 30v119h121v-117q60 -6 115 -25l-18 -112q-43 9 -82 14.5t-63 5.5q-31 0 -57 -9.5t-44.5 -27.5t-29 -42.5t-10.5 -54.5q0 -61 39.5 -97.5
t102.5 -36.5q25 0 64 5.5t81 13.5z" />
    <glyph glyph-name="glyph416" horiz-adv-x="643" 
d="M606 202q0 -96 -58.5 -148t-155.5 -65v-104h-121v102q-53 5 -113 18t-121 38l34 133q78 -32 144.5 -44.5t114.5 -13.5q59 0 93.5 16.5t34.5 54.5q0 25 -15.5 40t-41.5 25t-59.5 16.5t-68.5 13.5q-56 12 -97 27.5t-68 38.5t-40 55t-13 76q0 42 15 77.5t43.5 62t68 43
t89.5 22.5v113h121v-114q57 -5 109 -16.5t87 -25.5l-35 -128q-66 20 -128 32.5t-107 12.5q-51 0 -80 -17.5t-29 -55.5q0 -20 11.5 -33t32.5 -22t52 -16t70 -15q55 -11 98 -26t72.5 -37.5t45 -55.5t15.5 -80z" />
    <glyph glyph-name="glyph417" horiz-adv-x="643" 
d="M422 124q30 0 72 4t107 16l15 -131q-46 -14 -98 -21t-98 -7q-125 0 -206.5 60.5t-113.5 166.5h-75v91h59q-1 10 -1.5 19.5t-0.5 20.5v16h-57v91h70q13 55 41.5 100.5t69.5 77.5t94.5 49.5t117.5 17.5q45 0 99 -6.5t103 -20.5l-16 -131q-68 12 -110.5 16t-72.5 4
q-64 0 -106.5 -28t-62.5 -79h235l-24 -91h-230v-16q0 -11 0.5 -20.5t1.5 -19.5h218l-22 -91h-170q23 -42 63 -65t98 -23z" />
    <glyph glyph-name="glyph418" horiz-adv-x="643" 
d="M56 0v120h58v153h-58v117h58v92q0 48 17.5 87t49.5 66.5t77 43t100 15.5q52 0 98.5 -6t94.5 -17l-20 -114q-49 7 -90.5 11.5t-84.5 4.5q-48 0 -75.5 -25t-27.5 -69v-89h191v-117h-191v-153h338v-120h-535z" />
    <glyph glyph-name="glyph419" horiz-adv-x="643" 
d="M585 204h-191v-44h191v-96h-191v-64h-146v64h-195v96h195v44h-195v96h156l-191 380h163l139 -285l141 285h162l-190 -380h152v-96z" />
    <glyph glyph-name="glyph439" horiz-adv-x="699" 
d="M350 35q-63 0 -118 23.5t-96 64.5t-64.5 96t-23.5 118q0 62 23.5 117t64.5 96t96 64.5t118 23.5q62 0 117 -23.5t96 -64.5t64.5 -96t23.5 -117q0 -63 -23.5 -118t-64.5 -96t-96 -64.5t-117 -23.5zM350 107q47 0 89 18t73 49.5t49 73t18 89.5q0 47 -18 89t-49 73t-73 49
t-89 18q-48 0 -89.5 -18t-73 -49t-49.5 -73t-18 -89q0 -48 18 -89.5t49.5 -73t73 -49.5t89.5 -18zM211 313l45 44l61 -60v181h63v-180l60 59l44 -44l-136 -137z" />
    <glyph glyph-name="glyph440" horiz-adv-x="700" 
d="M137 123q-44 44 -66.5 100t-22.5 113.5t22.5 113.5t66.5 100t99.5 66t113.5 22t113.5 -22t100.5 -66q44 -44 66 -100t22 -113.5t-22 -113t-66 -99.5q-45 -44 -100.5 -66.5t-113.5 -22.5t-113.5 22t-99.5 66zM188 174q33 -33 75.5 -50t86.5 -17t86.5 17t76.5 51
q33 33 50 75.5t17 86.5t-17 86.5t-50 75.5q-34 34 -76.5 51t-86.5 17t-86.5 -17t-75.5 -50q-34 -34 -51 -76.5t-17 -86.5t17 -86.5t51 -76.5zM236 418h63v-86l128 128l44 -45l-127 -127l85 -1v-62h-193v193z" />
    <glyph glyph-name="glyph441" horiz-adv-x="699" 
d="M563 123q-44 -44 -99.5 -66t-113.5 -22t-113.5 22.5t-100.5 66.5q-44 44 -66 99.5t-22 113t22 113.5t66 100q45 44 100.5 66t113.5 22t113.5 -22t99.5 -66t66 -100t22 -113.5t-22 -113.5t-66 -100zM512 174q34 34 50.5 76.5t16.5 86.5t-16.5 86.5t-50.5 76.5
q-33 33 -75.5 50t-86.5 17t-86.5 -17t-76.5 -51q-33 -33 -50 -75.5t-17 -86.5t17 -86.5t50 -75.5q34 -34 76.5 -51t86.5 -17t86.5 17t75.5 50zM356 288l-127 127l44 45l128 -128v86h63v-193h-193v62z" />
    <glyph glyph-name="glyph442" horiz-adv-x="699" 
d="M48 336q0 63 23.5 118t64.5 96t96 64.5t118 23.5q62 0 117 -23.5t96 -64.5t64.5 -96t23.5 -118q0 -62 -23.5 -117t-64.5 -96t-96 -64.5t-117 -23.5q-63 0 -118 23.5t-96 64.5t-64.5 96t-23.5 117zM120 336q0 -47 18 -89t49.5 -73t73 -49t89.5 -18q47 0 89 18t73 49t49 73
t18 89q0 48 -18 89.5t-49 73t-73 49.5t-89 18q-48 0 -89.5 -18t-73 -49.5t-49.5 -73t-18 -89.5zM326 475l44 -45l-60 -61h181v-63h-180l59 -60l-44 -44l-137 136z" />
    <glyph glyph-name="glyph443" horiz-adv-x="699" 
d="M651 336q0 -62 -23.5 -117t-64.5 -96t-96 -64.5t-118 -23.5q-62 0 -117 23.5t-96 64.5t-64.5 96t-23.5 117q0 63 23.5 118t64.5 96t96 64.5t117 23.5q63 0 118 -23.5t96 -64.5t64.5 -96t23.5 -118zM579 336q0 48 -18 89.5t-49.5 73t-73 49.5t-89.5 18q-47 0 -89 -18
t-73 -49.5t-49 -73t-18 -89.5q0 -47 18 -89t49 -73t73 -49t89 -18q48 0 89.5 18t73 49t49.5 73t18 89zM388 306h-180v63h181l-60 61l43 45l137 -137l-137 -136l-43 44z" />
    <glyph glyph-name="glyph444" horiz-adv-x="699" 
d="M350 638q62 0 117 -23.5t96 -64.5t64.5 -96t23.5 -118q0 -62 -23.5 -117t-64.5 -96t-96 -64.5t-117 -23.5q-63 0 -118 23.5t-96 64.5t-64.5 96t-23.5 117q0 63 23.5 118t64.5 96t96 64.5t118 23.5zM350 566q-48 0 -89.5 -18t-73 -49.5t-49.5 -73t-18 -89.5q0 -47 18 -89
t49.5 -73t73 -49t89.5 -18q47 0 89 18t73 49t49 73t18 89q0 48 -18 89.5t-49 73t-73 49.5t-89 18zM380 375v-180h-63v181l-61 -60l-45 44l137 137l136 -137l-44 -44z" />
    <glyph glyph-name="glyph445" horiz-adv-x="700" 
d="M137 551q44 44 99.5 66t113.5 22t113.5 -22.5t100.5 -66.5q44 -44 66 -99.5t22 -113t-22 -113.5t-66 -100q-45 -44 -100.5 -66.5t-113.5 -22.5t-113.5 22.5t-99.5 66.5t-66.5 100t-22.5 113.5t22.5 113.5t66.5 100zM188 500q-34 -34 -51 -76.5t-17 -86.5t17 -86.5
t51 -76.5q33 -33 75.5 -50t86.5 -17t86.5 17t76.5 51q33 33 50 75.5t17 86.5t-17 86.5t-50 75.5q-34 34 -76.5 51t-86.5 17t-86.5 -17t-75.5 -50zM344 386l127 -127l-44 -45l-128 128v-86h-63v193h193v-62z" />
    <glyph glyph-name="glyph446" horiz-adv-x="699" 
d="M563 551q44 -44 66 -100t22 -113.5t-22 -113.5t-66 -100t-99.5 -66.5t-113.5 -22.5t-113.5 22.5t-100.5 66.5q-44 44 -66 100t-22 113.5t22 113t66 99.5q45 44 100.5 66.5t113.5 22.5t113.5 -22t99.5 -66zM512 500q-33 33 -75.5 50t-86.5 17t-86.5 -17t-76.5 -51
q-33 -33 -50 -75.5t-17 -86.5t17 -86.5t50 -75.5q34 -34 76.5 -51t86.5 -17t86.5 17t75.5 50q34 34 50.5 76.5t16.5 86.5t-16.5 86.5t-50.5 76.5zM464 256h-63v86l-128 -128l-44 45l127 127l-85 1v62h193v-193z" />
    <glyph glyph-name="glyph447" horiz-adv-x="699" 
d="M350 35q-63 0 -118 23.5t-96 64.5t-64.5 96t-23.5 118q0 62 23.5 117t64.5 96t96 64.5t118 23.5q62 0 117 -23.5t96 -64.5t64.5 -96t23.5 -117q0 -63 -23.5 -118t-64.5 -96t-96 -64.5t-117 -23.5zM380 298v180h-63v-181l-61 60l-45 -44l137 -137l136 137l-44 44z" />
    <glyph glyph-name="glyph448" horiz-adv-x="700" 
d="M137 123q-44 44 -66.5 100t-22.5 113.5t22.5 113.5t66.5 100t99.5 66t113.5 22t113.5 -22t100.5 -66q44 -44 66 -100t22 -113.5t-22 -113t-66 -99.5q-45 -44 -100.5 -66.5t-113.5 -22.5t-113.5 22t-99.5 66zM344 288l127 127l-44 45l-128 -128v86h-63v-193h193v62z" />
    <glyph glyph-name="glyph449" horiz-adv-x="699" 
d="M563 123q-44 -44 -99.5 -66t-113.5 -22t-113.5 22.5t-100.5 66.5q-44 44 -66 99.5t-22 113t22 113.5t66 100q45 44 100.5 66t113.5 22t113.5 -22t99.5 -66t66 -100t22 -113.5t-22 -113.5t-66 -100zM464 418h-63v-86l-128 128l-44 -45l127 -127l-85 -1v-62h193v193z" />
    <glyph glyph-name="glyph450" horiz-adv-x="699" 
d="M48 336q0 63 23.5 118t64.5 96t96 64.5t118 23.5q62 0 117 -23.5t96 -64.5t64.5 -96t23.5 -118q0 -62 -23.5 -117t-64.5 -96t-96 -64.5t-117 -23.5q-63 0 -118 23.5t-96 64.5t-64.5 96t-23.5 117zM311 306h180v63h-181l60 61l-44 45l-137 -137l137 -136l44 44z" />
    <glyph glyph-name="glyph451" horiz-adv-x="699" 
d="M651 336q0 -62 -23.5 -117t-64.5 -96t-96 -64.5t-118 -23.5q-62 0 -117 23.5t-96 64.5t-64.5 96t-23.5 117q0 63 23.5 118t64.5 96t96 64.5t117 23.5q63 0 118 -23.5t96 -64.5t64.5 -96t23.5 -118zM372 475l-43 -45l60 -61h-181v-63h180l-59 -60l43 -44l137 136z" />
    <glyph glyph-name="glyph452" horiz-adv-x="699" 
d="M350 638q62 0 117 -23.5t96 -64.5t64.5 -96t23.5 -118q0 -62 -23.5 -117t-64.5 -96t-96 -64.5t-117 -23.5q-63 0 -118 23.5t-96 64.5t-64.5 96t-23.5 117q0 63 23.5 118t64.5 96t96 64.5t118 23.5zM211 360l45 -44l61 60v-181h63v180l60 -59l44 44l-136 137z" />
    <glyph glyph-name="glyph453" horiz-adv-x="700" 
d="M137 551q44 44 99.5 66t113.5 22t113.5 -22.5t100.5 -66.5q44 -44 66 -99.5t22 -113t-22 -113.5t-66 -100q-45 -44 -100.5 -66.5t-113.5 -22.5t-113.5 22.5t-99.5 66.5t-66.5 100t-22.5 113.5t22.5 113.5t66.5 100zM236 256h63v86l128 -128l44 45l-127 127l85 1v62h-193
v-193z" />
    <glyph glyph-name="glyph454" horiz-adv-x="699" 
d="M563 551q44 -44 66 -100t22 -113.5t-22 -113.5t-66 -100t-99.5 -66.5t-113.5 -22.5t-113.5 22.5t-100.5 66.5q-44 44 -66 100t-22 113.5t22 113t66 99.5q45 44 100.5 66.5t113.5 22.5t113.5 -22t99.5 -66zM356 386l-127 -127l44 -45l128 128v-86h63v193h-193v-62z" />
    <glyph glyph-name="glyph455" horiz-adv-x="700" 
d="M350 131l-84 84l-182 184l84 84l182 -184l182 182l83 -83l-181 -183z" />
    <glyph glyph-name="glyph456" horiz-adv-x="700" 
d="M350 336l-182 -184l-84 84l182 184l84 84l84 -84l181 -183l-83 -83z" />
    <glyph glyph-name="glyph457" horiz-adv-x="550" 
d="M437 156l-84 -84l-182 181l-84 84l84 84l184 182l84 -84l-184 -182z" />
    <glyph glyph-name="glyph458" horiz-adv-x="550" 
d="M197 72l-84 84l182 181l-184 182l84 84l184 -182l84 -84l-84 -84z" />
    <glyph glyph-name="glyph478" horiz-adv-x="583" 
d="M292 695q51 0 95 -18t76.5 -49.5t50.5 -74.5t18 -93q0 -51 -18 -94t-50.5 -74.5t-76.5 -49t-95 -17.5t-95 17.5t-76.5 49t-50.5 74.5t-18 94q0 50 18 93t50.5 74.5t76.5 49.5t95 18zM292 644q-40 0 -74 -14t-58.5 -39t-38.5 -58.5t-14 -72.5q0 -40 14 -74t38.5 -58.5
t58.5 -38.5t74 -14t74 14t59 38.5t39 58.5t14 74q0 39 -14 72.5t-39 58.5t-59 39t-74 14zM297 576q42 0 68 -23t26 -61q0 -20 -10.5 -36.5t-27.5 -27.5l49 -76h-75l-38 61h-23v-61h-60v222q25 1 47 1.5t44 0.5zM266 467h37q12 0 19 8t7 17q0 29 -30 29l-33 -1v-53z" />
    <glyph glyph-name="glyph481" horiz-adv-x="1022" 
d="M512 780q103 0 188 -32t145.5 -90.5t93.5 -141t33 -183.5q0 -63 -18 -109.5t-49 -77t-72.5 -45.5t-89.5 -15q-50 0 -82 14t-48 47q-32 -28 -69 -44.5t-86 -16.5q-47 0 -87.5 17.5t-69.5 49.5t-45.5 77.5t-16.5 101.5q1 53 16.5 97t44.5 75.5t71 48.5t96 17q53 0 92 -2.5
t69 -6.5t53 -7.5t44 -5.5v-302q0 -39 8.5 -56t34.5 -17q25 0 49.5 6.5t44 24t31.5 48.5t12 81q0 86 -28.5 156.5t-80 121t-124 78t-160.5 27.5q-84 0 -155.5 -29t-124.5 -80.5t-83 -121.5t-30 -152t26.5 -152t75 -121t117 -80.5t151.5 -30.5q67 0 130.5 10.5t140.5 27.5
l12 -60q-75 -19 -142 -30.5t-141 -11.5q-99 0 -179.5 34t-137.5 94t-88.5 142t-31.5 178t35 178t96.5 141.5t146 93.5t182.5 34zM488 460q-33 0 -56.5 -10t-37.5 -28t-20.5 -42.5t-6.5 -53.5q0 -57 30.5 -93.5t80.5 -36.5q29 0 58.5 10t58.5 35v29v185q-23 3 -49 4t-58 1z
" />
    <glyph glyph-name="glyph482" horiz-adv-x="324" 
d="M226 -129h-128v918h128v-918z" />
    <glyph glyph-name="glyph483" horiz-adv-x="324" 
d="M98 380v408h128v-408h-128zM98 -130v408h128v-408h-128z" />
    <glyph glyph-name="glyph497" 
d="M338 476h-103l5 204h137z" />
    <glyph glyph-name="glyph498" 
d="M373 748h-144l85 142h182z" />
    <glyph glyph-name="glyph499" 
d="M463 902q0 -75 -44 -116t-119 -41t-119 41t-44 116h114q0 -29 13.5 -40.5t35.5 -11.5q20 0 33.5 11.5t13.5 40.5h116z" />
    <glyph glyph-name="glyph500" 
d="M240 736l-120 151h133l47 -61l47 61h133l-119 -151h-121z" />
    <glyph glyph-name="glyph501" 
d="M253 748h-133l120 142h121l119 -142h-133l-47 61z" />
    <glyph glyph-name="glyph502" 
d="M190 738q-35 0 -59 22.5t-24 57.5t24 58t59 23t59.5 -23t24.5 -58t-24.5 -57.5t-59.5 -22.5zM409 738q-35 0 -59.5 22.5t-24.5 57.5t24.5 58t59.5 23t59 -23t24 -58t-24 -57.5t-59 -22.5z" />
    <glyph glyph-name="glyph503" 
d="M300 738q-35 0 -59 22.5t-24 57.5q0 34 24 57t59 23t59 -23t24 -57q0 -35 -24 -57.5t-59 -22.5z" />
    <glyph glyph-name="glyph504" 
d="M227 748l-123 142h182l75 -142h-134z" />
    <glyph glyph-name="glyph505" 
d="M280 749h-119l39 142h132zM443 749h-119l39 142h132z" />
    <glyph glyph-name="glyph506" 
d="M462 766h-324v110h324v-110z" />
    <glyph glyph-name="glyph507" 
d="M297 952q54 0 86.5 -30t32.5 -81q0 -50 -32.5 -81t-86.5 -31t-86.5 31t-32.5 81q0 51 32.5 81t86.5 30zM297 798q20 0 32 11.5t12 31.5t-12 31.5t-32 11.5t-31.5 -11.5t-11.5 -31.5t11.5 -31.5t31.5 -11.5z" />
    <glyph glyph-name="glyph508" 
d="M491 884q0 -50 -18.5 -81.5t-45.5 -45.5t-58.5 -13t-56.5 15l-45 28q-12 7 -20.5 7t-13.5 -4.5t-7 -12t-2 -14.5h-109q0 50 18.5 81t46 45t58.5 13t56 -15l46 -27q12 -8 20.5 -8t13 4.5t6.5 12t2 15.5h109z" />
    </font>
</defs>
</svg>
